<svg width="20" height="20" viewBox="0 0 20 20" fill="none" xmlns="http://www.w3.org/2000/svg">
<path d="M10.0382 9.40998V1.16536C10.0382 0.833214 10.2965 0.552734 10.6287 0.552734C15.1939 0.552734 18.8954 4.25432 18.8954 8.81949C18.8954 9.15164 18.615 9.40998 18.2828 9.40998H10.0382ZM0 10.5909C0 6.11434 3.32516 2.40906 7.63937 1.81858C7.9789 1.77061 8.26676 2.0437 8.26676 2.38692V11.1814L14.0424 16.9571C14.2897 17.2043 14.2712 17.6103 13.9871 17.8096C12.5404 18.8429 10.7689 19.4482 8.85724 19.4482C3.96731 19.4482 0 15.4846 0 10.5909ZM19.4269 11.1814C19.7701 11.1814 20.0395 11.4693 19.9952 11.8088C19.7111 13.8718 18.7183 15.706 17.2679 17.0604C17.0465 17.2671 16.6996 17.2523 16.4855 17.0346L10.6287 11.1814H19.4269Z" fill="#323232"/>
</svg>
