<svg width="16" height="20" viewBox="0 0 16 20" fill="none" xmlns="http://www.w3.org/2000/svg">
<path d="M2.44438 0C1.422 0 0.592529 0.839844 0.592529 1.875V18.125C0.592529 19.1602 1.422 20 2.44438 20H6.14808V16.875C6.14808 15.8398 6.97756 15 7.99994 15C9.02231 15 9.85179 15.8398 9.85179 16.875V20H13.5555C14.5779 20 15.4073 19.1602 15.4073 18.125V1.875C15.4073 0.839844 14.5779 0 13.5555 0H2.44438ZM3.06167 9.375C3.06167 9.03125 3.33944 8.75 3.67895 8.75H4.91352C5.25302 8.75 5.5308 9.03125 5.5308 9.375V10.625C5.5308 10.9688 5.25302 11.25 4.91352 11.25H3.67895C3.33944 11.25 3.06167 10.9688 3.06167 10.625V9.375ZM7.38265 8.75H8.61722C8.95673 8.75 9.2345 9.03125 9.2345 9.375V10.625C9.2345 10.9688 8.95673 11.25 8.61722 11.25H7.38265C7.04315 11.25 6.76537 10.9688 6.76537 10.625V9.375C6.76537 9.03125 7.04315 8.75 7.38265 8.75ZM10.4691 9.375C10.4691 9.03125 10.7469 8.75 11.0864 8.75H12.3209C12.6604 8.75 12.9382 9.03125 12.9382 9.375V10.625C12.9382 10.9688 12.6604 11.25 12.3209 11.25H11.0864C10.7469 11.25 10.4691 10.9688 10.4691 10.625V9.375ZM3.67895 3.75H4.91352C5.25302 3.75 5.5308 4.03125 5.5308 4.375V5.625C5.5308 5.96875 5.25302 6.25 4.91352 6.25H3.67895C3.33944 6.25 3.06167 5.96875 3.06167 5.625V4.375C3.06167 4.03125 3.33944 3.75 3.67895 3.75ZM6.76537 4.375C6.76537 4.03125 7.04315 3.75 7.38265 3.75H8.61722C8.95673 3.75 9.2345 4.03125 9.2345 4.375V5.625C9.2345 5.96875 8.95673 6.25 8.61722 6.25H7.38265C7.04315 6.25 6.76537 5.96875 6.76537 5.625V4.375ZM11.0864 3.75H12.3209C12.6604 3.75 12.9382 4.03125 12.9382 4.375V5.625C12.9382 5.96875 12.6604 6.25 12.3209 6.25H11.0864C10.7469 6.25 10.4691 5.96875 10.4691 5.625V4.375C10.4691 4.03125 10.7469 3.75 11.0864 3.75Z" fill="#323232"/>
</svg>
