<svg width="20" height="18" viewBox="0 0 20 18" fill="none" xmlns="http://www.w3.org/2000/svg">
<path d="M19.9948 8.98082C19.9948 9.60877 19.4738 10.1007 18.8834 10.1007H17.772L17.7963 15.6894C17.7963 15.7836 17.7893 15.8778 17.7789 15.972V16.5372C17.7789 17.3082 17.1572 17.9326 16.3897 17.9326H15.834C15.7958 17.9326 15.7575 17.9326 15.7193 17.9291C15.6707 17.9326 15.6221 17.9326 15.5735 17.9326L14.4447 17.9291H13.6112C12.8436 17.9291 12.2219 17.3047 12.2219 16.5337V15.6964V13.4637C12.2219 12.8462 11.7253 12.3473 11.1105 12.3473H8.88772C8.27297 12.3473 7.77632 12.8462 7.77632 13.4637V15.6964V16.5337C7.77632 17.3047 7.15463 17.9291 6.38707 17.9291H5.55352H4.44559C4.3935 17.9291 4.3414 17.9257 4.2893 17.9222C4.24763 17.9257 4.20595 17.9291 4.16427 17.9291H3.60857C2.84101 17.9291 2.21932 17.3047 2.21932 16.5337V12.6264C2.21932 12.595 2.21932 12.5602 2.2228 12.5288V10.0972H1.1114C0.486237 10.0972 0 9.60877 0 8.97733C0 8.66336 0.104194 8.38427 0.347312 8.14006L9.24892 0.346473C9.49204 0.102269 9.76989 0.0673828 10.013 0.0673828C10.2561 0.0673828 10.534 0.137155 10.7424 0.311587L19.6127 8.14355C19.8906 8.38775 20.0295 8.66685 19.9948 8.98082Z" fill="#323232"/>
</svg>
