<svg width="20" height="20" viewBox="0 0 20 20" fill="none" xmlns="http://www.w3.org/2000/svg">
<path d="M3.75 3.65101C3.75 2.25022 4.87109 1.11133 6.25 1.11133H17.5C18.8789 1.11133 20 2.25022 20 3.65101V16.3494C20 17.7502 18.8789 18.8891 17.5 18.8891H3.125C1.39844 18.8891 0 17.4685 0 15.7145V4.92085C0 4.21847 0.558594 3.65101 1.25 3.65101C1.94141 3.65101 2.5 4.21847 2.5 4.92085V15.7145C2.5 16.0637 2.78125 16.3494 3.125 16.3494C3.46875 16.3494 3.75 16.0637 3.75 15.7145V3.65101ZM6.25 4.60339V7.778C6.25 8.30577 6.66797 8.73038 7.1875 8.73038H11.5625C12.082 8.73038 12.5 8.30577 12.5 7.778V4.60339C12.5 4.07561 12.082 3.65101 11.5625 3.65101H7.1875C6.66797 3.65101 6.25 4.07561 6.25 4.60339ZM14.375 4.28593C14.375 4.63514 14.6562 4.92085 15 4.92085H16.875C17.2188 4.92085 17.5 4.63514 17.5 4.28593C17.5 3.93673 17.2188 3.65101 16.875 3.65101H15C14.6562 3.65101 14.375 3.93673 14.375 4.28593ZM14.375 8.09546C14.375 8.44466 14.6562 8.73038 15 8.73038H16.875C17.2188 8.73038 17.5 8.44466 17.5 8.09546C17.5 7.74625 17.2188 7.46053 16.875 7.46053H15C14.6562 7.46053 14.375 7.74625 14.375 8.09546ZM6.25 11.905C6.25 12.2542 6.53125 12.5399 6.875 12.5399H16.875C17.2188 12.5399 17.5 12.2542 17.5 11.905C17.5 11.5558 17.2188 11.2701 16.875 11.2701H6.875C6.53125 11.2701 6.25 11.5558 6.25 11.905ZM6.25 15.7145C6.25 16.0637 6.53125 16.3494 6.875 16.3494H16.875C17.2188 16.3494 17.5 16.0637 17.5 15.7145C17.5 15.3653 17.2188 15.0796 16.875 15.0796H6.875C6.53125 15.0796 6.25 15.3653 6.25 15.7145Z" fill="#323232"/>
</svg>
