<svg width="20" height="20" viewBox="0 0 20 20" fill="none" xmlns="http://www.w3.org/2000/svg">
<path d="M18.75 1.25204C18.75 0.748187 18.4453 0.291205 17.9766 0.0959142C17.5078 -0.0993771 16.9727 0.00998601 16.6133 0.365416L14.9102 2.07226C13.0352 3.94706 10.4922 5.00163 7.83984 5.00163H7.5H6.25H2.5C1.12109 5.00163 0 6.1226 0 7.50136V11.251C0 12.6297 1.12109 13.7507 2.5 13.7507V18.7501C2.5 19.4415 3.05859 20 3.75 20H6.25C6.94141 20 7.5 19.4415 7.5 18.7501V13.7507H7.83984C10.4922 13.7507 13.0352 14.8053 14.9102 16.68L16.6133 18.383C16.9727 18.7423 17.5078 18.8478 17.9766 18.6525C18.4453 18.4572 18.75 18.0041 18.75 17.4964V11.7314C19.4766 11.3877 20 10.462 20 9.37225C20 8.28252 19.4766 7.35684 18.75 7.01313V1.25204ZM16.25 4.24781V9.37615V14.5045C13.9531 12.4149 10.957 11.251 7.83984 11.251H7.5V7.50136H7.83984C10.957 7.50136 13.9531 6.33742 16.25 4.24781Z" fill="#323232"/>
</svg>
