<svg width="20" height="20" viewBox="0 0 20 20" fill="none" xmlns="http://www.w3.org/2000/svg">
<path d="M9.9999 0C8.34532 0 6.93615 1.04297 6.41761 2.5H4.93324C3.53594 2.5 2.3999 3.62109 2.3999 5V17.5C2.3999 18.8789 3.53594 20 4.93324 20H15.0666C16.4639 20 17.5999 18.8789 17.5999 17.5V5C17.5999 3.62109 16.4639 2.5 15.0666 2.5H13.5822C13.0637 1.04297 11.6545 0 9.9999 0ZM9.9999 2.5C10.3358 2.5 10.658 2.6317 10.8956 2.86612C11.1331 3.10054 11.2666 3.41848 11.2666 3.75C11.2666 4.08152 11.1331 4.39946 10.8956 4.63388C10.658 4.8683 10.3358 5 9.9999 5C9.66396 5 9.34178 4.8683 9.10423 4.63388C8.86669 4.39946 8.73324 4.08152 8.73324 3.75C8.73324 3.41848 8.86669 3.10054 9.10423 2.86612C9.34178 2.6317 9.66396 2.5 9.9999 2.5ZM5.2499 10.625C5.2499 10.3764 5.34999 10.1379 5.52815 9.96209C5.70631 9.78627 5.94795 9.6875 6.1999 9.6875C6.45186 9.6875 6.69349 9.78627 6.87165 9.96209C7.04981 10.1379 7.1499 10.3764 7.1499 10.625C7.1499 10.8736 7.04981 11.1121 6.87165 11.2879C6.69349 11.4637 6.45186 11.5625 6.1999 11.5625C5.94795 11.5625 5.70631 11.4637 5.52815 11.2879C5.34999 11.1121 5.2499 10.8736 5.2499 10.625ZM9.36657 10H14.4332C14.7816 10 15.0666 10.2812 15.0666 10.625C15.0666 10.9688 14.7816 11.25 14.4332 11.25H9.36657C9.01824 11.25 8.73324 10.9688 8.73324 10.625C8.73324 10.2812 9.01824 10 9.36657 10ZM5.2499 14.375C5.2499 14.1264 5.34999 13.8879 5.52815 13.7121C5.70631 13.5363 5.94795 13.4375 6.1999 13.4375C6.45186 13.4375 6.69349 13.5363 6.87165 13.7121C7.04981 13.8879 7.1499 14.1264 7.1499 14.375C7.1499 14.6236 7.04981 14.8621 6.87165 15.0379C6.69349 15.2137 6.45186 15.3125 6.1999 15.3125C5.94795 15.3125 5.70631 15.2137 5.52815 15.0379C5.34999 14.8621 5.2499 14.6236 5.2499 14.375ZM8.73324 14.375C8.73324 14.0312 9.01824 13.75 9.36657 13.75H14.4332C14.7816 13.75 15.0666 14.0312 15.0666 14.375C15.0666 14.7188 14.7816 15 14.4332 15H9.36657C9.01824 15 8.73324 14.7188 8.73324 14.375Z" fill="#323232"/>
</svg>
