<svg width="32" height="32" viewBox="0 0 32 32" fill="none" xmlns="http://www.w3.org/2000/svg">
<path d="M15.9998 0C13.3525 0 11.0978 1.66875 10.2682 4H7.89318C5.65751 4 3.83984 5.79375 3.83984 8V28C3.83984 30.2062 5.65751 32 7.89318 32H24.1065C26.3422 32 28.1598 30.2062 28.1598 28V8C28.1598 5.79375 26.3422 4 24.1065 4H21.7315C20.9018 1.66875 18.6472 0 15.9998 0ZM15.9998 4C16.5374 4 17.0528 4.21071 17.4329 4.58579C17.813 4.96086 18.0265 5.46957 18.0265 6C18.0265 6.53043 17.813 7.03914 17.4329 7.41421C17.0528 7.78929 16.5374 8 15.9998 8C15.4623 8 14.9468 7.78929 14.5668 7.41421C14.1867 7.03914 13.9732 6.53043 13.9732 6C13.9732 5.46957 14.1867 4.96086 14.5668 4.58579C14.9468 4.21071 15.4623 4 15.9998 4ZM8.39984 17C8.39984 16.6022 8.55999 16.2206 8.84504 15.9393C9.1301 15.658 9.51672 15.5 9.91984 15.5C10.323 15.5 10.7096 15.658 10.9946 15.9393C11.2797 16.2206 11.4398 16.6022 11.4398 17C11.4398 17.3978 11.2797 17.7794 10.9946 18.0607C10.7096 18.342 10.323 18.5 9.91984 18.5C9.51672 18.5 9.1301 18.342 8.84504 18.0607C8.55999 17.7794 8.39984 17.3978 8.39984 17ZM14.9865 16H23.0932C23.6505 16 24.1065 16.45 24.1065 17C24.1065 17.55 23.6505 18 23.0932 18H14.9865C14.4292 18 13.9732 17.55 13.9732 17C13.9732 16.45 14.4292 16 14.9865 16ZM8.39984 23C8.39984 22.6022 8.55999 22.2206 8.84504 21.9393C9.1301 21.658 9.51672 21.5 9.91984 21.5C10.323 21.5 10.7096 21.658 10.9946 21.9393C11.2797 22.2206 11.4398 22.6022 11.4398 23C11.4398 23.3978 11.2797 23.7794 10.9946 24.0607C10.7096 24.342 10.323 24.5 9.91984 24.5C9.51672 24.5 9.1301 24.342 8.84504 24.0607C8.55999 23.7794 8.39984 23.3978 8.39984 23ZM13.9732 23C13.9732 22.45 14.4292 22 14.9865 22H23.0932C23.6505 22 24.1065 22.45 24.1065 23C24.1065 23.55 23.6505 24 23.0932 24H14.9865C14.4292 24 13.9732 23.55 13.9732 23Z" fill="white"/>
</svg>
