<svg width="24" height="24" viewBox="0 0 24 24" fill="none" xmlns="http://www.w3.org/2000/svg">
<path d="M11.9999 0C10.0144 0 8.32338 1.25156 7.70113 3H5.91988C4.24313 3 2.87988 4.34531 2.87988 6V21C2.87988 22.6547 4.24313 24 5.91988 24H18.0799C19.7566 24 21.1199 22.6547 21.1199 21V6C21.1199 4.34531 19.7566 3 18.0799 3H16.2986C15.6764 1.25156 13.9854 0 11.9999 0ZM11.9999 3C12.403 3 12.7896 3.15804 13.0747 3.43934C13.3597 3.72064 13.5199 4.10218 13.5199 4.5C13.5199 4.89782 13.3597 5.27936 13.0747 5.56066C12.7896 5.84196 12.403 6 11.9999 6C11.5968 6 11.2101 5.84196 10.9251 5.56066C10.64 5.27936 10.4799 4.89782 10.4799 4.5C10.4799 4.10218 10.64 3.72064 10.9251 3.43934C11.2101 3.15804 11.5968 3 11.9999 3ZM6.29988 12.75C6.29988 12.4516 6.41999 12.1655 6.63378 11.9545C6.84757 11.7435 7.13754 11.625 7.43988 11.625C7.74223 11.625 8.03219 11.7435 8.24599 11.9545C8.45978 12.1655 8.57988 12.4516 8.57988 12.75C8.57988 13.0484 8.45978 13.3345 8.24599 13.5455C8.03219 13.7565 7.74223 13.875 7.43988 13.875C7.13754 13.875 6.84757 13.7565 6.63378 13.5455C6.41999 13.3345 6.29988 13.0484 6.29988 12.75ZM11.2399 12H17.3199C17.7379 12 18.0799 12.3375 18.0799 12.75C18.0799 13.1625 17.7379 13.5 17.3199 13.5H11.2399C10.8219 13.5 10.4799 13.1625 10.4799 12.75C10.4799 12.3375 10.8219 12 11.2399 12ZM6.29988 17.25C6.29988 16.9516 6.41999 16.6655 6.63378 16.4545C6.84757 16.2435 7.13754 16.125 7.43988 16.125C7.74223 16.125 8.03219 16.2435 8.24599 16.4545C8.45978 16.6655 8.57988 16.9516 8.57988 17.25C8.57988 17.5484 8.45978 17.8345 8.24599 18.0455C8.03219 18.2565 7.74223 18.375 7.43988 18.375C7.13754 18.375 6.84757 18.2565 6.63378 18.0455C6.41999 17.8345 6.29988 17.5484 6.29988 17.25ZM10.4799 17.25C10.4799 16.8375 10.8219 16.5 11.2399 16.5H17.3199C17.7379 16.5 18.0799 16.8375 18.0799 17.25C18.0799 17.6625 17.7379 18 17.3199 18H11.2399C10.8219 18 10.4799 17.6625 10.4799 17.25Z" fill="#0F9058"/>
</svg>
