<svg width="40" height="40" viewBox="0 0 40 40" fill="none" xmlns="http://www.w3.org/2000/svg">
<path d="M5 3.75V38.1016C5 39.1484 5.85156 40 6.89844 40C7.28906 40 7.67188 39.8828 7.99219 39.6562L20 31.25L32.0078 39.6562C32.3281 39.8828 32.7109 40 33.1016 40C34.1484 40 35 39.1484 35 38.1016V3.75C35 1.67969 33.3203 0 31.25 0H8.75C6.67969 0 5 1.67969 5 3.75Z" fill="#75C1FF"/>
<path d="M15.4654 22V20.47C16.6774 19.39 17.7094 18.388 18.5614 17.464C19.4254 16.54 20.0854 15.682 20.5414 14.89C20.9974 14.086 21.2254 13.342 21.2254 12.658C21.2254 12.226 21.1474 11.848 20.9914 11.524C20.8354 11.2 20.6074 10.954 20.3074 10.786C20.0194 10.606 19.6594 10.516 19.2274 10.516C18.7474 10.516 18.3034 10.654 17.8954 10.93C17.4994 11.194 17.1334 11.512 16.7974 11.884L15.3214 10.462C15.9454 9.79 16.5814 9.286 17.2294 8.95C17.8894 8.602 18.6694 8.428 19.5694 8.428C20.4094 8.428 21.1414 8.602 21.7654 8.95C22.4014 9.286 22.8934 9.76 23.2414 10.372C23.5894 10.984 23.7634 11.704 23.7634 12.532C23.7634 13.336 23.5594 14.158 23.1514 14.998C22.7554 15.826 22.2214 16.654 21.5494 17.482C20.8774 18.31 20.1334 19.126 19.3174 19.93C19.6654 19.882 20.0374 19.846 20.4334 19.822C20.8414 19.786 21.2014 19.768 21.5134 19.768H24.3934V22H15.4654Z" fill="white"/>
</svg>
