<svg width="40" height="40" viewBox="0 0 40 40" fill="none" xmlns="http://www.w3.org/2000/svg">
<path d="M5 3.75V38.1016C5 39.1484 5.85156 40 6.89844 40C7.28906 40 7.67188 39.8828 7.99219 39.6562L20 31.25L32.0078 39.6562C32.3281 39.8828 32.7109 40 33.1016 40C34.1484 40 35 39.1484 35 38.1016V3.75C35 1.67969 33.3203 0 31.25 0H8.75C6.67969 0 5 1.67969 5 3.75Z" fill="#FFCE2D"/>
<path d="M16.1674 22V19.84H19.0474V11.434H16.6174V9.778C17.2894 9.658 17.8654 9.514 18.3454 9.346C18.8374 9.166 19.2934 8.938 19.7134 8.662H21.6754V19.84H24.1774V22H16.1674Z" fill="white"/>
</svg>
