<svg width="40" height="40" viewBox="0 0 40 40" fill="none" xmlns="http://www.w3.org/2000/svg">
<path d="M5 3.75V38.1016C5 39.1484 5.85156 40 6.89844 40C7.28906 40 7.67188 39.8828 7.99219 39.6562L20 31.25L32.0078 39.6562C32.3281 39.8828 32.7109 40 33.1016 40C34.1484 40 35 39.1484 35 38.1016V3.75C35 1.67969 33.3203 0 31.25 0H8.75C6.67969 0 5 1.67969 5 3.75Z" fill="#DFB565"/>
<path d="M19.6054 22.252C18.9094 22.252 18.2854 22.168 17.7334 22C17.1814 21.844 16.6894 21.628 16.2574 21.352C15.8374 21.064 15.4714 20.746 15.1594 20.398L16.4014 18.724C16.8094 19.096 17.2534 19.42 17.7334 19.696C18.2254 19.96 18.7714 20.092 19.3714 20.092C19.8274 20.092 20.2234 20.02 20.5594 19.876C20.9074 19.732 21.1714 19.522 21.3514 19.246C21.5434 18.97 21.6394 18.634 21.6394 18.238C21.6394 17.794 21.5314 17.416 21.3154 17.104C21.1114 16.78 20.7454 16.534 20.2174 16.366C19.6894 16.198 18.9454 16.114 17.9854 16.114V14.206C18.8014 14.206 19.4434 14.122 19.9114 13.954C20.3794 13.774 20.7094 13.534 20.9014 13.234C21.1054 12.922 21.2074 12.568 21.2074 12.172C21.2074 11.656 21.0514 11.254 20.7394 10.966C20.4274 10.666 19.9894 10.516 19.4254 10.516C18.9574 10.516 18.5194 10.624 18.1114 10.84C17.7154 11.044 17.3194 11.326 16.9234 11.686L15.5554 10.048C16.1434 9.556 16.7614 9.166 17.4094 8.878C18.0574 8.578 18.7714 8.428 19.5514 8.428C20.4034 8.428 21.1534 8.566 21.8014 8.842C22.4614 9.118 22.9714 9.52 23.3314 10.048C23.6914 10.576 23.8714 11.218 23.8714 11.974C23.8714 12.694 23.6794 13.312 23.2954 13.828C22.9114 14.344 22.3654 14.74 21.6574 15.016V15.106C22.1494 15.238 22.5934 15.454 22.9894 15.754C23.3974 16.042 23.7154 16.408 23.9434 16.852C24.1834 17.296 24.3034 17.812 24.3034 18.4C24.3034 19.204 24.0874 19.894 23.6554 20.47C23.2354 21.046 22.6654 21.49 21.9454 21.802C21.2374 22.102 20.4574 22.252 19.6054 22.252Z" fill="white"/>
</svg>
