<svg width="21" height="20" viewBox="0 0 21 20" fill="none" xmlns="http://www.w3.org/2000/svg">
<path d="M3.35714 0C1.78125 0 0.5 1.28125 0.5 2.85714V17.1429C0.5 18.7188 1.78125 20 3.35714 20H17.6429C19.2188 20 20.5 18.7188 20.5 17.1429V2.85714C20.5 1.28125 19.2188 0 17.6429 0H3.35714ZM15.5446 7.90179L9.83036 13.6161C9.41071 14.0357 8.73214 14.0357 8.31696 13.6161L5.45982 10.7589C5.04018 10.3393 5.04018 9.66071 5.45982 9.24554C5.87946 8.83036 6.55804 8.82589 6.97321 9.24554L9.07143 11.3438L14.0268 6.38393C14.4464 5.96429 15.125 5.96429 15.5402 6.38393C15.9554 6.80357 15.9598 7.48214 15.5402 7.89732L15.5446 7.90179Z" fill="#DCDCDC"/>
</svg>
