<svg width="240" height="172" viewBox="0 0 240 172" fill="none" xmlns="http://www.w3.org/2000/svg">
<path d="M123.148 171.107C187.683 171.107 239.999 165.537 239.999 158.667C239.999 151.796 187.683 146.227 123.148 146.227C58.6129 146.227 6.29688 151.796 6.29688 158.667C6.29688 165.537 58.6129 171.107 123.148 171.107Z" fill="#9AD0B9"/>
<path d="M21.4614 41.7504C25.3199 42.5479 28.7964 45.3348 29.1929 51.3959C29.5669 57.1336 26.433 62.814 27.9831 68.4977C29.5748 74.332 34.1162 76.3281 32.4582 83.544C31.8674 86.114 30.916 88.6189 30.9643 91.317C31.0654 96.9704 35.0148 100.423 36.9445 104.859C39.4359 110.583 38.5137 118.47 35.1967 123.173C28.8907 132.116 18.1972 128.904 10.2434 128.057C5.62225 127.565 1.45269 124.258 0.296844 117.552C-1.04434 109.767 2.46812 106.015 4.6641 99.8572C6.80056 93.8657 4.16987 86.8082 4.10696 80.1146C4.0362 72.6314 8.36077 68.5236 9.15492 61.648C9.72891 56.6753 7.72501 51.5532 9.7188 46.8568C10.7747 44.3699 12.7292 42.8344 14.7432 42.1671C16.7392 41.5055 19.1677 41.2775 21.4603 41.7515L21.4614 41.7504Z" fill="#8CCAAF"/>
<path d="M19.6407 77.5781H18.7207V148.196H19.6407V77.5781Z" fill="#0F9058"/>
<path d="M11.8504 92.0942L11.0137 92.4766L18.763 109.434L19.5997 109.051L11.8504 92.0942Z" fill="#0F9058"/>
<path d="M26.4352 110.26L18.8047 121.227L19.5598 121.752L27.1904 110.785L26.4352 110.26Z" fill="#0F9058"/>
<path d="M9.71289 145.594H28.2299V158.985C28.2299 159.666 27.6773 160.22 26.9955 160.22H10.9474C10.2667 160.22 9.71289 159.667 9.71289 158.985V145.594Z" fill="#0F9058"/>
<path d="M203.193 146.016H221.71V159.407C221.71 160.088 221.157 160.642 220.475 160.642H204.426C203.745 160.642 203.191 160.089 203.191 159.407V146.016H203.193Z" fill="#0F9058"/>
<path d="M209.172 144.517C209.182 144.517 209.193 144.515 209.203 144.513C209.286 144.492 209.335 144.407 209.314 144.324C203.709 122.692 198.441 107.371 194.48 101.179C194.392 101.042 194.328 100.942 194.305 100.893C194.268 100.815 194.176 100.783 194.098 100.82C194.021 100.857 193.988 100.949 194.025 101.027C194.058 101.094 194.118 101.19 194.219 101.347C198.162 107.511 203.417 122.801 209.014 144.402C209.033 144.475 209.1 144.522 209.172 144.517Z" fill="#0F9058"/>
<path d="M191.599 99.9666C192.07 100.662 194.521 102.001 194.719 101.866C194.918 101.731 194.589 98.958 194.119 98.2626C193.648 97.5673 192.702 97.3842 192.007 97.8549C191.311 98.3255 191.128 99.2713 191.599 99.9666Z" fill="#0F9058"/>
<path d="M196.347 102.208C196.068 103.021 196.484 105.847 196.716 105.927C196.949 106.007 199.011 104.03 199.29 103.217C199.568 102.403 199.136 101.519 198.322 101.241C197.509 100.962 196.625 101.395 196.347 102.208Z" fill="#0F9058"/>
<path d="M193.178 107.001C194.033 107.09 196.694 106.048 196.719 105.804C196.744 105.56 194.353 103.994 193.498 103.907C192.643 103.818 191.878 104.439 191.79 105.294C191.701 106.149 192.322 106.914 193.177 107.003L193.178 107.001Z" fill="#0F9058"/>
<path d="M203.143 116.668C202.531 117.975 202.714 122.768 203.087 122.942C203.46 123.117 207.261 120.191 207.873 118.885C208.485 117.578 207.923 116.024 206.616 115.412C205.31 114.799 203.755 115.362 203.143 116.668Z" fill="#0F9058"/>
<path d="M196.987 124.096C198.397 124.398 203.025 123.14 203.112 122.738C203.198 122.336 199.491 119.29 198.082 118.988C196.671 118.686 195.283 119.585 194.98 120.994C194.678 122.404 195.577 123.794 196.987 124.096Z" fill="#0F9058"/>
<path d="M206.685 122.158C205.602 123.552 204.531 129.323 204.928 129.632C205.326 129.941 210.652 127.472 211.734 126.078C212.817 124.684 212.564 122.675 211.169 121.594C209.775 120.511 207.767 120.764 206.685 122.159V122.158Z" fill="#0F9058"/>
<path d="M197.917 131.85C199.672 132.041 205.148 129.927 205.202 129.426C205.255 128.925 200.361 125.687 198.607 125.496C196.852 125.305 195.275 126.574 195.085 128.328C194.894 130.083 196.163 131.66 197.918 131.851L197.917 131.85Z" fill="#0F9058"/>
<path d="M208.734 129.22C207.651 130.614 206.58 136.386 206.977 136.695C207.375 137.003 212.7 134.534 213.783 133.14C214.866 131.746 214.613 129.738 213.219 128.656C211.825 127.574 209.817 127.826 208.735 129.22H208.734Z" fill="#0F9058"/>
<path d="M199.966 138.912C201.721 139.103 207.196 136.989 207.25 136.488C207.304 135.987 202.41 132.749 200.656 132.558C198.901 132.368 197.324 133.635 197.134 135.391C196.943 137.145 198.211 138.722 199.967 138.913L199.966 138.912Z" fill="#0F9058"/>
<path d="M213.481 138.174C211.949 139.051 208.76 143.978 209.01 144.415C209.261 144.852 215.124 144.598 216.656 143.721C218.188 142.844 218.72 140.891 217.842 139.359C216.965 137.827 215.013 137.296 213.481 138.173V138.174Z" fill="#0F9058"/>
<path d="M201.752 145.892C203.47 146.299 209.166 144.887 209.283 144.397C209.399 143.907 204.948 140.081 203.23 139.673C201.513 139.265 199.79 140.326 199.382 142.043C198.974 143.761 200.035 145.484 201.752 145.892Z" fill="#0F9058"/>
<path d="M198.44 106.709C198.157 107.535 198.58 110.407 198.815 110.488C199.051 110.569 201.147 108.56 201.43 107.735C201.713 106.909 201.273 106.009 200.447 105.726C199.622 105.443 198.722 105.884 198.439 106.709H198.44Z" fill="#0F9058"/>
<path d="M195.332 111.638C196.201 111.728 198.904 110.669 198.93 110.422C198.956 110.173 196.526 108.584 195.658 108.493C194.79 108.403 194.012 109.034 193.923 109.903C193.833 110.771 194.464 111.548 195.332 111.638Z" fill="#0F9058"/>
<path d="M200.868 110.91C200.37 112.046 200.635 116.162 200.959 116.304C201.284 116.445 204.486 113.846 204.982 112.709C205.48 111.572 204.961 110.248 203.825 109.752C202.689 109.254 201.364 109.773 200.868 110.908V110.91Z" fill="#0F9058"/>
<path d="M195.89 117.893C197.123 118.022 200.964 116.517 201.001 116.165C201.037 115.813 197.586 113.553 196.353 113.426C195.119 113.298 194.015 114.196 193.887 115.429C193.759 116.662 194.657 117.767 195.89 117.895V117.893Z" fill="#0F9058"/>
<path d="M214.167 146.546C214.15 146.547 214.134 146.546 214.116 146.546C213.98 146.529 213.883 146.405 213.9 146.269C218.226 110.736 223.35 85.2925 228.329 74.6248C228.439 74.3877 228.52 74.217 228.547 74.1328C228.589 74.0025 228.729 73.9306 228.859 73.9733C228.989 74.0159 229.061 74.1552 229.018 74.2855C228.981 74.399 228.905 74.5641 228.778 74.8359C223.821 85.4576 218.712 110.848 214.392 146.33C214.378 146.449 214.281 146.538 214.167 146.547V146.546Z" fill="#8CCAAF"/>
<path d="M232.647 72.0851C232.047 73.2892 228.437 75.9334 228.093 75.7615C227.75 75.5908 227.686 71.1168 228.285 69.9127C228.885 68.7085 230.348 68.2188 231.552 68.8186C232.756 69.4184 233.246 70.8809 232.646 72.0851H232.647Z" fill="#8CCAAF"/>
<path d="M225.584 76.6536C226.199 77.8847 226.136 82.4621 225.784 82.6373C225.433 82.8125 221.738 80.1099 221.124 78.8788C220.509 77.6466 221.01 76.1504 222.242 75.536C223.474 74.9215 224.97 75.4225 225.584 76.6536Z" fill="#8CCAAF"/>
<path d="M231.63 83.596C230.291 83.9173 225.847 82.8254 225.756 82.4435C225.664 82.0616 229.129 79.0703 230.468 78.7491C231.807 78.4278 233.151 79.2523 233.473 80.5913C233.794 81.9302 232.969 83.2748 231.63 83.596Z" fill="#8CCAAF"/>
<path d="M217.849 101.049C219.097 102.993 219.82 110.643 219.265 110.999C218.71 111.355 212.056 107.513 210.808 105.569C209.56 103.624 210.124 101.036 212.068 99.7885C214.013 98.5405 216.601 99.1044 217.849 101.049Z" fill="#8CCAAF"/>
<path d="M229.195 111.538C227.02 112.317 219.405 111.298 219.183 110.677C218.96 110.056 224.201 104.438 226.377 103.66C228.553 102.881 230.947 104.015 231.725 106.189C232.503 108.365 231.371 110.759 229.195 111.537V111.538Z" fill="#8CCAAF"/>
<path d="M213.389 110.512C215.403 112.497 218.325 121.432 217.759 122.008C217.193 122.583 208.215 119.789 206.202 117.804C204.188 115.819 204.164 112.578 206.149 110.565C208.134 108.551 211.376 108.528 213.389 110.512Z" fill="#8CCAAF"/>
<path d="M229.359 124.054C226.612 124.728 217.471 122.529 217.279 121.746C217.087 120.962 224.174 114.784 226.92 114.11C229.667 113.436 232.438 115.116 233.112 117.863C233.786 120.609 232.105 123.38 229.359 124.054Z" fill="#8CCAAF"/>
<path d="M211.626 122.161C213.64 124.146 216.563 133.081 215.997 133.656C215.431 134.231 206.453 131.438 204.44 129.453C202.426 127.468 202.403 124.227 204.387 122.214C206.372 120.2 209.614 120.176 211.626 122.161Z" fill="#8CCAAF"/>
<path d="M227.597 135.695C224.851 136.369 215.71 134.169 215.518 133.386C215.325 132.602 222.412 126.424 225.158 125.75C227.905 125.076 230.676 126.757 231.35 129.503C232.024 132.25 230.343 135.021 227.597 135.695Z" fill="#8CCAAF"/>
<path d="M205.985 137.389C208.603 138.457 214.709 145.607 214.404 146.353C214.099 147.1 204.735 147.937 202.116 146.869C199.498 145.801 198.242 142.813 199.311 140.195C200.379 137.576 203.367 136.32 205.985 137.389Z" fill="#8CCAAF"/>
<path d="M226.239 147.151C223.598 148.162 214.253 147.124 213.965 146.371C213.676 145.617 219.935 138.601 222.576 137.59C225.215 136.579 228.176 137.899 229.187 140.54C230.198 143.179 228.878 146.14 226.238 147.151H226.239Z" fill="#8CCAAF"/>
<path d="M223.21 84.2385C223.835 85.4898 223.771 90.1402 223.414 90.3188C223.056 90.4974 219.302 87.751 218.679 86.4996C218.055 85.2483 218.563 83.7274 219.815 83.1029C221.066 82.4783 222.587 82.9872 223.211 84.2385H223.21Z" fill="#8CCAAF"/>
<path d="M229.19 91.4092C227.829 91.736 223.314 90.6262 223.221 90.2376C223.127 89.8501 226.648 86.8105 228.008 86.4847C229.368 86.1579 230.735 86.9958 231.061 88.3561C231.388 89.7164 230.55 91.0834 229.19 91.4092Z" fill="#8CCAAF"/>
<path d="M220.243 91.4212C221.273 93.1207 221.724 99.712 221.24 100.006C220.754 100.301 215.12 96.8499 214.09 95.1504C213.06 93.4509 213.603 91.2392 215.302 90.2091C217.002 89.1791 219.213 89.7216 220.243 91.4212Z" fill="#8CCAAF"/>
<path d="M229.626 101.456C227.694 101.92 221.278 100.343 221.145 99.7918C221.013 99.2402 226.015 94.9235 227.947 94.4596C229.879 93.9957 231.821 95.1864 232.285 97.1184C232.748 99.0504 231.558 100.993 229.626 101.456Z" fill="#8CCAAF"/>
<path d="M174.038 91.8984H170.971V106.219H174.038V91.8984Z" fill="#010131"/>
<path d="M148.16 103.086H183.903C185.116 103.086 186.101 104.071 186.101 105.284V112.893C186.101 114.106 185.116 115.091 183.903 115.091H148.159C146.946 115.091 145.961 114.106 145.961 112.893V105.284C145.961 104.071 146.946 103.086 148.159 103.086H148.16Z" fill="#A1D4BE"/>
<path d="M186.582 63.375H161.225C159.621 63.375 158.32 64.6755 158.32 66.2798V91.6365C158.32 93.2408 159.621 94.5413 161.225 94.5413H186.582C188.186 94.5413 189.486 93.2408 189.486 91.6365V66.2798C189.486 64.6755 188.186 63.375 186.582 63.375Z" fill="#A1D4BE"/>
<path d="M166.743 115.094H163.676V158.436H166.743V115.094Z" fill="#323232"/>
<path d="M180.424 159.356H149.928C149.419 159.356 149.008 158.943 149.008 158.436C149.008 157.928 149.42 157.516 149.928 157.516H180.424C180.933 157.516 181.344 157.928 181.344 158.436C181.344 158.943 180.932 159.356 180.424 159.356Z" fill="#323232"/>
<path d="M154.513 161.265C154.513 160.028 153.51 159.023 152.271 159.023C151.032 159.023 150.029 160.027 150.029 161.265C150.029 162.504 151.032 163.508 152.271 163.508C153.51 163.508 154.513 162.504 154.513 161.265Z" fill="#010131"/>
<path d="M179.761 161.265C179.761 160.028 178.758 159.023 177.519 159.023C176.28 159.023 175.277 160.027 175.277 161.265C175.277 162.504 176.28 163.508 177.519 163.508C178.758 163.508 179.761 162.504 179.761 161.265Z" fill="#323232"/>
<path d="M167.451 161.265C167.451 160.028 166.447 159.023 165.209 159.023C163.971 159.023 162.967 160.027 162.967 161.265C162.967 162.504 163.97 163.508 165.209 163.508C166.448 163.508 167.451 162.504 167.451 161.265Z" fill="#323232"/>
<path d="M130.821 61.3074C130.821 61.3074 130.779 57.595 130.465 56.2572C130.152 54.9194 130.843 53.3906 130.051 53.3007C129.259 53.2109 128.795 55.8135 128.795 55.8135C128.795 55.8135 126.989 53.6793 126.534 52.9402C126.079 52.1999 124.928 51.0845 124.36 51.3755C123.793 51.6664 126.229 55.0688 126.229 55.0688C126.229 55.0688 123.896 52.4055 123.316 52.5628C122.735 52.72 125.205 56.5436 125.205 56.5436C125.205 56.5436 122.855 53.5816 122.469 53.5097C122.082 53.4378 121.975 53.9309 122.552 55.1811C123.129 56.4313 124.04 57.5602 124.04 57.5602C124.04 57.5602 122.234 55.6023 121.935 55.4428C121.636 55.2833 121.109 55.2822 122.16 57.0446C123.21 58.807 126.104 62.2454 128.247 63.3776L130.821 61.3085V61.3074Z" fill="#FFDCE4"/>
<path d="M133.138 150.803C133.138 150.803 132.554 158.586 132.494 158.695C132.435 158.804 133.051 159.759 133.051 159.759L135.457 160.19L137.653 159.18C137.653 159.18 138.845 151.588 139.075 150.47C139.306 149.351 133.139 150.804 133.139 150.804L133.138 150.803Z" fill="#FFDCE4"/>
<path d="M137.651 159.182C137.651 159.182 134.878 160.152 132.508 158.547C132.508 158.547 123.274 162.008 123.556 164.639C123.556 164.639 123.162 165.424 127.163 165.254C131.165 165.084 137.383 164.907 137.549 164.815C137.715 164.723 138.499 165.145 137.651 159.182Z" fill="#323232"/>
<path d="M152.318 150.191C152.318 150.191 152.428 157.819 152.369 157.928C152.309 158.037 152.926 158.992 152.926 158.992L155.332 159.423L157.528 158.414C157.528 158.414 157.335 151.322 157.564 150.204C157.794 149.085 152.318 150.191 152.318 150.191Z" fill="#FFDCE4"/>
<path d="M157.528 158.416C157.528 158.416 154.755 159.386 152.385 157.781C152.385 157.781 143.151 161.242 143.432 163.874C143.432 163.874 143.039 164.658 147.04 164.488C151.041 164.319 157.26 164.141 157.426 164.048C157.592 163.956 158.376 164.378 157.528 158.415V158.416Z" fill="#323232"/>
<path d="M161.108 28.9972C161.108 28.9972 160.523 27.911 159.949 28.2794C158.485 29.2184 159.727 30.709 160.61 31.0966L161.108 28.9983V28.9972Z" fill="#FFDCE4"/>
<path d="M161.149 25.1834L161.157 25.1856C161.163 25.0778 161.168 24.97 161.178 24.861C161.615 20.0613 166.016 16.5758 170.855 17.3396C174.888 17.9765 177.912 21.5058 177.918 25.5889C177.921 27.1042 177.529 28.5083 176.849 29.7203C175.898 31.604 175.064 33.2125 174.216 34.5369C172.814 36.7261 172.196 39.3265 172.395 41.919L172.551 43.9577C167.17 46.2223 165.06 43.468 165.06 43.468L165.302 39.7736C165.333 39.2917 164.99 38.8705 164.512 38.7952C164.509 38.7952 164.507 38.7952 164.503 38.7941C158.176 37.7988 160.888 28.0522 161.149 25.1845V25.1834Z" fill="#FFDCE4"/>
<path d="M178.578 27.0342L175.796 32.4787L174.306 32.0372L174.059 24.6641L178.578 27.0342Z" fill="#323232"/>
<path d="M174.087 31.8363C174.247 31.5779 174.5 31.3937 174.791 31.3061C175.389 31.1263 176.429 30.9646 177.065 31.7273C177.997 32.8472 175.685 35.3779 173.769 33.8413C173.769 33.8413 173.239 33.2055 174.087 31.8363Z" fill="#FFDCE4"/>
<path d="M162.787 22.066C162.787 22.066 161.51 22.7995 160.754 27.843C160.754 27.843 160.861 22.1547 161.546 21.5897C162.231 21.0247 162.787 22.0671 162.787 22.0671V22.066Z" fill="#323232"/>
<path d="M186.924 88.0598L159.544 80.125L149.512 87.7958L150.066 97.1897L150.029 97.1852L138.801 106.399C136.222 108.517 134.601 111.581 134.302 114.904L130.793 153.979H140.399L150.668 115.089V153.979H159.273L165.57 118.322L179.831 108.692C184.501 105.539 187.238 100.221 187.092 94.5894L186.924 88.0587V88.0598Z" fill="#46AA7E"/>
<path d="M173 42.9542H164.642L161.402 56.9659V83.8447C161.402 83.8447 169.075 87.5616 179.179 82.7012L176.233 51.2462L173 42.9531V42.9542Z" fill="white"/>
<path d="M173 42.9531C173 42.9531 185.612 48.2909 188.09 51.7225C190.379 54.8913 190.058 51.8775 196.65 69.6656C197.513 71.9919 197.135 74.553 195.734 76.5075C195.161 77.3073 194.344 77.9026 193.422 78.2463L186.927 80.6692L187.615 97.188L175.033 98.427L173.001 42.9531H173Z" fill="#57B18A"/>
<path d="M164.641 42.9531C164.641 42.9531 152.029 48.2909 149.551 51.7225C147.073 55.1541 150.027 97.188 150.027 97.188L162.609 98.427L164.641 42.9531Z" fill="#57B18A"/>
<path d="M170.29 44.5283L168.82 47.031L171.883 82.4174L167.159 90.0422L163.652 82.2264L167.049 46.8164L165.978 44.3138L168.86 43.2422L170.29 44.5283Z" fill="#C8E5D9"/>
<path d="M173 42.9549L172.373 41.5811L168.443 42.9549L165.191 41.4609L164.641 42.9549L165.334 45.5283L168.3 43.6019L171.196 45.7069L173 42.9549Z" fill="#BCE0D0"/>
<path d="M175.727 16.9659C175.488 16.7199 175.044 16.5223 174.843 16.8008C174.762 16.9132 174.761 17.0625 174.771 17.2007C174.8 17.6017 174.896 17.9971 175.053 18.3678C173.644 16.7166 171.295 16.2032 169.123 16.2358C166.952 16.2684 164.796 16.7424 162.627 16.6357C161.767 16.593 160.737 16.5324 160.231 17.2299C159.879 17.7163 159.96 18.4273 160.312 18.9137C160.665 19.4001 161.238 19.6854 161.821 19.8292C161.373 19.6405 160.812 19.7674 160.49 20.1313C160.167 20.4953 160.109 21.0681 160.351 21.4894C160.72 22.1341 161.573 22.2768 162.313 22.3374C164.671 22.5306 167.038 22.5969 169.403 22.5374C169.059 22.8148 168.715 23.0923 168.372 23.3697C168.255 23.4641 168.133 23.5652 168.076 23.7056C168 23.8977 168.067 24.1201 168.18 24.2942C168.469 24.7446 169.024 24.9636 169.559 24.9985C170.094 25.0333 170.624 24.912 171.153 24.8255C171.925 24.6997 172.709 24.6458 173.49 24.6637C173.652 24.6671 173.818 24.6761 173.966 24.7446C174.163 24.8378 174.295 25.0254 174.434 25.1939C175.266 26.1947 176.585 26.6205 177.83 26.999C178.216 27.1169 178.728 27.1922 178.943 26.8496C179.026 26.7171 179.037 26.5531 179.043 26.3958C179.105 24.5211 178.649 22.6328 177.738 20.9929C177.971 21.413 178.547 21.5174 178.807 21.0277C179.137 20.4043 178.353 19.8898 177.913 19.6337C177.51 19.4001 177.126 19.3495 176.827 18.9575C176.357 18.3431 176.309 17.5624 175.727 16.9659Z" fill="#323232"/>
<path d="M177.919 45.2075L175.442 55.4147L177.919 56.4504L174.269 77.615L173 42.9531L177.919 45.2075Z" fill="#46AA7E"/>
<path d="M152.634 49.1172C152.634 49.1172 148.458 51.4132 146.691 56.4926C144.924 61.572 142.443 69.4978 139.118 70.6941C136.468 71.6478 131.785 60.2881 131.785 60.2881L125.602 62.4403C125.602 62.4403 129.473 85.6235 141.503 83.5466C149.147 82.2256 151.661 65.4372 151.661 65.4372L152.635 49.1172H152.634Z" fill="#57B18A"/>
<path d="M159.721 45.2075L162.198 55.4147L159.721 56.4504L163.37 77.615L164.639 42.9531L159.721 45.2075Z" fill="#46AA7E"/>
<path d="M166.474 58.6578L148.324 60.8965C148.217 60.91 148.14 61.0077 148.154 61.1144L151.262 86.3217C151.275 86.4284 151.373 86.5048 151.48 86.4913L169.631 84.2527C169.737 84.2392 169.814 84.1414 169.8 84.0347L166.692 58.8274C166.679 58.7207 166.581 58.6443 166.474 58.6578Z" fill="#323232"/>
<path d="M161.346 58.0597L153.848 58.9844L154.044 60.5786L161.543 59.6539L161.346 58.0597Z" fill="#BCE0D0"/>
<path d="M158.837 58.3702C158.753 57.6851 158.13 57.1987 157.444 57.2829C156.759 57.3672 156.273 57.9906 156.357 58.6758C156.441 59.361 157.065 59.8473 157.75 59.7631C158.435 59.6789 158.922 59.0554 158.837 58.3702Z" fill="#BCE0D0"/>
<path d="M175.114 76.7684C175.114 76.7684 171.56 75.4946 170.173 75.3193C168.787 75.1441 167.574 73.9445 167.208 74.6667C166.842 75.389 169.158 76.7538 169.158 76.7538C169.158 76.7538 166.485 77.7198 165.618 77.8928C164.75 78.0646 163.28 78.7667 163.356 79.4103C163.433 80.0539 167.538 78.9363 167.538 78.9363C167.538 78.9363 164.174 80.2168 164.118 80.8267C164.062 81.4367 168.582 80.4358 168.582 80.4358C168.582 80.4358 164.927 81.6265 164.721 81.9702C164.516 82.314 164.948 82.5903 166.344 82.4824C167.74 82.3746 169.139 81.9051 169.139 81.9051C169.139 81.9051 166.633 82.934 166.376 83.1631C166.118 83.3912 165.93 83.8944 167.982 83.5159C170.034 83.1384 174.336 81.5973 176.174 79.9551L175.114 76.7684Z" fill="#FFDCE4"/>
<path d="M168.581 74.1506L168.912 76.843L166.326 76.6656L165.967 74.4392L166.685 73.2969L168.581 74.1506Z" fill="#323232"/>
<path d="M150.668 115.242C150.583 115.242 150.514 115.173 150.514 115.088C150.514 115.036 150.55 109.83 153.637 105.787C155.594 103.225 164.991 97.4547 165.391 97.2099C165.463 97.1661 165.558 97.1885 165.603 97.2604C165.646 97.3323 165.624 97.4267 165.552 97.4716C165.455 97.5311 155.804 103.456 153.882 105.974C150.859 109.932 150.821 115.037 150.821 115.089C150.821 115.173 150.753 115.243 150.668 115.243V115.242Z" fill="#0F9058"/>
<path d="M176.95 82.7343C176.917 82.7343 176.887 82.713 176.876 82.6804L174.833 76.0553C174.823 76.0216 174.838 75.9846 174.868 75.9666L186.005 69.5505L182.901 62.1369C182.884 62.0976 182.903 62.0526 182.942 62.0369C182.981 62.0212 183.026 62.0392 183.042 62.0785L186.173 69.555C186.187 69.5909 186.174 69.6314 186.14 69.6516L174.998 76.0711L177.002 82.5714L186.912 80.5956C186.953 80.5866 186.994 80.6147 187.002 80.6563C187.009 80.6978 186.983 80.7383 186.941 80.7461L176.963 82.7354C176.963 82.7354 176.953 82.7366 176.948 82.7366L176.95 82.7343Z" fill="#46AA7E"/>
<path d="M209.251 88.5156H57.2012V93.3738H209.251V88.5156Z" fill="#323232"/>
<path d="M175.903 164.974C175.896 164.974 175.888 164.974 175.88 164.974C175.626 164.961 175.431 164.745 175.444 164.491L179.198 90.921C179.211 90.6671 179.43 90.4705 179.681 90.4851C179.935 90.4975 180.13 90.7143 180.117 90.9682L176.363 164.538C176.35 164.784 176.147 164.975 175.903 164.975V164.974Z" fill="#323232"/>
<path d="M211.98 164.975C211.736 164.975 211.533 164.784 211.52 164.538L207.766 90.968C207.753 90.7142 207.948 90.4974 208.202 90.485C208.457 90.4716 208.672 90.667 208.685 90.9209L212.439 164.491C212.451 164.745 212.257 164.96 212.003 164.974C211.995 164.974 211.988 164.974 211.98 164.974V164.975Z" fill="#323232"/>
<path d="M101.189 67.6331L129.723 67.5938L138.699 88.4563L110.165 88.4967L101.189 67.6331Z" fill="#2E9E6E"/>
<path d="M133.099 88.4642L152.201 88.4375L152.199 87.1749L133.097 87.2016L133.099 88.4642Z" fill="#2E9E6E"/>
<path d="M118.377 77.7391C118.38 77.045 117.821 76.4799 117.128 76.4766C116.434 76.4732 115.869 77.0326 115.865 77.7257C115.862 78.4187 116.421 78.9848 117.114 78.9882C117.809 78.9916 118.374 78.4322 118.377 77.7391Z" fill="white"/>
<path d="M100.877 127.727C100.877 127.727 98.8167 154.139 101.626 156.948C104.436 159.758 108.555 162.381 108.931 164.067C109.306 165.753 96.7555 163.879 95.6311 162.193C94.5067 160.507 94.6943 157.698 93.571 149.83C92.4466 141.963 90.7617 127.727 90.7617 127.727H100.877Z" fill="#FFDCE4"/>
<path d="M108.931 164.063C108.676 162.916 106.686 161.334 104.556 159.556C104.086 163.163 97.0041 159.465 94.5723 158.078C94.8171 160.125 95.0463 161.311 95.6326 162.189C96.757 163.875 109.307 165.749 108.932 164.063H108.931Z" fill="#323232"/>
<path d="M86.6306 127.727C86.6306 127.727 84.5706 154.139 87.3799 156.948C90.1891 159.758 94.3093 162.381 94.6845 164.067C95.0596 165.753 82.5094 163.879 81.385 162.193C80.2606 160.507 80.4482 157.698 79.3249 149.83C78.2005 141.963 76.5156 127.727 76.5156 127.727H86.6306Z" fill="#FFDCE4"/>
<path d="M94.6849 164.063C94.4299 162.916 92.4395 161.334 90.3098 159.556C89.8402 163.163 82.758 159.465 80.3262 158.078C80.571 160.125 80.8002 161.311 81.3865 162.189C82.5109 163.875 95.0612 165.749 94.686 164.063H94.6849Z" fill="#323232"/>
<path d="M48.3352 91.8984H45.2676V106.219H48.3352V91.8984Z" fill="#323232"/>
<path d="M35.4032 115.094H71.1455C72.3596 115.094 73.3438 114.11 73.3438 112.896V105.286C73.3438 104.072 72.3596 103.088 71.1455 103.088H35.4032C34.1891 103.088 33.2049 104.072 33.2049 105.286V112.896C33.2049 114.11 34.1891 115.094 35.4032 115.094Z" fill="#2E9E6E"/>
<path d="M32.723 94.5391H58.0796C59.6839 94.5391 60.9844 93.2385 60.9844 91.6343V66.2776C60.9844 64.6733 59.6839 63.3728 58.0796 63.3728H32.723C31.1187 63.3728 29.8182 64.6733 29.8182 66.2776L29.8182 91.6343C29.8182 93.2385 31.1187 94.5391 32.723 94.5391Z" fill="#2E9E6E"/>
<path d="M55.6301 115.094H52.5625V158.436H55.6301V115.094Z" fill="#323232"/>
<path d="M69.3776 159.356H38.8809C38.3721 159.356 37.9609 158.943 37.9609 158.436C37.9609 157.928 38.3732 157.516 38.8809 157.516H69.3776C69.8864 157.516 70.2975 157.928 70.2975 158.436C70.2975 158.943 69.8853 159.356 69.3776 159.356Z" fill="#323232"/>
<path d="M64.793 161.265C64.793 160.028 65.796 159.023 67.035 159.023C68.274 159.023 69.277 160.027 69.277 161.265C69.277 162.504 68.274 163.508 67.035 163.508C65.796 163.508 64.793 162.504 64.793 161.265Z" fill="#323232"/>
<path d="M39.543 161.265C39.543 160.028 40.546 159.023 41.785 159.023C43.024 159.023 44.0271 160.027 44.0271 161.265C44.0271 162.504 43.024 163.508 41.785 163.508C40.546 163.508 39.543 162.504 39.543 161.265Z" fill="#323232"/>
<path d="M51.8555 161.265C51.8555 160.028 52.8597 159.023 54.0975 159.023C55.3353 159.023 56.3395 160.027 56.3395 161.265C56.3395 162.504 55.3365 163.508 54.0975 163.508C52.8585 163.508 51.8555 162.504 51.8555 161.265Z" fill="#323232"/>
<path d="M49.2735 91.8984C49.2735 91.8984 48.0009 105.001 53.2746 108.094C58.5483 111.186 73.9337 115.013 74.7436 117.664C75.5535 120.314 75.9287 136.141 75.9287 136.141C75.9287 136.141 89.0248 139.895 103.895 134.154C103.895 134.154 103.895 109.091 99.6251 105.444C90.6693 97.7945 77.5405 93.371 77.5405 93.371L49.2724 91.8984H49.2735Z" fill="#323232"/>
<path d="M99.8507 69.0809C99.8507 69.0809 99.8934 65.3685 100.207 64.0306C100.52 62.6928 99.8294 61.164 100.621 61.0742C101.413 60.9843 101.877 63.5869 101.877 63.5869C101.877 63.5869 103.683 61.4539 104.138 60.7136C104.593 59.9734 105.745 58.858 106.312 59.1489C106.879 59.4398 104.443 62.8422 104.443 62.8422C104.443 62.8422 106.776 60.1789 107.356 60.3362C107.937 60.4935 105.467 64.3171 105.467 64.3171C105.467 64.3171 107.817 61.355 108.203 61.2842C108.59 61.2123 108.698 61.7055 108.12 62.9557C107.543 64.2059 106.631 65.3348 106.631 65.3348C106.631 65.3348 108.438 63.3769 108.736 63.2174C109.035 63.0579 109.563 63.0568 108.511 64.8192C107.461 66.5816 104.567 70.0199 102.424 71.1522L99.8496 69.0831L99.8507 69.0809Z" fill="#FFDCE4"/>
<path d="M63.9467 99.7031C63.9467 99.7031 67.248 101.4 68.305 102.279C69.362 103.157 71.0379 103.223 70.7649 103.972C70.492 104.72 67.9556 103.972 67.9556 103.972C67.9556 103.972 69.0564 106.542 69.5147 107.28C69.973 108.018 70.4571 109.546 69.9427 109.924C69.4282 110.301 67.4749 106.601 67.4749 106.601C67.4749 106.601 68.8138 109.878 68.4139 110.328C68.014 110.779 65.6979 106.858 65.6979 106.858C65.6979 106.858 67.2974 110.284 67.1884 110.662C67.0795 111.04 66.5908 110.916 65.7304 109.84C64.87 108.765 64.2679 107.444 64.2679 107.444C64.2679 107.444 65.2115 109.935 65.2205 110.273C65.2295 110.611 64.9947 111.084 63.8883 109.357C62.7819 107.629 60.9992 103.503 60.9453 101.08L63.9467 99.7031Z" fill="#FFDCE4"/>
<path d="M82.0583 47.0755C80.6913 46.0926 79.1513 45.0862 78.6515 43.4777C77.8876 41.0177 79.9286 38.314 79.1143 35.8697C78.4661 33.9254 76.2814 32.9492 75.1637 31.2318C74.1348 29.6502 74.1202 27.6339 73.5181 25.8457C71.5535 20.0103 64.8128 18.8892 59.7177 20.9167C58.9471 21.2234 58.2148 21.6019 57.5408 22.0468C55.2864 23.5373 53.5712 25.958 53.3016 28.6471C53.1129 30.5275 53.6139 32.6763 52.3243 34.2736C51.1382 35.7428 49.1118 35.8945 47.4988 36.6381C45.7723 37.4333 44.2323 39.0194 43.8021 40.911C43.291 43.1586 44.2514 45.8152 42.853 47.6484C41.8533 48.957 40.1122 49.2614 38.7631 50.0623C37.2512 50.9598 36.0055 52.3436 35.4035 54.0083C34.3476 56.9266 35.5382 60.5626 38.4003 61.9566C39.8347 62.6553 41.4882 62.7395 43.0821 62.6665C46.1363 62.5261 49.1646 61.8521 51.9885 60.6839C54.7607 59.5371 57.4139 57.8982 60.3995 57.6084C62.9886 57.3568 65.5474 58.1521 68.1119 58.5845C70.6403 59.0114 73.2677 59.1012 75.6299 60.0987C76.6835 60.5435 77.6585 61.1613 78.7256 61.5736C79.7927 61.9858 81.0103 62.1779 82.0696 61.7465C83.1288 61.3152 83.9196 60.1088 83.5882 59.0147C83.4377 58.5171 83.0861 58.1038 82.9019 57.6185C82.0707 55.4293 84.8317 53.404 84.8351 51.062C84.8373 49.3782 83.4287 48.0595 82.0617 47.0777L82.0583 47.0755Z" fill="#323232"/>
<path d="M62.3616 46.9922C62.3616 46.9922 50.0708 50.526 46.7998 54.5013C43.53 58.4765 39.5548 78.3955 40.6589 83.6737C41.7631 88.9531 60.0926 103.97 60.0926 103.97L66.0549 99.0581L63.6252 94.5403C63.6252 94.5403 73.8571 96.889 80.3361 94.5403L80.0418 82.2214C80.0418 82.2214 82.8387 87.7748 89.0223 87.7748C95.2059 87.7748 103.892 71.1493 103.892 71.1493L99.3283 67.6042C99.3283 67.6042 93.202 73.5643 89.0875 74.6797C88.2079 74.9178 87.3015 74.4112 87.0656 73.5306C85.9198 69.2386 82.0581 55.5111 78.7163 52.2929C74.7411 48.4648 62.3604 46.9922 62.3604 46.9922H62.3616Z" fill="#57B18A"/>
<path d="M80.0435 82.3023C80.002 82.3023 79.9683 82.2697 79.9671 82.2281L79.6728 73.5003C79.6728 73.4868 79.6762 73.4722 79.683 73.461C79.6987 73.4329 81.2196 70.6483 81.2196 67.9031C81.2196 65.1578 78.1812 62.0991 78.1497 62.0677C78.1194 62.0373 78.1194 61.989 78.1497 61.9598C78.18 61.9306 78.2283 61.9295 78.2575 61.9598C78.2867 61.9902 81.3724 65.1061 81.3724 67.9031C81.3724 70.7 79.9627 73.2644 79.8267 73.516L80.121 82.2236C80.1222 82.2663 80.0896 82.3011 80.0469 82.3034H80.0446L80.0435 82.3023Z" fill="white"/>
<path d="M63.6283 94.6204C63.6047 94.6204 63.5812 94.6091 63.5654 94.5878L54.6456 81.9173C54.2412 81.3433 54.0525 80.6424 54.1154 79.9437L55.4914 64.437C55.4948 64.3943 55.524 64.3651 55.5745 64.3673C55.6161 64.3707 55.6475 64.4089 55.6441 64.4504L54.2681 79.9572C54.2097 80.6199 54.3883 81.2849 54.7714 81.8297L63.6912 94.5002C63.7159 94.535 63.707 94.5822 63.6733 94.6069C63.6598 94.6159 63.6441 94.6204 63.6295 94.6204H63.6283Z" fill="white"/>
<path d="M72.7715 33.2186C72.7715 33.2186 73.4836 32.1964 74.0172 32.6311C75.3775 33.7398 73.8465 35.136 72.9153 35.4224L72.7715 33.2186Z" fill="#FFDCE4"/>
<path d="M64.3342 20.4141C60.086 20.5938 56.5881 23.9861 56.2669 28.2253C56.1613 29.6193 56.3983 30.9504 56.9004 32.1455C58.0001 35.12 58.9122 37.517 60.0725 39.2738C61.2486 41.0542 61.7574 43.1929 61.407 45.2979L61.0542 47.4243C65.9236 49.9988 68.1252 47.9938 68.1252 47.9938L68.2465 42.6594C73.5877 42.1449 73.1024 32.2983 73.1687 29.3924H73.1608C73.1676 29.2846 73.1743 29.1756 73.1765 29.0666C73.2877 24.204 69.2754 20.2052 64.3364 20.4141H64.3342Z" fill="#FFDCE4"/>
<path d="M63.5314 29.0191C62.471 30.0502 61.5421 31.2083 60.6165 32.3619C59.637 33.5829 58.6227 34.8803 58.3744 36.4259C57.0243 35.3509 56.1807 33.7727 55.4753 32.1979C55.1484 31.4678 54.8395 30.7163 54.744 29.9222C54.6093 28.7966 54.9103 27.67 55.2091 26.5771C55.5944 25.1662 56.0111 23.697 57.0029 22.622C57.6589 21.9099 58.5238 21.4224 59.4112 21.036C61.4825 20.1317 63.7976 19.7128 66.0284 20.0756C68.2592 20.4384 70.3878 21.6279 71.6818 23.4813C73.3476 25.8683 73.4689 28.9685 73.5296 31.8778C73.2645 30.6646 72.4905 29.6357 71.7357 28.6484C71.2448 28.007 70.7416 27.3521 70.0677 26.9084C68.9186 26.1502 68.5883 26.3019 66.5754 24.8697C66.0014 26.649 64.8579 27.7295 63.5314 29.0191Z" fill="#323232"/>
<path d="M59.4286 34.5808C59.2983 34.3045 59.0646 34.09 58.7827 33.9686C58.2031 33.7193 57.1787 33.4385 56.4542 34.1315C55.3904 35.1481 57.4202 37.9518 59.5184 36.6285C59.5184 36.6285 60.1228 36.0512 59.4286 34.5808Z" fill="#FFDCE4"/>
<path d="M90.7613 0.890625C81.4629 0.890625 73.9258 7.03043 73.9258 14.6035C73.9258 20.4389 78.402 25.4195 84.7091 27.3998L84.7159 27.4054C84.9327 27.6031 85.0495 27.8918 85.0169 28.1828C84.8158 29.962 83.6005 32.2512 83.0636 33.1903C82.967 33.3588 83.122 33.5621 83.3107 33.5138C85.9245 32.8432 87.6734 30.6416 88.5923 29.151C88.9315 28.6006 89.5448 28.2906 90.1918 28.3086C90.3805 28.3142 90.5715 28.3164 90.7613 28.3164C100.06 28.3164 107.597 22.1766 107.597 14.6035C107.597 7.03043 100.059 0.890625 90.7613 0.890625Z" fill="#C8E5D9"/>
<path d="M139.119 0.890625C148.417 0.890625 155.954 7.03043 155.954 14.6035C155.954 20.4389 151.478 25.4195 145.171 27.3998L145.164 27.4054C144.947 27.6031 144.831 27.8918 144.863 28.1828C145.064 29.962 146.28 32.2512 146.816 33.1903C146.913 33.3588 146.757 33.5621 146.569 33.5138C143.956 32.8432 142.207 30.6416 141.288 29.151C140.949 28.6006 140.335 28.2906 139.688 28.3086C139.5 28.3142 139.309 28.3164 139.119 28.3164C129.82 28.3164 122.283 22.1766 122.283 14.6035C122.283 7.03043 129.82 0.890625 139.119 0.890625Z" fill="#C8E5D9"/>
</svg>
