<svg width="272" height="87" viewBox="0 0 272 87" fill="none" xmlns="http://www.w3.org/2000/svg">
<g clip-path="url(#clip0_6204_27590)">
<rect y="0.5" width="272" height="86" rx="10" fill="url(#paint0_linear_6204_27590)"/>
<rect x="24" y="15.5" width="56" height="56" rx="28" fill="white"/>
<path d="M37.23 35.7L39.354 36.33C39.03 36.99 38.646 37.638 38.202 38.274C37.758 38.91 37.278 39.498 36.762 40.038C36.258 40.578 35.754 41.052 35.25 41.46C35.13 41.316 34.962 41.154 34.746 40.974C34.53 40.794 34.308 40.62 34.08 40.452C33.852 40.284 33.654 40.146 33.486 40.038C34.254 39.534 34.974 38.898 35.646 38.13C36.318 37.362 36.846 36.552 37.23 35.7ZM37.086 37.608H49.488V39.498H36.564L37.086 37.608ZM33.882 41.802H50.154V43.728H33.882V41.802ZM34.17 46.014H49.884V47.94H34.17V46.014ZM39.516 38.274H41.316V47.022H39.516V38.274ZM36.312 38.274H38.238V47.04H36.312V38.274ZM42.648 38.274H44.448V47.04H42.648V38.274ZM45.816 38.274H47.796V47.04H45.816V38.274ZM38.976 48.948L40.974 48.732C41.094 49.272 41.196 49.86 41.28 50.496C41.376 51.132 41.43 51.672 41.442 52.116L39.318 52.422C39.318 52.134 39.3 51.792 39.264 51.396C39.24 51 39.204 50.586 39.156 50.154C39.108 49.722 39.048 49.32 38.976 48.948ZM42.558 49.002L44.574 48.66C44.73 49.008 44.88 49.386 45.024 49.794C45.168 50.202 45.294 50.598 45.402 50.982C45.51 51.366 45.588 51.714 45.636 52.026L43.476 52.44C43.416 51.996 43.296 51.45 43.116 50.802C42.948 50.154 42.762 49.554 42.558 49.002ZM46.122 48.894L48.192 48.246C48.48 48.618 48.768 49.02 49.056 49.452C49.344 49.884 49.62 50.316 49.884 50.748C50.148 51.168 50.352 51.546 50.496 51.882L48.282 52.62C48.15 52.296 47.964 51.918 47.724 51.486C47.496 51.054 47.238 50.616 46.95 50.172C46.674 49.716 46.398 49.29 46.122 48.894ZM35.736 48.318L37.824 48.84C37.62 49.524 37.338 50.208 36.978 50.892C36.618 51.576 36.216 52.158 35.772 52.638L33.702 51.792C34.11 51.408 34.5 50.898 34.872 50.262C35.244 49.626 35.532 48.978 35.736 48.318ZM56.22 35.79H58.2V52.566H56.22V35.79ZM53.484 41.712H60.864V43.728H53.484V41.712ZM55.824 42.774L57.03 43.368C56.874 43.968 56.694 44.604 56.49 45.276C56.286 45.936 56.058 46.596 55.806 47.256C55.554 47.916 55.29 48.54 55.014 49.128C54.738 49.704 54.444 50.208 54.132 50.64C54.072 50.412 53.982 50.166 53.862 49.902C53.754 49.626 53.634 49.356 53.502 49.092C53.382 48.828 53.268 48.6 53.16 48.408C53.52 47.964 53.868 47.418 54.204 46.77C54.552 46.11 54.87 45.432 55.158 44.736C55.446 44.028 55.668 43.374 55.824 42.774ZM58.182 43.818C58.278 43.914 58.416 44.064 58.596 44.268C58.788 44.472 58.998 44.706 59.226 44.97C59.454 45.222 59.67 45.48 59.874 45.744C60.09 45.996 60.282 46.224 60.45 46.428C60.63 46.632 60.756 46.788 60.828 46.896L59.514 48.588C59.394 48.324 59.238 48.018 59.046 47.67C58.854 47.31 58.644 46.944 58.416 46.572C58.188 46.188 57.966 45.828 57.75 45.492C57.534 45.156 57.348 44.88 57.192 44.664L58.182 43.818ZM53.466 37.176L54.978 36.78C55.134 37.212 55.272 37.68 55.392 38.184C55.524 38.688 55.632 39.18 55.716 39.66C55.8 40.14 55.86 40.572 55.896 40.956L54.276 41.388C54.264 41.004 54.216 40.572 54.132 40.092C54.06 39.6 53.964 39.102 53.844 38.598C53.736 38.082 53.61 37.608 53.466 37.176ZM59.388 36.69L61.206 37.086C61.062 37.578 60.906 38.082 60.738 38.598C60.57 39.114 60.402 39.612 60.234 40.092C60.066 40.56 59.91 40.974 59.766 41.334L58.398 40.938C58.53 40.554 58.656 40.116 58.776 39.624C58.908 39.12 59.028 38.61 59.136 38.094C59.244 37.578 59.328 37.11 59.388 36.69ZM66.21 35.7H68.226V52.602H66.21V35.7ZM60.828 46.968L70.08 45.312L70.404 47.31L61.152 48.984L60.828 46.968ZM61.836 38.148L62.898 36.69C63.234 36.882 63.582 37.104 63.942 37.356C64.314 37.608 64.662 37.866 64.986 38.13C65.322 38.394 65.586 38.64 65.778 38.868L64.662 40.488C64.482 40.248 64.23 39.99 63.906 39.714C63.594 39.438 63.258 39.162 62.898 38.886C62.538 38.61 62.184 38.364 61.836 38.148ZM61.026 42.684L62.034 41.136C62.394 41.316 62.766 41.532 63.15 41.784C63.534 42.024 63.9 42.27 64.248 42.522C64.596 42.762 64.878 42.996 65.094 43.224L63.996 44.952C63.804 44.724 63.54 44.478 63.204 44.214C62.868 43.938 62.508 43.668 62.124 43.404C61.752 43.128 61.386 42.888 61.026 42.684Z" fill="#FF9D00"/>
<path d="M107.968 29.428C107.968 30.42 107.893 31.3213 107.744 32.132C107.605 32.932 107.36 33.6627 107.008 34.324C106.656 34.9747 106.165 35.5613 105.536 36.084C104.907 36.6067 104.112 37.0813 103.152 37.508L101.44 35.892C102.208 35.6253 102.869 35.3267 103.424 34.996C103.989 34.6653 104.453 34.26 104.816 33.78C105.179 33.2893 105.445 32.7027 105.616 32.02C105.797 31.3267 105.888 30.4893 105.888 29.508V25.252C105.888 24.9213 105.877 24.6333 105.856 24.388C105.835 24.132 105.813 23.924 105.792 23.764H108.08C108.059 23.924 108.032 24.132 108 24.388C107.979 24.6333 107.968 24.9213 107.968 25.252V29.428ZM102.192 23.908C102.171 24.0573 102.149 24.26 102.128 24.516C102.107 24.7613 102.096 25.0387 102.096 25.348V31.076C102.096 31.3107 102.101 31.54 102.112 31.764C102.123 31.9773 102.128 32.1693 102.128 32.34C102.139 32.5 102.149 32.6387 102.16 32.756H99.92C99.9413 32.6387 99.9573 32.5 99.968 32.34C99.9787 32.1693 99.9893 31.9773 100 31.764C100.011 31.54 100.016 31.3107 100.016 31.076V25.348C100.016 25.1133 100.005 24.8733 99.984 24.628C99.9733 24.3827 99.952 24.1427 99.92 23.908H102.192ZM96.912 26.788C97.0187 26.7987 97.1573 26.82 97.328 26.852C97.4987 26.8733 97.696 26.8947 97.92 26.916C98.144 26.9267 98.3893 26.932 98.656 26.932H109.152C109.579 26.932 109.925 26.9213 110.192 26.9C110.459 26.8787 110.699 26.852 110.912 26.82V28.948C110.741 28.9267 110.512 28.916 110.224 28.916C109.936 28.9053 109.579 28.9 109.152 28.9H98.656C98.3893 28.9 98.144 28.9053 97.92 28.916C97.7067 28.916 97.5147 28.9213 97.344 28.932C97.184 28.9427 97.04 28.9533 96.912 28.964V26.788ZM126 24.5C126 24.7453 126.085 24.9533 126.256 25.124C126.427 25.284 126.635 25.364 126.88 25.364C127.115 25.364 127.317 25.284 127.488 25.124C127.659 24.9533 127.744 24.7453 127.744 24.5C127.744 24.2653 127.659 24.0627 127.488 23.892C127.317 23.7213 127.115 23.636 126.88 23.636C126.635 23.636 126.427 23.7213 126.256 23.892C126.085 24.0627 126 24.2653 126 24.5ZM125.024 24.5C125.024 24.1587 125.104 23.8493 125.264 23.572C125.435 23.2947 125.659 23.0707 125.936 22.9C126.224 22.7293 126.539 22.644 126.88 22.644C127.221 22.644 127.531 22.7293 127.808 22.9C128.085 23.0707 128.304 23.2947 128.464 23.572C128.635 23.8493 128.72 24.1587 128.72 24.5C128.72 24.8413 128.635 25.156 128.464 25.444C128.304 25.7213 128.085 25.9453 127.808 26.116C127.531 26.276 127.221 26.356 126.88 26.356C126.539 26.356 126.224 26.276 125.936 26.116C125.659 25.9453 125.435 25.7213 125.264 25.444C125.104 25.156 125.024 24.8413 125.024 24.5ZM122.816 23.876C122.805 23.9507 122.789 24.0733 122.768 24.244C122.747 24.4147 122.725 24.596 122.704 24.788C122.683 24.9693 122.672 25.1293 122.672 25.268C122.672 25.588 122.672 25.94 122.672 26.324C122.672 26.708 122.672 27.092 122.672 27.476C122.672 27.8493 122.672 28.1907 122.672 28.5C122.672 28.7133 122.672 29.012 122.672 29.396C122.672 29.78 122.672 30.212 122.672 30.692C122.672 31.172 122.672 31.6733 122.672 32.196C122.672 32.708 122.672 33.2093 122.672 33.7C122.672 34.18 122.672 34.6173 122.672 35.012C122.672 35.396 122.672 35.7 122.672 35.924C122.672 36.3827 122.533 36.7453 122.256 37.012C121.989 37.2893 121.573 37.428 121.008 37.428C120.72 37.428 120.427 37.4227 120.128 37.412C119.829 37.4013 119.536 37.3853 119.248 37.364C118.96 37.3427 118.677 37.316 118.4 37.284L118.208 35.3C118.549 35.364 118.88 35.412 119.2 35.444C119.531 35.476 119.792 35.492 119.984 35.492C120.197 35.492 120.347 35.4493 120.432 35.364C120.517 35.268 120.565 35.1187 120.576 34.916C120.576 34.82 120.576 34.612 120.576 34.292C120.587 33.972 120.592 33.5933 120.592 33.156C120.592 32.7187 120.592 32.2547 120.592 31.764C120.592 31.2733 120.592 30.804 120.592 30.356C120.592 29.908 120.592 29.5187 120.592 29.188C120.592 28.8573 120.592 28.628 120.592 28.5C120.592 28.308 120.592 28.02 120.592 27.636C120.592 27.2413 120.592 26.8253 120.592 26.388C120.592 25.9507 120.592 25.5773 120.592 25.268C120.592 25.0547 120.576 24.804 120.544 24.516C120.512 24.2173 120.48 24.004 120.448 23.876H122.816ZM114.976 26.42C115.221 26.452 115.477 26.484 115.744 26.516C116.011 26.5373 116.272 26.548 116.528 26.548C116.656 26.548 116.912 26.548 117.296 26.548C117.691 26.548 118.16 26.548 118.704 26.548C119.248 26.548 119.829 26.548 120.448 26.548C121.077 26.548 121.707 26.548 122.336 26.548C122.976 26.548 123.568 26.548 124.112 26.548C124.667 26.548 125.147 26.548 125.552 26.548C125.957 26.548 126.24 26.548 126.4 26.548C126.624 26.548 126.885 26.5373 127.184 26.516C127.493 26.4947 127.76 26.468 127.984 26.436V28.532C127.739 28.5107 127.472 28.5 127.184 28.5C126.896 28.4893 126.64 28.484 126.416 28.484C126.256 28.484 125.973 28.484 125.568 28.484C125.173 28.484 124.699 28.484 124.144 28.484C123.6 28.484 123.013 28.484 122.384 28.484C121.755 28.484 121.125 28.484 120.496 28.484C119.867 28.484 119.28 28.484 118.736 28.484C118.192 28.484 117.723 28.484 117.328 28.484C116.944 28.484 116.677 28.484 116.528 28.484C116.293 28.484 116.032 28.4893 115.744 28.5C115.467 28.5107 115.211 28.5267 114.976 28.548V26.42ZM119.056 30.756C118.875 31.1187 118.656 31.508 118.4 31.924C118.144 32.34 117.867 32.756 117.568 33.172C117.28 33.588 116.997 33.9773 116.72 34.34C116.443 34.692 116.192 34.9853 115.968 35.22L114.24 34.036C114.507 33.7907 114.779 33.5027 115.056 33.172C115.344 32.8307 115.621 32.4733 115.888 32.1C116.165 31.7267 116.416 31.3533 116.64 30.98C116.875 30.6067 117.077 30.2493 117.248 29.908L119.056 30.756ZM125.936 29.86C126.139 30.116 126.363 30.42 126.608 30.772C126.864 31.124 127.12 31.5027 127.376 31.908C127.632 32.3027 127.872 32.692 128.096 33.076C128.32 33.4493 128.512 33.78 128.672 34.068L126.784 35.092C126.613 34.7507 126.416 34.3827 126.192 33.988C125.979 33.5933 125.755 33.1987 125.52 32.804C125.285 32.4093 125.051 32.0413 124.816 31.7C124.592 31.348 124.384 31.0493 124.192 30.804L125.936 29.86ZM132.672 29.092C132.864 29.1027 133.109 29.1187 133.408 29.14C133.707 29.1507 134.016 29.1613 134.336 29.172C134.667 29.1827 134.971 29.188 135.248 29.188C135.515 29.188 135.845 29.188 136.24 29.188C136.635 29.188 137.061 29.188 137.52 29.188C137.989 29.188 138.469 29.188 138.96 29.188C139.461 29.188 139.957 29.188 140.448 29.188C140.939 29.188 141.403 29.188 141.84 29.188C142.277 29.188 142.667 29.188 143.008 29.188C143.36 29.188 143.637 29.188 143.84 29.188C144.213 29.188 144.565 29.1773 144.896 29.156C145.227 29.124 145.499 29.1027 145.712 29.092V31.604C145.531 31.5933 145.259 31.5773 144.896 31.556C144.533 31.5347 144.181 31.524 143.84 31.524C143.637 31.524 143.36 31.524 143.008 31.524C142.656 31.524 142.261 31.524 141.824 31.524C141.387 31.524 140.923 31.524 140.432 31.524C139.952 31.524 139.461 31.524 138.96 31.524C138.459 31.524 137.973 31.524 137.504 31.524C137.045 31.524 136.619 31.524 136.224 31.524C135.84 31.524 135.515 31.524 135.248 31.524C134.789 31.524 134.32 31.5347 133.84 31.556C133.36 31.5667 132.971 31.5827 132.672 31.604V29.092ZM153.824 34.964C153.824 34.7613 153.824 34.4307 153.824 33.972C153.824 33.5027 153.824 32.964 153.824 32.356C153.824 31.7373 153.824 31.092 153.824 30.42C153.824 29.748 153.824 29.1027 153.824 28.484C153.824 27.8547 153.824 27.3 153.824 26.82C153.824 26.34 153.824 25.988 153.824 25.764C153.824 25.4867 153.808 25.1667 153.776 24.804C153.755 24.4413 153.717 24.1213 153.664 23.844H156.16C156.128 24.1213 156.096 24.4307 156.064 24.772C156.032 25.1027 156.016 25.4333 156.016 25.764C156.016 26.0627 156.016 26.468 156.016 26.98C156.016 27.492 156.016 28.0627 156.016 28.692C156.016 29.3107 156.016 29.9453 156.016 30.596C156.016 31.236 156.016 31.8547 156.016 32.452C156.016 33.0493 156.016 33.572 156.016 34.02C156.016 34.4573 156.016 34.772 156.016 34.964C156.016 35.1133 156.021 35.3267 156.032 35.604C156.043 35.8707 156.064 36.148 156.096 36.436C156.128 36.724 156.149 36.98 156.16 37.204H153.664C153.707 36.884 153.744 36.5107 153.776 36.084C153.808 35.6573 153.824 35.284 153.824 34.964ZM155.536 27.988C156.069 28.1267 156.667 28.308 157.328 28.532C157.989 28.7453 158.656 28.9747 159.328 29.22C160 29.4653 160.629 29.7107 161.216 29.956C161.813 30.1907 162.309 30.4093 162.704 30.612L161.792 32.82C161.344 32.5853 160.848 32.3507 160.304 32.116C159.76 31.8707 159.205 31.636 158.64 31.412C158.085 31.188 157.536 30.98 156.992 30.788C156.459 30.596 155.973 30.4253 155.536 30.276V27.988ZM173.568 25.316C174.059 25.38 174.608 25.428 175.216 25.46C175.835 25.4813 176.459 25.492 177.088 25.492C177.728 25.4813 178.341 25.46 178.928 25.428C179.515 25.3853 180.021 25.3427 180.448 25.3V27.364C179.957 27.4067 179.419 27.444 178.832 27.476C178.245 27.4973 177.643 27.508 177.024 27.508C176.405 27.508 175.797 27.4973 175.2 27.476C174.613 27.444 174.069 27.4067 173.568 27.364V25.316ZM174.848 32.148C174.784 32.4147 174.736 32.6547 174.704 32.868C174.672 33.0707 174.656 33.2787 174.656 33.492C174.656 33.6627 174.699 33.8227 174.784 33.972C174.869 34.1107 174.997 34.2333 175.168 34.34C175.349 34.436 175.579 34.5107 175.856 34.564C176.144 34.6067 176.491 34.628 176.896 34.628C177.611 34.628 178.283 34.596 178.912 34.532C179.541 34.4573 180.208 34.3507 180.912 34.212L180.944 36.372C180.432 36.468 179.84 36.5427 179.168 36.596C178.507 36.6493 177.723 36.676 176.816 36.676C175.44 36.676 174.416 36.4467 173.744 35.988C173.072 35.5187 172.736 34.8733 172.736 34.052C172.736 33.7427 172.757 33.4227 172.8 33.092C172.853 32.7507 172.923 32.3773 173.008 31.972L174.848 32.148ZM171.104 24.244C171.061 24.3507 171.013 24.5 170.96 24.692C170.907 24.884 170.853 25.0707 170.8 25.252C170.757 25.4333 170.725 25.572 170.704 25.668C170.672 25.892 170.619 26.1853 170.544 26.548C170.48 26.9 170.411 27.3 170.336 27.748C170.272 28.1853 170.208 28.6333 170.144 29.092C170.08 29.5507 170.027 29.9933 169.984 30.42C169.952 30.8467 169.936 31.22 169.936 31.54C169.936 31.6893 169.936 31.86 169.936 32.052C169.947 32.244 169.968 32.42 170 32.58C170.075 32.3987 170.155 32.2173 170.24 32.036C170.325 31.8547 170.411 31.6733 170.496 31.492C170.581 31.3 170.656 31.1187 170.72 30.948L171.712 31.732C171.563 32.1693 171.408 32.6387 171.248 33.14C171.099 33.6413 170.96 34.116 170.832 34.564C170.715 35.0013 170.624 35.364 170.56 35.652C170.539 35.7693 170.517 35.9027 170.496 36.052C170.485 36.2013 170.48 36.3187 170.48 36.404C170.48 36.4893 170.48 36.5907 170.48 36.708C170.491 36.836 170.501 36.9533 170.512 37.06L168.656 37.188C168.496 36.6333 168.352 35.8973 168.224 34.98C168.096 34.052 168.032 33.044 168.032 31.956C168.032 31.3587 168.059 30.7507 168.112 30.132C168.165 29.5133 168.229 28.9213 168.304 28.356C168.379 27.78 168.448 27.2573 168.512 26.788C168.587 26.3187 168.651 25.9293 168.704 25.62C168.725 25.396 168.752 25.1453 168.784 24.868C168.827 24.58 168.853 24.308 168.864 24.052L171.104 24.244ZM104.352 53.556H110.08V55.3H104.352V53.556ZM104.352 57.348H110.08V59.076H104.352V57.348ZM104.352 61.124H110.08V62.868H104.352V61.124ZM103.44 49.764H110.976V63.7H109.056V51.588H105.28V63.796H103.44V49.764ZM96.72 52.212H102.864V54.02H96.72V52.212ZM99.024 48.9H100.864V63.924H99.024V48.9ZM98.928 53.444L100.064 53.844C99.936 54.4947 99.776 55.1667 99.584 55.86C99.392 56.5427 99.1733 57.2147 98.928 57.876C98.6827 58.5267 98.416 59.14 98.128 59.716C97.84 60.2813 97.536 60.7667 97.216 61.172C97.1307 60.9053 96.9973 60.6013 96.816 60.26C96.6347 59.908 96.464 59.6147 96.304 59.38C96.592 59.028 96.8693 58.6173 97.136 58.148C97.4027 57.6787 97.648 57.1827 97.872 56.66C98.1067 56.1267 98.3147 55.588 98.496 55.044C98.6773 54.4893 98.8213 53.956 98.928 53.444ZM100.736 54.852C100.853 54.9587 101.024 55.1453 101.248 55.412C101.472 55.668 101.707 55.9507 101.952 56.26C102.208 56.5693 102.443 56.8573 102.656 57.124C102.88 57.38 103.035 57.5613 103.12 57.668L102.016 59.22C101.899 58.9853 101.749 58.708 101.568 58.388C101.387 58.068 101.189 57.7427 100.976 57.412C100.763 57.0813 100.555 56.7667 100.352 56.468C100.16 56.1693 99.9947 55.9187 99.856 55.716L100.736 54.852ZM123.552 53.396L124.736 52.132C125.195 52.388 125.696 52.6813 126.24 53.012C126.795 53.3427 127.323 53.6787 127.824 54.02C128.336 54.3507 128.752 54.6493 129.072 54.916L127.792 56.372C127.504 56.084 127.115 55.764 126.624 55.412C126.133 55.06 125.616 54.708 125.072 54.356C124.528 54.004 124.021 53.684 123.552 53.396ZM124.656 55.7H125.616V58.132C125.616 58.3453 125.648 58.5907 125.712 58.868C125.776 59.1453 125.883 59.444 126.032 59.764C126.192 60.0733 126.411 60.3827 126.688 60.692C126.965 60.9907 127.312 61.284 127.728 61.572C128.144 61.8493 128.64 62.1 129.216 62.324C129.056 62.548 128.864 62.82 128.64 63.14C128.416 63.46 128.24 63.732 128.112 63.956C127.611 63.764 127.157 63.5187 126.752 63.22C126.357 62.9213 126.016 62.6067 125.728 62.276C125.44 61.9347 125.205 61.604 125.024 61.284C124.843 60.9533 124.715 60.6653 124.64 60.42C124.555 60.6653 124.411 60.948 124.208 61.268C124.016 61.588 123.76 61.9187 123.44 62.26C123.12 62.5907 122.741 62.9 122.304 63.188C121.877 63.4867 121.387 63.7427 120.832 63.956C120.757 63.8067 120.656 63.6307 120.528 63.428C120.411 63.236 120.283 63.044 120.144 62.852C120.005 62.6707 119.877 62.516 119.76 62.388C120.379 62.1747 120.907 61.924 121.344 61.636C121.792 61.348 122.165 61.0493 122.464 60.74C122.763 60.42 122.997 60.1053 123.168 59.796C123.349 59.476 123.472 59.172 123.536 58.884C123.611 58.596 123.648 58.3453 123.648 58.132V55.7H124.656ZM123.792 48.9H125.68C125.637 49.86 125.552 50.7347 125.424 51.524C125.307 52.3133 125.093 53.0227 124.784 53.652C124.485 54.2707 124.043 54.8147 123.456 55.284C122.88 55.7533 122.107 56.1587 121.136 56.5C121.051 56.2653 120.901 55.9987 120.688 55.7C120.475 55.3907 120.267 55.1507 120.064 54.98C120.907 54.724 121.568 54.4147 122.048 54.052C122.528 53.6787 122.885 53.2467 123.12 52.756C123.365 52.2547 123.531 51.6893 123.616 51.06C123.701 50.42 123.76 49.7 123.792 48.9ZM121.44 49.86L123.008 50.164C122.933 50.708 122.789 51.252 122.576 51.796C122.363 52.34 122.08 52.7933 121.728 53.156L120.24 52.5C120.528 52.212 120.779 51.8227 120.992 51.332C121.205 50.8413 121.355 50.3507 121.44 49.86ZM121.248 56.804L122.928 57.14C122.821 57.7587 122.64 58.3667 122.384 58.964C122.139 59.5507 121.819 60.0413 121.424 60.436L119.856 59.636C120.197 59.3373 120.485 58.9267 120.72 58.404C120.965 57.8813 121.141 57.348 121.248 56.804ZM127.088 49.748L128.928 50.324C128.661 50.804 128.389 51.2787 128.112 51.748C127.845 52.2067 127.6 52.6013 127.376 52.932L125.936 52.388C126.075 52.1533 126.219 51.8813 126.368 51.572C126.517 51.2627 126.656 50.948 126.784 50.628C126.912 50.308 127.013 50.0147 127.088 49.748ZM127.184 56.692L129.072 57.284C128.784 57.7747 128.491 58.2707 128.192 58.772C127.904 59.2733 127.632 59.6947 127.376 60.036L125.888 59.492C126.048 59.236 126.208 58.948 126.368 58.628C126.528 58.2973 126.677 57.9613 126.816 57.62C126.965 57.2787 127.088 56.9693 127.184 56.692ZM114.832 53.812H119.664V55.268H114.832V53.812ZM114.896 49.412H119.632V50.852H114.896V49.412ZM114.832 56.004H119.664V57.444H114.832V56.004ZM114.08 51.556H120.192V53.076H114.08V51.556ZM115.664 58.212H119.696V63.092H115.664V61.572H118.048V59.732H115.664V58.212ZM114.8 58.212H116.416V63.716H114.8V58.212ZM137.136 49.812C137.093 50.1427 137.051 50.5 137.008 50.884C136.976 51.268 136.949 51.62 136.928 51.94C136.917 52.3773 136.896 52.9107 136.864 53.54C136.843 54.1587 136.821 54.8093 136.8 55.492C136.789 56.1747 136.773 56.8467 136.752 57.508C136.741 58.1693 136.736 58.7453 136.736 59.236C136.736 59.7693 136.832 60.196 137.024 60.516C137.227 60.8253 137.493 61.0493 137.824 61.188C138.155 61.316 138.528 61.38 138.944 61.38C139.605 61.38 140.208 61.2947 140.752 61.124C141.296 60.9427 141.792 60.7027 142.24 60.404C142.688 60.1053 143.088 59.7587 143.44 59.364C143.803 58.9693 144.128 58.5533 144.416 58.116L145.872 59.876C145.616 60.26 145.28 60.6653 144.864 61.092C144.448 61.5187 143.952 61.9187 143.376 62.292C142.811 62.6653 142.155 62.9693 141.408 63.204C140.661 63.4387 139.835 63.556 138.928 63.556C138.053 63.556 137.291 63.4173 136.64 63.14C136 62.8733 135.499 62.4573 135.136 61.892C134.784 61.316 134.608 60.5747 134.608 59.668C134.608 59.2307 134.613 58.7347 134.624 58.18C134.635 57.6147 134.651 57.028 134.672 56.42C134.693 55.812 134.709 55.22 134.72 54.644C134.731 54.0573 134.741 53.5293 134.752 53.06C134.763 52.5907 134.768 52.2173 134.768 51.94C134.768 51.556 134.752 51.1827 134.72 50.82C134.688 50.4467 134.635 50.1 134.56 49.78L137.136 49.812ZM149.452 51.492C149.772 51.4813 150.076 51.4707 150.364 51.46C150.652 51.4387 150.876 51.4227 151.036 51.412C151.366 51.38 151.772 51.3427 152.252 51.3C152.732 51.2573 153.27 51.2093 153.868 51.156C154.476 51.1027 155.121 51.0493 155.804 50.996C156.486 50.932 157.196 50.868 157.932 50.804C158.486 50.7613 159.041 50.724 159.596 50.692C160.15 50.6493 160.673 50.6173 161.164 50.596C161.665 50.564 162.097 50.5427 162.46 50.532L162.476 52.58C162.188 52.58 161.857 52.5853 161.484 52.596C161.11 52.6067 160.737 52.628 160.364 52.66C160.001 52.6813 159.676 52.724 159.388 52.788C158.908 52.916 158.46 53.1347 158.044 53.444C157.638 53.7427 157.281 54.1 156.972 54.516C156.662 54.932 156.422 55.38 156.252 55.86C156.092 56.3293 156.012 56.804 156.012 57.284C156.012 57.8067 156.102 58.2707 156.284 58.676C156.465 59.0707 156.716 59.412 157.036 59.7C157.366 59.9773 157.75 60.212 158.188 60.404C158.625 60.5853 159.094 60.724 159.596 60.82C160.108 60.916 160.636 60.98 161.18 61.012L160.428 63.204C159.756 63.1613 159.1 63.0547 158.46 62.884C157.83 62.7133 157.238 62.4787 156.684 62.18C156.14 61.8813 155.66 61.5187 155.244 61.092C154.828 60.6547 154.502 60.1587 154.268 59.604C154.033 59.0387 153.916 58.4093 153.916 57.716C153.916 56.9373 154.038 56.228 154.284 55.588C154.529 54.948 154.833 54.388 155.196 53.908C155.558 53.4173 155.921 53.0387 156.284 52.772C155.985 52.804 155.622 52.8467 155.196 52.9C154.78 52.9427 154.326 52.996 153.836 53.06C153.356 53.1133 152.865 53.172 152.364 53.236C151.862 53.3 151.377 53.3747 150.908 53.46C150.449 53.5347 150.033 53.6093 149.66 53.684L149.452 51.492ZM169.324 50.388C169.548 50.4093 169.782 50.4307 170.028 50.452C170.284 50.4627 170.497 50.468 170.668 50.468C170.902 50.468 171.169 50.4627 171.468 50.452C171.777 50.4413 172.092 50.4307 172.412 50.42C172.732 50.4093 173.036 50.3933 173.324 50.372C173.612 50.3507 173.846 50.3347 174.028 50.324C174.22 50.3133 174.412 50.2867 174.604 50.244C174.806 50.2013 174.977 50.1533 175.116 50.1L176.396 51.092C176.289 51.22 176.188 51.3373 176.092 51.444C175.996 51.54 175.916 51.6467 175.852 51.764C175.67 52.0627 175.462 52.4733 175.228 52.996C174.993 53.508 174.742 54.0627 174.476 54.66C174.22 55.2573 173.969 55.8387 173.724 56.404C173.564 56.7667 173.398 57.1507 173.228 57.556C173.057 57.9613 172.881 58.3667 172.7 58.772C172.518 59.1667 172.342 59.54 172.172 59.892C172.001 60.2333 171.836 60.532 171.676 60.788C171.356 61.268 170.998 61.6253 170.604 61.86C170.209 62.084 169.734 62.196 169.18 62.196C168.476 62.196 167.889 61.9667 167.42 61.508C166.95 61.0493 166.716 60.4147 166.716 59.604C166.716 58.964 166.86 58.3667 167.148 57.812C167.436 57.2573 167.841 56.7773 168.364 56.372C168.897 55.956 169.521 55.636 170.236 55.412C170.95 55.188 171.734 55.076 172.588 55.076C173.516 55.076 174.412 55.1827 175.276 55.396C176.14 55.6093 176.945 55.8813 177.692 56.212C178.449 56.5427 179.126 56.8893 179.724 57.252C180.332 57.604 180.849 57.924 181.276 58.212L180.332 60.436C179.852 59.988 179.313 59.556 178.716 59.14C178.118 58.724 177.478 58.3453 176.796 58.004C176.124 57.652 175.404 57.3747 174.636 57.172C173.878 56.9693 173.089 56.868 172.268 56.868C171.489 56.868 170.822 56.9907 170.268 57.236C169.724 57.4813 169.308 57.7907 169.02 58.164C168.732 58.5267 168.588 58.9053 168.588 59.3C168.588 59.556 168.652 59.7533 168.78 59.892C168.918 60.0307 169.078 60.1 169.26 60.1C169.43 60.1 169.574 60.0573 169.692 59.972C169.809 59.8867 169.942 59.7427 170.092 59.54C170.23 59.348 170.364 59.1187 170.492 58.852C170.63 58.5853 170.769 58.292 170.908 57.972C171.057 57.652 171.201 57.3267 171.34 56.996C171.489 56.6653 171.633 56.3453 171.772 56.036C171.964 55.6093 172.161 55.1667 172.364 54.708C172.566 54.2387 172.758 53.7853 172.94 53.348C173.132 52.9107 173.308 52.5267 173.468 52.196C173.308 52.2067 173.11 52.2173 172.876 52.228C172.641 52.228 172.39 52.2333 172.124 52.244C171.868 52.2547 171.612 52.2707 171.356 52.292C171.11 52.3027 170.897 52.3133 170.716 52.324C170.556 52.3347 170.348 52.3507 170.092 52.372C169.846 52.3933 169.622 52.42 169.42 52.452L169.324 50.388ZM179.868 54.18C179.804 55.3107 179.686 56.3507 179.516 57.3C179.356 58.2387 179.094 59.0973 178.732 59.876C178.38 60.644 177.894 61.3427 177.276 61.972C176.657 62.5907 175.868 63.1507 174.908 63.652L173.212 62.26C174.193 61.8333 174.977 61.3427 175.564 60.788C176.161 60.2333 176.609 59.652 176.908 59.044C177.217 58.436 177.43 57.844 177.548 57.268C177.665 56.6813 177.74 56.1533 177.772 55.684C177.793 55.3747 177.804 55.0707 177.804 54.772C177.804 54.4627 177.793 54.1853 177.772 53.94L179.868 54.18ZM187.036 50.308C187.26 50.34 187.5 50.3613 187.756 50.372C188.012 50.3827 188.257 50.388 188.492 50.388C188.662 50.388 188.918 50.388 189.26 50.388C189.601 50.3773 189.985 50.3667 190.412 50.356C190.849 50.3453 191.281 50.3347 191.708 50.324C192.134 50.3133 192.518 50.3027 192.86 50.292C193.212 50.2707 193.484 50.2547 193.676 50.244C194.006 50.212 194.268 50.1853 194.46 50.164C194.652 50.132 194.796 50.1 194.892 50.068L195.932 51.492C195.75 51.6093 195.564 51.7267 195.372 51.844C195.18 51.9613 194.993 52.0893 194.812 52.228C194.598 52.3773 194.342 52.5747 194.044 52.82C193.745 53.0547 193.425 53.3053 193.084 53.572C192.753 53.8387 192.428 54.1 192.108 54.356C191.798 54.612 191.516 54.8413 191.26 55.044C191.526 54.98 191.782 54.9373 192.028 54.916C192.273 54.884 192.524 54.868 192.78 54.868C193.686 54.868 194.497 55.044 195.212 55.396C195.937 55.748 196.508 56.228 196.924 56.836C197.35 57.4333 197.564 58.1213 197.564 58.9C197.564 59.7427 197.35 60.5053 196.924 61.188C196.497 61.8707 195.852 62.4147 194.988 62.82C194.134 63.2253 193.062 63.428 191.772 63.428C191.036 63.428 190.369 63.3213 189.772 63.108C189.185 62.8947 188.721 62.5907 188.38 62.196C188.038 61.8013 187.868 61.3373 187.868 60.804C187.868 60.3667 187.985 59.9613 188.22 59.588C188.465 59.204 188.801 58.8947 189.228 58.66C189.665 58.4253 190.166 58.308 190.732 58.308C191.468 58.308 192.086 58.4573 192.588 58.756C193.1 59.044 193.489 59.4333 193.756 59.924C194.033 60.4147 194.177 60.9533 194.188 61.54L192.316 61.796C192.305 61.2093 192.156 60.74 191.868 60.388C191.59 60.0253 191.217 59.844 190.748 59.844C190.449 59.844 190.209 59.924 190.028 60.084C189.846 60.2333 189.756 60.4093 189.756 60.612C189.756 60.9107 189.905 61.1507 190.204 61.332C190.502 61.5133 190.892 61.604 191.372 61.604C192.278 61.604 193.036 61.4973 193.644 61.284C194.252 61.06 194.705 60.7453 195.004 60.34C195.313 59.924 195.468 59.4333 195.468 58.868C195.468 58.388 195.318 57.9667 195.02 57.604C194.732 57.2413 194.337 56.9587 193.836 56.756C193.334 56.5533 192.769 56.452 192.14 56.452C191.521 56.452 190.956 56.532 190.444 56.692C189.932 56.8413 189.446 57.06 188.988 57.348C188.54 57.6253 188.097 57.9667 187.66 58.372C187.233 58.7667 186.806 59.2093 186.38 59.7L184.924 58.196C185.212 57.9613 185.537 57.7 185.9 57.412C186.262 57.1133 186.63 56.804 187.004 56.484C187.388 56.164 187.745 55.8653 188.076 55.588C188.417 55.3 188.705 55.06 188.94 54.868C189.164 54.6867 189.425 54.4733 189.724 54.228C190.022 53.9827 190.332 53.732 190.652 53.476C190.972 53.2093 191.276 52.9587 191.564 52.724C191.852 52.4787 192.092 52.2707 192.284 52.1C192.124 52.1 191.916 52.1053 191.66 52.116C191.404 52.1267 191.121 52.1373 190.812 52.148C190.513 52.1587 190.209 52.1693 189.9 52.18C189.601 52.1907 189.318 52.2067 189.052 52.228C188.796 52.2387 188.582 52.2493 188.412 52.26C188.198 52.2707 187.974 52.2867 187.74 52.308C187.505 52.3293 187.292 52.356 187.1 52.388L187.036 50.308Z" fill="#323232"/>
<g style="mix-blend-mode:multiply">
<path d="M217.756 70.4102C218.254 70.4654 218.551 70.7121 218.645 71.0459L220.417 77.2275L231.277 96.9189L242.164 77.1611L243.907 71.0459C244.005 70.7105 244.301 70.4649 244.663 70.4189H244.701C245.126 70.419 245.402 70.5649 245.566 70.8066C245.619 70.952 246.15 73.6402 248.003 74.4902L263.103 81.4277C266.65 83.056 269.136 86.1623 269.752 89.7354L270.469 93.8857C270.752 95.5105 270.351 97.7832 268.805 98.9336C268.623 99.0699 268.393 99.2737 268.104 99.5293C265.324 101.995 256.864 109.5 231.277 109.5C205.685 109.5 197.227 101.995 194.448 99.5293C194.159 99.2721 193.93 99.0699 193.749 98.9336C192.203 97.7849 191.802 95.5121 192.083 93.8857L192.801 89.7354C193.418 86.1621 195.902 83.0573 199.448 81.4277L214.55 74.4902C216.409 73.6372 216.934 70.9524 216.939 70.9248C217.156 70.559 217.443 70.4103 217.756 70.4102ZM231.277 8.5C247.657 8.5 260.984 21.8275 260.985 38.207C260.985 40.0696 260.809 42.2663 260.461 44.7383L261.925 45.0889C263.185 45.3921 263.965 46.6633 263.663 47.9238L261.634 56.374C261.379 57.435 260.44 58.1756 259.35 58.1758C259.166 58.1758 258.981 58.1532 258.8 58.1104L256.149 57.4746C255.553 58.4777 254.338 60.2284 252.305 61.9375C250.344 63.5886 246.949 65.7248 241.874 66.5947C241.512 67.5886 240.562 68.2656 239.5 68.2656H234.39C232.992 68.2656 231.855 67.1277 231.855 65.7295V63.7314C231.855 62.3332 232.992 61.1943 234.39 61.1943H239.5C240.438 61.1943 241.288 61.7084 241.728 62.5215C250.209 60.8567 252.939 54.9524 252.966 54.8926L253.047 54.7119C253.054 54.5787 253.072 54.4517 253.102 54.3262L255.13 45.876C255.662 42.8022 255.913 40.2533 255.913 38.207C255.912 24.6222 244.861 13.5703 231.277 13.5703C217.693 13.5705 206.641 24.6224 206.641 38.207C206.641 40.2549 206.892 42.8023 207.387 45.7812L209.452 54.3262C209.536 54.6784 209.534 55.0445 209.445 55.418L209.519 55.7148L209.355 55.7041C209.081 56.4315 208.47 56.9784 207.714 57.1592L203.753 58.1104C203.573 58.1531 203.389 58.1767 203.205 58.1768C202.115 58.1768 201.175 57.4352 200.919 56.374L198.891 47.9238C198.589 46.6636 199.368 45.3922 200.627 45.0889L202.093 44.7373C201.746 42.2668 201.57 40.0704 201.57 38.208C201.57 21.8281 214.896 8.50022 231.277 8.5ZM231.277 18.8867C237.194 18.8867 242.759 21.238 246.543 25.3379C250.006 29.0887 251.684 34.028 251.267 39.2461L249.746 51.125L249.331 50.8662C247.143 49.5001 242.131 40.0911 238.472 33.2236C237.75 31.8684 237.095 30.6367 236.544 29.626C230.597 39.0525 223.026 43.8312 217.988 47.0107C215.81 48.386 214.088 49.4718 213.133 50.5117L212.67 51.0176L211.287 39.2578C210.869 34.0277 212.547 29.0871 216.009 25.3379C219.794 21.2379 225.359 18.8868 231.277 18.8867Z" fill="#FFEF93"/>
</g>
</g>
<defs>
<linearGradient id="paint0_linear_6204_27590" x1="1.04635e-05" y1="86.4999" x2="265.47" y2="-16.3544" gradientUnits="userSpaceOnUse">
<stop stop-color="#FFD000"/>
<stop offset="1" stop-color="#FFF278"/>
</linearGradient>
<clipPath id="clip0_6204_27590">
<rect y="0.5" width="272" height="86" rx="10" fill="white"/>
</clipPath>
</defs>
</svg>
