<svg width="24" height="22" viewBox="0 0 24 22" fill="none" xmlns="http://www.w3.org/2000/svg">
<path d="M0 3.48115C0 1.82232 1.34531 0.473633 3 0.473633H21C22.6547 0.473633 24 1.82232 24 3.48115V18.5187C24 20.1776 22.6547 21.5263 21 21.5263H3C1.34531 21.5263 0 20.1776 0 18.5187V3.48115ZM3 3.48115V6.48867H6V3.48115H3ZM21 3.48115H9V6.48867H21V3.48115ZM3 9.49619V12.5037H6V9.49619H3ZM21 9.49619H9V12.5037H21V9.49619ZM3 15.5112V18.5187H6V15.5112H3ZM21 15.5112H9V18.5187H21V15.5112Z" fill="#0F9058"/>
</svg>
