<svg width="16" height="14" viewBox="0 0 16 14" fill="none" xmlns="http://www.w3.org/2000/svg">
<path d="M0.970123 0.721543C0.710128 0.516298 0.332635 0.563855 0.127638 0.824165C-0.0773581 1.08447 -0.0298589 1.46242 0.230136 1.66767L15.0299 13.2815C15.2899 13.4867 15.6674 13.4392 15.8724 13.1789C16.0774 12.9186 16.0299 12.5406 15.7699 12.3354L13.1399 10.2729C14.1299 9.2567 14.7999 8.11784 15.1374 7.30938C15.2199 7.11165 15.2199 6.89139 15.1374 6.69365C14.7649 5.80009 13.9824 4.49854 12.8124 3.41224C11.6374 2.31594 10.02 1.39484 8 1.39484C6.29503 1.39484 4.87505 2.05313 3.76757 2.91666L0.970123 0.721543ZM5.57754 4.33584C6.21503 3.75265 7.06752 3.39723 8 3.39723C9.98746 3.39723 11.5999 5.01165 11.5999 7.00152C11.5999 7.62476 11.4424 8.21045 11.1649 8.72106L10.2 7.96516C10.41 7.48209 10.465 6.92893 10.32 6.38078C10.0425 5.34204 9.12498 4.64371 8.105 4.60116C7.96 4.59615 7.875 4.75384 7.92 4.89401C7.9725 5.0542 8.0025 5.2244 8.0025 5.40211C8.0025 5.65742 7.9425 5.8977 7.8375 6.11046L5.58004 4.33835L5.57754 4.33584ZM9.32498 10.353C8.91498 10.5157 8.46749 10.6058 8 10.6058C6.01254 10.6058 4.40006 8.99138 4.40006 7.00152C4.40006 6.82881 4.41256 6.66111 4.43506 6.49591L2.0776 4.6362C1.50761 5.37959 1.10012 6.12047 0.862625 6.69365C0.780127 6.89139 0.780127 7.11165 0.862625 7.30938C1.23512 8.20295 2.01761 9.5045 3.18758 10.5908C4.36256 11.6871 5.98004 12.6082 8 12.6082C9.19498 12.6082 10.2475 12.2853 11.1549 11.7947L9.32498 10.353Z" fill="#999999"/>
</svg>
