<svg width="54" height="36" viewBox="0 0 54 36" fill="none" xmlns="http://www.w3.org/2000/svg">
<path d="M5.25968 28.2957C4.12354 27.1576 3.4248 25.6009 3.42292 23.8725V17.4355H0.333252V23.8725C0.335023 29.0334 4.52385 33.2202 9.68372 33.224H13.9058V30.1334H9.68372C7.95446 30.1324 6.39947 29.4337 5.25968 28.2957Z" fill="#0F9058"/>
<path d="M9.28445 8.82349C11.5382 8.82349 13.362 6.99974 13.362 4.74494C13.362 2.49401 11.5383 0.666504 9.28445 0.666504C7.03248 0.666504 5.20593 2.49401 5.20593 4.74494C5.20593 6.99963 7.03248 8.82349 9.28445 8.82349Z" fill="#0F9058"/>
<path d="M18.9964 22.7189H13.275V14.2024C13.275 11.9977 11.4901 10.2109 9.28462 10.2109C7.08182 10.2109 5.29517 11.9976 5.29517 14.2024V23.9051C5.29517 26.1088 7.08088 27.8955 9.28462 27.8955C9.58389 27.8955 16.5787 27.8752 16.5787 27.8752L16.9615 33.7802C16.9884 34.9896 17.991 35.9488 19.2004 35.9227C20.4116 35.8958 21.3699 34.8932 21.3421 33.6838L21.5747 25.2971C21.5746 23.8717 20.4208 22.7189 18.9964 22.7189Z" fill="#0F9058"/>
<path d="M50.577 17.4355V23.8725C50.5751 25.6009 49.8764 27.1577 48.7402 28.2957C47.6003 29.4337 46.0454 30.1324 44.3171 30.1334H40.0941V33.224H44.3171C49.476 33.2202 53.6639 29.0334 53.6666 23.8725V17.4355H50.577Z" fill="#0F9058"/>
<path d="M44.7153 8.82349C46.9671 8.82349 48.7938 6.99974 48.7938 4.74494C48.7938 2.49401 46.9671 0.666504 44.7153 0.666504C42.4615 0.666504 40.6377 2.49401 40.6377 4.74494C40.6377 6.99963 42.4615 8.82349 44.7153 8.82349Z" fill="#0F9058"/>
<path d="M48.7057 23.9051V14.2024C48.7057 11.9977 46.9172 10.2109 44.7153 10.2109C42.5098 10.2109 40.725 11.9976 40.725 14.2024V22.7189H35.0035C33.5792 22.7189 32.4254 23.8717 32.4254 25.297L32.658 33.6837C32.6302 34.8931 33.5884 35.8957 34.7997 35.9226C36.009 35.9487 37.0117 34.9894 37.0386 33.7801L37.4213 27.8751C37.4213 27.8751 44.4161 27.8954 44.7155 27.8954C46.919 27.8955 48.7057 26.1088 48.7057 23.9051Z" fill="#0F9058"/>
<path d="M38.4622 17.4746H16.3387V21.2399H38.4622V17.4746Z" fill="#0F9058"/>
<path d="M28.3292 23.2607H25.7549V32.375H28.3292V23.2607Z" fill="#0F9058"/>
</svg>
