<svg width="35" height="43" viewBox="0 0 35 43" fill="none" xmlns="http://www.w3.org/2000/svg">
<path d="M7.13403 0H21.2655H22.3599L23.134 0.770602L33.8332 11.442L34.6058 12.2132V13.3048V35.3031C34.6058 39.2267 31.4049 42.42 27.4703 42.42H7.13394C3.20089 42.42 -1.52588e-05 39.2267 -1.52588e-05 35.3031V7.11546C6.48499e-05 3.19177 3.20089 0 7.13403 0ZM2.64184 35.3031C2.64184 37.7782 4.65306 39.785 7.13394 39.785H27.4703C29.9519 39.785 31.9639 37.7782 31.9639 35.3031V13.3049H25.0096C22.9428 13.3049 21.2655 11.6327 21.2655 9.57043V2.63485H7.13394C4.65306 2.63485 2.64184 4.64168 2.64184 7.11537V35.3031Z" fill="#0F9058"/>
<path d="M10.2949 13.3955C10.9365 13.8434 11.7178 14.108 12.5586 14.108C13.4001 14.108 14.1806 13.8434 14.8231 13.3955C15.9459 13.8775 16.6356 14.7226 17.0563 15.4691C17.6152 16.4592 17.177 17.8608 16.2118 17.8608C15.2453 17.8608 12.5586 17.8608 12.5586 17.8608C12.5586 17.8608 9.87263 17.8608 8.90604 17.8608C7.94021 17.8608 7.50131 16.4592 8.06087 15.4691C8.4817 14.7225 9.17139 13.8775 10.2949 13.3955Z" fill="#0F9058"/>
<path d="M12.5581 12.8375C10.8621 12.8375 9.48862 11.4993 9.48862 9.84736V9.13059C9.48862 7.48018 10.8621 6.13965 12.5581 6.13965C14.2535 6.13965 15.6284 7.48018 15.6284 9.13059V9.84736C15.6284 11.4993 14.2534 12.8375 12.5581 12.8375Z" fill="#0F9058"/>
<path d="M7.8142 21.7681H26.7916V23.4425H7.8142V21.7681Z" fill="#0F9058"/>
<path d="M7.8142 27.3496H26.7916V29.0241H7.8142V27.3496Z" fill="#0F9058"/>
<path d="M7.81411 32.9316H21.2099V34.6061H7.81411V32.9316Z" fill="#0F9058"/>
</svg>
