<svg width="48" height="44" viewBox="0 0 48 44" fill="none" xmlns="http://www.w3.org/2000/svg">
<path d="M11.426 8.82611C13.3843 8.82611 14.9725 7.23863 14.9725 5.28019C14.9725 3.32112 13.3843 1.73291 11.426 1.73291C9.46688 1.73291 7.87866 3.32112 7.87866 5.28019C7.87866 7.23863 9.46678 8.82611 11.426 8.82611Z" fill="#0F9058"/>
<path d="M21.3731 1.97257H44.4707V20.7718H21.3731V19.2021C21.0712 19.1971 20.7687 19.1708 20.4718 19.1167L20.375 19.099L19.4004 18.8292V22.7445H46.4441V21.7578V0H19.4004V9.44667L21.3731 10.1365V1.97257Z" fill="#0F9058"/>
<path d="M21.9695 31.2751C21.9695 33.2334 23.557 34.8216 25.5168 34.8216C27.4751 34.8216 29.0633 33.2334 29.0633 31.2751C29.0633 29.316 27.4751 27.7285 25.5168 27.7285C23.557 27.7285 21.9695 29.316 21.9695 31.2751Z" fill="#0F9058"/>
<path d="M25.517 36.5947C22.1904 36.5947 19.2354 37.7039 18.4985 41.3921L18.5577 43.8324H32.4764L32.5347 41.3921C31.7979 37.7039 28.8429 36.5947 25.517 36.5947Z" fill="#0F9058"/>
<path d="M36.7675 31.2751C36.7675 33.2334 38.3557 34.8216 40.3148 34.8216C42.2731 34.8216 43.8613 33.2334 43.8613 31.2751C43.8613 29.316 42.2731 27.7285 40.3148 27.7285C38.3557 27.7285 36.7675 29.316 36.7675 31.2751Z" fill="#0F9058"/>
<path d="M40.3149 36.5947C36.9882 36.5947 34.0332 37.7039 33.2964 41.3921L33.3555 43.8324H47.2742L47.3333 41.3921C46.5957 37.7039 43.6414 36.5947 40.3149 36.5947Z" fill="#0F9058"/>
<path d="M34.2118 13.7918C33.4088 13.7918 32.7575 14.4418 32.7545 15.2441L26.9263 17.3982C26.6593 17.0893 26.2693 16.8899 25.8286 16.8899C25.0234 16.8899 24.3706 17.5427 24.3706 18.3479C24.3706 19.1531 25.0234 19.8058 25.8286 19.8058C26.6322 19.8058 27.2829 19.1559 27.2858 18.3528L33.1139 16.1994C33.381 16.5084 33.771 16.7077 34.2117 16.7077C35.0169 16.7077 35.6697 16.0549 35.6697 15.2498C35.6697 14.9393 35.5714 14.6539 35.4063 14.4176L39.1436 9.00522C39.2568 9.03375 39.3742 9.05362 39.4967 9.05362C40.3018 9.05362 40.9547 8.40083 40.9547 7.59566C40.9547 6.79048 40.3019 6.1377 39.4967 6.1377C38.6915 6.1377 38.0387 6.79048 38.0387 7.59566C38.0387 7.90601 38.137 8.19147 38.3021 8.42781L34.5648 13.8402C34.4517 13.8117 34.3343 13.7918 34.2118 13.7918Z" fill="#0F9058"/>
<path d="M23.068 16.6114L28.7916 13.8728C29.564 13.546 29.9256 12.6562 29.5989 11.8831C29.2729 11.1107 28.3823 10.7498 27.6099 11.0758L22.4636 12.8342L17.8072 11.2062C17.1281 10.9685 16.4233 10.8146 15.7093 10.7456L12.5706 15.5842V12.9937H10.6571V15.6027L7.14179 11.3599C5.25179 12.1415 3.81944 13.6208 3.30902 16.1744L0.703531 27.0511C0.52051 27.8705 1.03603 28.6814 1.85534 28.8643C2.67328 29.0471 3.48411 28.5311 3.66704 27.7131L6.40779 20.4663L7.1169 42.0326C7.1169 43.0264 7.92199 43.8315 8.91575 43.8315C9.91024 43.8315 10.7154 43.0264 10.7154 42.0326L11.4308 29.1718L12.1441 42.0326C12.1441 43.0264 12.9508 43.8315 13.9438 43.8315C14.9377 43.8315 15.7434 43.0264 15.7434 42.0326L16.7556 15.8269L20.8639 16.9652C21.6172 17.1026 22.3952 16.9773 23.068 16.6114Z" fill="#0F9058"/>
<path d="M12.5706 10.814H10.6571V12.1552H12.5706V10.814Z" fill="#0F9058"/>
</svg>
