<svg width="43" height="43" viewBox="0 0 43 43" fill="none" xmlns="http://www.w3.org/2000/svg">
<path d="M18.0902 8.0625H12.0938H9.05352H8.0625V8.80156V12.0938V15.4867V22.9613L0.0167969 17.0068C0.151172 15.4867 0.932227 14.0758 2.1752 13.1604L4.03125 11.783V8.0625C4.03125 5.83691 5.83691 4.03125 8.0625 4.03125H14.4957L18.6865 0.932227C19.5012 0.327539 20.4838 0 21.5 0C22.5162 0 23.4988 0.327539 24.3135 0.923828L28.5043 4.03125H34.9375C37.1631 4.03125 38.9688 5.83691 38.9688 8.0625V11.783L40.8248 13.1604C42.0678 14.0758 42.8488 15.4867 42.9832 17.0068L34.9375 22.9613V15.4867V12.0938V8.80156V8.0625H33.9465H30.9062H24.9098H18.0818H18.0902ZM0 37.625V20.3326L18.275 33.8709C19.2072 34.5596 20.341 34.9375 21.5 34.9375C22.659 34.9375 23.7928 34.568 24.725 33.8709L43 20.3326V37.625C43 40.5896 40.5896 43 37.625 43H5.375C2.41035 43 0 40.5896 0 37.625ZM14.7812 13.4375H28.2187C28.9578 13.4375 29.5625 14.0422 29.5625 14.7812C29.5625 15.5203 28.9578 16.125 28.2187 16.125H14.7812C14.0422 16.125 13.4375 15.5203 13.4375 14.7812C13.4375 14.0422 14.0422 13.4375 14.7812 13.4375ZM14.7812 18.8125H28.2187C28.9578 18.8125 29.5625 19.4172 29.5625 20.1562C29.5625 20.8953 28.9578 21.5 28.2187 21.5H14.7812C14.0422 21.5 13.4375 20.8953 13.4375 20.1562C13.4375 19.4172 14.0422 18.8125 14.7812 18.8125Z" fill="#0F9058"/>
</svg>
