<svg width="24" height="20" viewBox="0 0 24 20" fill="none" xmlns="http://www.w3.org/2000/svg">
<rect width="24" height="20" fill="#F5F5F5"/>
<g id="&#229;&#128;&#153;&#232;&#163;&#156;&#232;&#128;&#133;_&#227;&#131;&#161;&#227;&#131;&#135;&#227;&#130;&#163;&#227;&#130;&#162;&#227;&#131;&#136;&#227;&#131;&#131;&#227;&#131;&#151;" clip-path="url(#clip0_2366_34494)">
<rect width="1440" height="3025.22" transform="translate(-1120 -366)" fill="#17856F"/>
<g id="Frame 2872">
<path d="M-1120 -5.9999C-1120 -50.1827 -1084.18 -86 -1040 -86H240C284.183 -86 320 -50.1828 320 -6V2144.22H-1120V-5.9999Z" fill="#F9F9F9"/>
<g id="Frame 2554">
<g id="Frame 2547">
<g id="&#227;&#131;&#154;&#227;&#131;&#188;&#227;&#130;&#184;&#229;&#134;&#133;&#227;&#129;&#191;&#227;&#129;&#160;&#227;&#129;&#151;">
<mask id="path-2-inside-1_2366_34494" fill="white">
<path d="M0 -6H240V34H0V-6Z"/>
</mask>
<path d="M240 34V32H0V34V36H240V34Z" fill="#DCDCDC" mask="url(#path-2-inside-1_2366_34494)"/>
<g id="king">
<path id="Vector" d="M22.3333 3.30646C21.4125 3.30646 20.6667 4.05533 20.6667 4.97993C20.6667 5.35646 20.7917 5.7037 21 5.98401L17.2875 8.96697C17.04 9.16569 16.7471 9.25941 16.4583 9.25941C15.9742 9.25941 15.5 8.99584 15.2625 8.51931L12.875 3.72482C13.35 3.43197 13.6667 2.90064 13.6667 2.30238C13.6667 1.37778 12.9208 0.628906 12 0.628906C11.0792 0.628906 10.3333 1.37778 10.3333 2.30238C10.3333 2.90482 10.65 3.43197 11.125 3.72482L8.7375 8.51931C8.5 8.99625 8.02583 9.25941 7.54167 9.25941C7.2525 9.25941 6.96 9.16527 6.7125 8.96697L3 5.98401C3.20833 5.7037 3.33333 5.35646 3.33333 4.97993C3.33333 4.05533 2.5875 3.30646 1.66667 3.30646C0.745833 3.30646 0 4.05533 0 4.97993C0 5.90452 0.745833 6.6534 1.66667 6.6534H1.69583L3.6 17.1712C3.82917 18.443 4.93333 19.3718 6.225 19.3718H17.775C19.0625 19.3718 20.1667 18.4472 20.4 17.1712L22.3042 6.6534H22.3333C23.2542 6.6534 24 5.90452 24 4.97993C24 4.05533 23.2542 3.30646 22.3333 3.30646ZM18.3508 16.7938C18.2992 17.0758 18.0571 17.2799 17.775 17.2799H6.225C5.94208 17.2799 5.70042 17.0774 5.64958 16.7971L4.3775 9.77023L5.41208 10.6015C6.015 11.0852 6.77125 11.3517 7.54167 11.3517C8.16167 11.3517 8.77042 11.1826 9.30208 10.8634C9.86 10.5283 10.3088 10.0413 10.6008 9.4552L12 6.64545L13.3992 9.4552C13.6908 10.0413 14.14 10.5283 14.6979 10.8634C15.2296 11.1831 15.8383 11.3517 16.4583 11.3517C17.2283 11.3517 17.9846 11.0852 18.5892 10.6003L19.6225 9.77023L18.3508 16.7938Z" fill="#0F9058"/>
</g>
</g>
</g>
</g>
</g>
</g>
<defs>
<clipPath id="clip0_2366_34494">
<rect width="1440" height="3025.22" fill="white" transform="translate(-1120 -366)"/>
</clipPath>
</defs>
</svg>
