<svg width="16" height="16" viewBox="0 0 16 16" fill="none" xmlns="http://www.w3.org/2000/svg">
<path d="M8.74534 15.6405C10.3582 13.629 14.0366 8.7539 14.0366 6.01557C14.0366 2.69447 11.3328 0 8.00023 0C4.66765 0 1.96387 2.69447 1.96387 6.01557C1.96387 8.7539 5.64228 13.629 7.25512 15.6405C7.64182 16.1198 8.35864 16.1198 8.74534 15.6405ZM8.00023 4.01038C8.53388 4.01038 9.04567 4.22164 9.42302 4.59768C9.80036 4.97373 10.0124 5.48376 10.0124 6.01557C10.0124 6.54738 9.80036 7.0574 9.42302 7.43345C9.04567 7.8095 8.53388 8.02076 8.00023 8.02076C7.46658 8.02076 6.95479 7.8095 6.57745 7.43345C6.2001 7.0574 5.98811 6.54738 5.98811 6.01557C5.98811 5.48376 6.2001 4.97373 6.57745 4.59768C6.95479 4.22164 7.46658 4.01038 8.00023 4.01038Z" fill="#0F9058"/>
</svg>
