<svg width="32" height="32" viewBox="0 0 32 32" fill="none" xmlns="http://www.w3.org/2000/svg">
<path d="M31.0589 10.4145C31.2598 10.9584 31.0903 11.5648 30.6573 11.9523L27.9398 14.4153C28.0089 14.9342 28.0465 15.4655 28.0465 16.0031C28.0465 16.5407 28.0089 17.0721 27.9398 17.5909L30.6573 20.0539C31.0903 20.4415 31.2598 21.0479 31.0589 21.5917C30.7828 22.3356 30.4502 23.0483 30.0674 23.7359L29.7724 24.2422C29.3582 24.9299 28.8938 25.58 28.3854 26.1926C28.0152 26.6427 27.4001 26.7927 26.8478 26.6177L23.3522 25.5112C22.5112 26.1551 21.5824 26.6927 20.5908 27.099L19.8063 30.6685C19.6808 31.2374 19.2415 31.6874 18.6641 31.7812C17.7981 31.925 16.9069 32 15.9969 32C15.0869 32 14.1957 31.925 13.3297 31.7812C12.7523 31.6874 12.313 31.2374 12.1875 30.6685L11.403 27.099C10.4114 26.6927 9.48256 26.1551 8.6416 25.5112L5.15223 26.624C4.59995 26.799 3.98492 26.6427 3.61465 26.1989C3.1063 25.5862 2.64189 24.9361 2.22768 24.2485L1.93272 23.7421C1.54989 23.0545 1.21727 22.3419 0.941133 21.598C0.740306 21.0541 0.909754 20.4477 1.34279 20.0602L4.06023 17.5972C3.9912 17.0721 3.95354 16.5407 3.95354 16.0031C3.95354 15.4655 3.9912 14.9342 4.06023 14.4153L1.34279 11.9523C0.909754 11.5648 0.740306 10.9584 0.941133 10.4145C1.21727 9.67064 1.54989 8.958 1.93272 8.27037L2.22768 7.76402C2.64189 7.07638 3.1063 6.42626 3.61465 5.81364C3.98492 5.36355 4.59995 5.21352 5.15223 5.38855L8.64788 6.49502C9.48884 5.85114 10.4177 5.31354 11.4093 4.90721L12.1937 1.33776C12.3192 0.7689 12.7586 0.318812 13.3359 0.225044C14.202 0.0750146 15.0932 0 16.0032 0C16.9132 0 17.8043 0.0750147 18.6704 0.218793C19.2478 0.312561 19.6871 0.762649 19.8126 1.33151L20.5971 4.90096C21.5887 5.30729 22.5175 5.84489 23.3585 6.48877L26.8541 5.3823C27.4064 5.20727 28.0214 5.36355 28.3917 5.80738C28.9 6.42 29.3645 7.07013 29.7787 7.75777L30.0736 8.26411C30.4565 8.95175 30.7891 9.66439 31.0652 10.4083L31.0589 10.4145ZM16.0032 21.0041C17.3347 21.0041 18.6118 20.4772 19.5533 19.5394C20.4949 18.6015 21.0239 17.3295 21.0239 16.0031C21.0239 14.6768 20.4949 13.4048 19.5533 12.4669C18.6118 11.529 17.3347 11.0021 16.0032 11.0021C14.6716 11.0021 13.3946 11.529 12.453 12.4669C11.5115 13.4048 10.9825 14.6768 10.9825 16.0031C10.9825 17.3295 11.5115 18.6015 12.453 19.5394C13.3946 20.4772 14.6716 21.0041 16.0032 21.0041Z" fill="white"/>
</svg>
