<svg width="24" height="24" viewBox="0 0 24 24" fill="none" xmlns="http://www.w3.org/2000/svg">
<path d="M16.1687 1.95858L22.1582 7.94451C24.6139 10.3981 24.6139 14.3425 22.1582 16.7961L16.9092 22.0413C16.4733 22.4765 15.761 22.4811 15.3204 22.0506C14.8799 21.62 14.8752 20.9164 15.3111 20.4812L20.5554 15.236C22.1441 13.6481 22.1441 11.0972 20.5554 9.50928L14.5706 3.52335C14.1347 3.08817 14.1394 2.38449 14.58 1.95395C15.0205 1.5234 15.7329 1.52803 16.1687 1.96321V1.95858ZM0 10.7731V3.85204C0 2.62522 1.00762 1.62988 2.24956 1.62988H9.256C10.0527 1.62988 10.8166 1.94006 11.379 2.4956L19.2525 10.2732C20.4241 11.4305 20.4241 13.3055 19.2525 14.4628L12.9959 20.6432C11.8243 21.8006 9.92619 21.8006 8.75454 20.6432L0.881078 12.8657C0.314001 12.3101 0 11.5602 0 10.7731ZM6.74868 6.81492C6.74868 6.42202 6.59068 6.04521 6.30943 5.76738C6.02818 5.48956 5.64672 5.33348 5.24897 5.33348C4.85123 5.33348 4.46977 5.48956 4.18852 5.76738C3.90727 6.04521 3.74927 6.42202 3.74927 6.81492C3.74927 7.20782 3.90727 7.58463 4.18852 7.86245C4.46977 8.14028 4.85123 8.29636 5.24897 8.29636C5.64672 8.29636 6.02818 8.14028 6.30943 7.86245C6.59068 7.58463 6.74868 7.20782 6.74868 6.81492Z" fill="#0F9058"/>
</svg>
