<svg width="24" height="25" viewBox="0 0 24 25" fill="none" xmlns="http://www.w3.org/2000/svg">
<path d="M21.5537 10.3496C22.9024 10.3496 24 11.4468 24 12.7959V15.7734L23.0508 15.8184C22.7709 15.832 22.5518 16.0613 22.5518 16.3408C22.5518 16.6204 22.7708 16.8502 23.0508 16.8633L24 16.9072V19.8857C24 21.2344 22.9024 22.332 21.5537 22.332H7.28027C5.9318 22.3318 4.83496 21.2343 4.83496 19.8857V16.9805L5.68945 16.8584C5.94493 16.822 6.13761 16.5989 6.1377 16.3408C6.1377 16.0825 5.94451 15.8599 5.68848 15.8232L4.83496 15.7002V12.7959C4.83496 11.4474 5.9318 10.3499 7.28027 10.3496H21.5537ZM7.28027 11.585C6.61382 11.5852 6.07129 12.1284 6.07129 12.7949V14.6406C6.82729 14.8453 7.3748 15.5416 7.375 16.3398C7.375 17.1383 6.82742 17.8357 6.07129 18.04V19.8857C6.07129 20.5523 6.61382 21.0945 7.28027 21.0947H21.5537C22.2204 21.0947 22.7627 20.5524 22.7627 19.8857V18.0723C21.934 17.9244 21.3145 17.2034 21.3145 16.3398C21.3147 15.4765 21.9345 14.7556 22.7627 14.6074V12.7949C22.7627 12.1279 22.2204 11.585 21.5537 11.585H7.28027ZM10.208 20.4199H9.40723V19.1191H10.208V20.4199ZM14.4971 2.37793C15.7296 1.83063 17.178 2.38859 17.7256 3.62109L18.9346 6.34277L18.085 6.76855C17.8343 6.89439 17.7274 7.19362 17.8408 7.44922C17.9547 7.7046 18.2477 7.82489 18.5088 7.72363L19.3945 7.37891L20.4473 9.74902H19.0938L18.7373 8.94629C17.9202 9.14768 17.0603 8.74025 16.71 7.95117C16.3597 7.16213 16.6341 6.25189 17.3311 5.78027L16.5947 4.12305C16.3238 3.51374 15.6084 3.23837 14.999 3.50879L1.95508 9.30371C1.34578 9.5744 1.07021 10.2901 1.34082 10.8994L2.08984 12.5859C2.86392 12.4658 3.64653 12.8808 3.9707 13.6104C4.29486 14.3399 4.078 15.1986 3.46973 15.6924L4.21973 17.3789C4.22456 17.3904 4.22978 17.4019 4.23535 17.4131H4.23633V19.0771C3.74335 18.8327 3.32918 18.4218 3.08887 17.8809L1.91016 15.2256L2.6416 14.7676C2.86008 14.6302 2.9456 14.3484 2.84082 14.1123C2.73605 13.8762 2.46918 13.7511 2.2207 13.8213L1.38965 14.0557L0.209961 11.4014C-0.33767 10.1683 0.220486 8.71951 1.45312 8.17188L14.4971 2.37793ZM10.208 18.1328H9.40723V16.832H10.208V18.1328ZM10.208 15.8467H9.40723V14.5449H10.208V15.8467ZM10.208 12.2598V13.5605H9.40723V12.2598H10.208Z" fill="#0F9058"/>
</svg>
