<svg width="16" height="16" viewBox="0 0 16 16" fill="none" xmlns="http://www.w3.org/2000/svg">
<path d="M5.17188 11L6.58398 12.416C7.3651 13.1971 8.63083 13.1969 9.41211 12.416L10.8281 11H14C15.1031 11 16 11.8969 16 13V14C16 15.1031 15.1031 16 14 16H2C0.896875 16 0 15.1031 0 14V13C0 11.8969 0.896875 11 2 11H5.17188ZM13.5 12.75C13.3011 12.75 13.1104 12.8291 12.9697 12.9697C12.8291 13.1104 12.75 13.3011 12.75 13.5C12.75 13.6989 12.8291 13.8896 12.9697 14.0303C13.1104 14.1709 13.3011 14.25 13.5 14.25C13.6989 14.25 13.8896 14.1709 14.0303 14.0303C14.1709 13.8896 14.25 13.6989 14.25 13.5C14.25 13.3011 14.1709 13.1104 14.0303 12.9697C13.8896 12.8291 13.6989 12.75 13.5 12.75ZM8 0C8.55313 0 9 0.446875 9 1V8.58398L11.291 6.29102C11.6816 5.90039 12.3154 5.90039 12.7061 6.29102C13.0966 6.68165 13.0966 7.31546 12.7061 7.70605L8.70605 11.7061C8.31546 12.0966 7.68165 12.0966 7.29102 11.7061L3.29102 7.70605C2.90039 7.31543 2.90039 6.68164 3.29102 6.29102C3.68164 5.90039 4.31543 5.90039 4.70605 6.29102L7 8.58398V1C7 0.446875 7.44688 0 8 0Z" fill="#999"/>
</svg>