<svg width="40" height="40" viewBox="0 0 40 40" fill="none" xmlns="http://www.w3.org/2000/svg">
<circle cx="20" cy="20" r="20" fill="white"/>
<mask id="mask0_5104_24491" style="mask-type:alpha" maskUnits="userSpaceOnUse" x="0" y="0" width="40" height="40">
<circle cx="20" cy="20" r="20" fill="#D2F1DA"/>
</mask>
<g mask="url(#mask0_5104_24491)">
<path d="M19.7222 23.4375C21.9534 23.4375 24.0932 22.565 25.6709 21.012C27.2486 19.4589 28.1349 17.3526 28.1349 15.1562C28.1349 12.9599 27.2486 10.8536 25.6709 9.30052C24.0932 7.74749 21.9534 6.875 19.7222 6.875C17.491 6.875 15.3512 7.74749 13.7735 9.30052C12.1959 10.8536 11.3095 12.9599 11.3095 15.1562C11.3095 17.3526 12.1959 19.4589 13.7735 21.012C15.3512 22.565 17.491 23.4375 19.7222 23.4375ZM16.7186 26.543C10.2448 26.543 5 31.7058 5 38.0785C5 39.1395 5.87413 40 6.95201 40H32.4924C33.5703 40 34.4444 39.1395 34.4444 38.0785C34.4444 31.7058 29.1997 26.543 22.7258 26.543H16.7186Z" fill="#0F9058"/>
</g>
</svg>
