<svg width="531" height="701" viewBox="0 0 531 701" fill="none" xmlns="http://www.w3.org/2000/svg">
<g clip-path="url(#clip0_2533_105830)">
<g style="mix-blend-mode:multiply">
<path opacity="0.1" d="M-608.821 259.323C-608.413 256.751 -607.033 254.49 -604.93 252.963C-600.599 249.81 -594.518 250.761 -591.35 255.072L-351.475 142.966C-351.41 142.776 -351.296 142.602 -351.149 142.455C-350.823 142.129 -350.345 141.993 -349.894 142.091L-349.698 142.135L-348.138 141.406C-347.562 141.134 -346.883 141.303 -346.492 141.803C-346.242 142.124 -346.155 142.531 -346.231 142.912L-195.5 176.647C-194.81 175.076 -193.734 173.728 -192.327 172.712C-189.224 170.45 -185.17 170.238 -181.888 172.059L-103.27 78.8058C-103.362 78.6916 -103.449 78.5775 -103.536 78.4579C-105.069 76.3542 -105.688 73.7775 -105.281 71.2063C-104.873 68.6351 -103.493 66.3737 -101.39 64.8463C-97.0475 61.688 -90.9449 62.6501 -87.7821 66.9935C-87.4344 67.4718 -87.1354 67.9719 -86.88 68.5047L74.5887 26.9795C74.3496 23.6526 75.8331 20.3911 78.5666 18.3961C80.6696 16.8686 83.2346 16.2543 85.7616 16.6512L134.719 -125.064C133.556 -125.738 132.545 -126.651 131.757 -127.738C130.225 -129.842 129.605 -132.419 130.013 -134.99C130.42 -137.561 131.801 -139.823 133.904 -141.35C136.007 -142.883 138.583 -143.503 141.153 -143.095C143.724 -142.687 145.979 -141.307 147.511 -139.203C149.799 -136.055 149.995 -131.957 148.104 -128.657L253.29 -37.6431C253.371 -37.7083 253.458 -37.7736 253.539 -37.8334C257.881 -40.9916 263.99 -40.0295 267.147 -35.6861C267.707 -34.9197 268.141 -34.088 268.451 -33.2019L389.614 -50.6785C389.842 -53.4943 391.277 -56.0818 393.592 -57.767C397.934 -60.9253 404.042 -59.9631 407.199 -55.6198C410.356 -51.2765 409.395 -45.1664 405.053 -42.0082C403.384 -40.7959 401.401 -40.1545 399.357 -40.1491L379.49 61.5956C381.153 62.2805 382.604 63.4166 383.669 64.8789C385.201 66.9826 385.821 69.5592 385.413 72.1304C385.006 74.7016 383.625 76.963 381.522 78.4905C379.734 79.7897 377.61 80.4311 375.436 80.3441L335.961 246.57C337.483 247.26 338.787 248.326 339.782 249.69C342.939 254.034 341.977 260.144 337.635 263.302C333.293 266.46 327.185 265.498 324.028 261.155C322.962 259.687 322.332 257.953 322.191 256.159L210.745 242.591C210.114 244.532 208.891 246.217 207.229 247.429C203.669 250.022 198.805 249.853 195.436 247.163L-12.3652 422.771C-10.4089 426.918 -11.6044 432.017 -15.4464 434.811C-19.7884 437.97 -25.8966 437.008 -29.0539 432.664C-29.6462 431.849 -30.1027 430.963 -30.4125 430.011L-113.606 437.236L80.3001 480.713C80.9903 479.142 82.0663 477.799 83.4737 476.777C87.8157 473.619 93.9184 474.581 97.0812 478.924C98.6136 481.028 99.2331 483.605 98.8256 486.176C98.418 488.747 97.0377 491.008 94.9346 492.536C92.6359 494.21 89.7612 494.781 87.0278 494.15L-7.47437 704.831C-6.7027 705.408 -6.02344 706.098 -5.45282 706.881C-3.92035 708.984 -3.30084 711.561 -3.7084 714.132C-4.11597 716.703 -5.49628 718.965 -7.59933 720.492C-11.1588 723.085 -15.8921 722.96 -19.2831 720.318L-103.216 788.153C-101.015 792.355 -102.178 797.694 -106.107 800.553C-107.791 801.776 -109.775 802.417 -111.818 802.417C-112.329 802.417 -112.845 802.379 -113.356 802.298C-115.926 801.89 -118.187 800.509 -119.714 798.406C-121.632 795.764 -122.089 792.41 -121.002 789.387L-192.213 746.612C-192.615 747.036 -193.06 747.427 -193.533 747.77C-197.875 750.934 -203.983 749.966 -207.141 745.623C-208.673 743.519 -209.293 740.942 -208.885 738.371C-208.537 736.159 -207.467 734.18 -205.836 732.696L-260.435 635.387C-264.456 636.86 -269.097 635.523 -271.667 631.979C-272.309 631.098 -272.787 630.13 -273.102 629.098L-381.489 640.013C-381.755 642.769 -383.184 645.302 -385.456 646.955C-389.798 650.113 -395.906 649.151 -399.063 644.808C-400.596 642.704 -401.215 640.127 -400.807 637.556C-400.4 634.985 -399.02 632.723 -396.917 631.196C-396.205 630.68 -395.444 630.266 -394.634 629.962L-410.769 533.246C-413.747 533.148 -416.567 531.685 -418.339 529.245C-419.621 527.484 -420.262 525.385 -420.197 523.243L-555.342 492.405C-556.032 493.96 -557.108 495.292 -558.499 496.308C-560.602 497.841 -563.178 498.461 -565.749 498.053C-568.319 497.646 -570.58 496.265 -572.107 494.161C-573.639 492.057 -574.259 489.481 -573.851 486.91C-573.444 484.338 -572.063 482.077 -569.96 480.549C-567.575 478.815 -564.591 478.266 -561.782 479.006L-474.235 298.032C-475.002 297.456 -475.676 296.771 -476.241 295.994C-476.349 295.841 -476.458 295.684 -476.567 295.51L-590.458 265.145C-591.154 266.563 -592.176 267.786 -593.464 268.727C-595.567 270.26 -598.142 270.88 -600.713 270.472C-603.283 270.064 -605.544 268.683 -607.071 266.58C-608.598 264.476 -609.223 261.899 -608.815 259.328L-608.821 259.323ZM-350.508 148.408L-460.867 284.051C-460.737 284.208 -460.612 284.366 -460.492 284.529C-460.378 284.687 -460.264 284.855 -460.155 285.024L-331.803 235.068L-350.502 148.413L-350.508 148.408ZM-336.987 281.594C-336.618 279.001 -335.237 276.696 -333.086 275.13C-330.205 273.038 -326.477 272.744 -323.375 274.13L-330.993 238.835L-456.427 287.655L-336.987 281.594ZM-457.128 291.498L-324.874 331.148L-328.379 292.694C-329.743 292.547 -331.048 292.123 -332.216 291.449C-333.384 290.775 -334.417 289.862 -335.232 288.742C-335.324 288.612 -335.406 288.476 -335.493 288.345C-336.085 287.437 -336.531 286.443 -336.797 285.394L-457.128 291.498ZM-324.597 292.352L-320.951 332.328L-229.601 359.714L-320.907 290.302C-321.141 290.509 -321.38 290.704 -321.63 290.884C-321.858 291.047 -322.092 291.205 -322.326 291.346C-323.038 291.775 -323.798 292.112 -324.597 292.346V292.352ZM-319.337 274.821L-199.587 187.682L-327.407 237.432L-319.337 274.821ZM-226.4 357.306C-226.166 357.094 -225.922 356.898 -225.672 356.719C-223.987 355.496 -222.014 354.854 -219.971 354.854C-219.862 354.854 -219.748 354.854 -219.64 354.859L-211.64 310.051L-318.429 286.894C-318.484 287.019 -318.543 287.144 -318.603 287.269L-226.394 357.306H-226.4ZM-215.928 355.729C-214.77 356.246 -213.738 356.98 -212.874 357.893C-212.586 358.197 -212.314 358.523 -212.064 358.866C-211.57 359.551 -211.167 360.285 -210.863 361.062L-81.674 338.231L-207.918 310.856L-215.928 355.724V355.729ZM-136.169 433.996C-135.973 433.175 -135.674 432.371 -135.261 431.615L-214.287 372.537C-214.662 372.804 -215.053 373.043 -215.466 373.255L-189.523 463.203L-136.158 438.53C-136.522 437.024 -136.522 435.475 -136.169 433.996ZM-210.227 365.258C-210.238 365.394 -210.249 365.536 -210.265 365.672L-106.976 398.374L-78.0928 345.885C-78.696 345.379 -79.234 344.803 -79.7014 344.167C-80.1905 343.493 -80.5871 342.77 -80.8914 341.998L-210.233 365.264L-210.227 365.258ZM-211.412 369.297C-211.494 369.45 -211.581 369.596 -211.673 369.743L-132.827 428.685C-132.691 428.576 -132.555 428.473 -132.419 428.37C-130.713 427.125 -128.708 426.5 -126.692 426.5C-126.366 426.5 -126.045 426.516 -125.724 426.549C-124.757 426.647 -123.801 426.891 -122.882 427.277L-108.845 401.766L-211.412 369.292V369.297ZM-134.566 441.987L-188.458 466.905L-166.927 541.546C-166.221 541.487 -165.514 541.503 -164.808 541.601L-131.582 444.667C-132.751 443.993 -133.767 443.08 -134.56 441.987H-134.566ZM-191.952 468.514L-296.366 516.791C-296.214 517.422 -296.122 518.068 -296.1 518.715C-296.089 518.933 -296.089 519.145 -296.1 519.362L-174.991 547.254C-174.905 547.058 -174.812 546.868 -174.714 546.683C-174.03 545.379 -173.057 544.253 -171.845 543.373C-171.448 543.085 -171.03 542.824 -170.59 542.601L-191.957 468.52L-191.952 468.514ZM-193.017 464.818L-219.123 374.304C-219.194 374.309 -219.265 374.304 -219.335 374.309C-219.585 374.326 -219.835 374.337 -220.085 374.337C-220.205 374.337 -220.324 374.32 -220.444 374.315C-220.645 374.304 -220.846 374.298 -221.042 374.277C-221.172 374.26 -221.302 374.233 -221.433 374.211C-221.938 374.135 -222.433 374.027 -222.922 373.874L-299.523 511.649C-298.931 512.149 -298.409 512.714 -297.953 513.334L-193.017 464.818ZM-226.248 372.021C-226.84 371.521 -227.367 370.955 -227.818 370.33C-227.992 370.091 -228.155 369.841 -228.307 369.585C-229.367 367.808 -229.829 365.737 -229.633 363.677L-320.576 336.41L-304.8 509.382C-304.137 509.452 -303.48 509.588 -302.844 509.795L-226.242 372.021H-226.248ZM-324.505 335.236L-459.704 294.7C-460.096 295.466 -460.59 296.178 -461.177 296.814L-309.805 510.175C-309.408 509.996 -309.006 509.849 -308.593 509.724L-324.51 335.23L-324.505 335.236ZM-196.337 180.36L-346.997 146.641L-328.216 233.665L-196.191 182.274C-196.305 181.638 -196.354 180.996 -196.337 180.355V180.36ZM-193.202 187.742L-318.522 278.93C-317.908 280.262 -317.598 281.713 -317.625 283.17L-210.977 306.3L-190.159 189.656C-191.289 189.215 -192.316 188.568 -193.207 187.742H-193.202ZM-182.529 189.427C-183.746 189.987 -185.072 190.292 -186.409 190.319L-207.255 307.11L-80.7502 334.545C-80.3154 333.545 -79.7177 332.626 -78.9786 331.827L-182.529 189.433V189.427ZM-179.448 187.188L-75.8974 329.582C-75.4681 329.381 -75.0224 329.213 -74.5659 329.082L-87.7278 182.399L-177.046 182.48C-177.355 184.013 -178.029 185.459 -179.007 186.677C-179.149 186.851 -179.295 187.019 -179.448 187.188ZM-70.7783 328.74C-69.4251 328.887 -68.1155 329.316 -66.9362 329.995L59.5575 186.258C58.764 185.046 58.2587 183.687 58.063 182.263L-83.9129 182.393L-70.7783 328.74ZM-96.7052 82.4098C-97.9931 82.2685 -99.243 81.8771 -100.368 81.2574L-178.986 174.511C-178.893 174.625 -178.806 174.739 -178.719 174.859C-177.888 176 -177.323 177.3 -177.051 178.68L-88.0702 178.599L-96.6997 82.4152L-96.7052 82.4098ZM-88.744 79.5777C-89.1136 79.9528 -89.5102 80.2952 -89.9395 80.6051C-90.6786 81.1432 -91.472 81.5618 -92.3143 81.8662C-92.5154 81.9369 -92.7165 82.013 -92.9229 82.0728L-84.2607 178.593L58.2804 178.458C58.4108 177.963 58.5739 177.479 58.7804 177.012L-88.744 79.5777ZM-86.6518 76.3976L60.9649 173.891C61.2856 173.582 61.6225 173.299 61.9757 173.043C62.3018 172.804 62.6441 172.587 62.9919 172.396C64.0462 171.815 65.1874 171.434 66.3829 171.277L74.2952 100.093L-86.5051 76.0226C-86.5486 76.1476 -86.5974 76.2781 -86.6518 76.4031V76.3976ZM77.4091 181.681L190.17 213.476L157.668 122.516C154.907 122.918 152.065 122.109 149.94 120.309L76.1429 176.049C77.0015 177.539 77.4471 179.229 77.4417 180.947C77.4417 181.192 77.4308 181.436 77.4091 181.681ZM92.0327 32.1654L155.021 103.23C155.429 103.181 155.837 103.153 156.244 103.153C156.407 103.153 156.57 103.153 156.733 103.164L149.055 7.56769L93.9836 25.3215C94.2119 27.7514 93.5108 30.2193 92.0327 32.1654ZM147.582 117.325C146.952 116.091 146.593 114.748 146.528 113.384C146.484 112.568 146.549 111.742 146.718 110.927L78.0666 100.647L70.1924 171.505C71.4314 171.831 72.6052 172.407 73.6214 173.185L147.587 117.319L147.582 117.325ZM79.9958 35.0247C79.6371 34.8507 79.2893 34.6441 78.9524 34.4213C77.9797 33.7853 77.1156 32.9753 76.4091 32.0077C76.0994 31.5783 75.8223 31.1216 75.5832 30.6487L-85.9508 72.1902C-85.9508 72.1902 -85.9508 72.2337 -85.9508 72.2554L74.7082 96.3041L81.4522 35.5954C80.9468 35.4432 80.4577 35.253 79.9849 35.0192L79.9958 35.0247ZM85.2453 35.9651L78.4796 96.8694L148.267 107.317C148.886 106.426 149.642 105.654 150.516 105.012C150.717 104.866 150.929 104.724 151.147 104.594L89.196 34.6985C87.9842 35.4052 86.6473 35.8346 85.2507 35.9705L85.2453 35.9651ZM138.501 -123.803C138.436 -123.808 138.376 -123.819 138.311 -123.825L89.3319 17.9449C89.609 18.1134 89.8753 18.2928 90.1362 18.4885C90.9133 19.0702 91.598 19.7605 92.1686 20.5433C92.4294 20.9021 92.6685 21.2826 92.8805 21.6848L148.745 3.67555L138.501 -123.803ZM145.615 -125.787C145.533 -125.722 145.446 -125.657 145.365 -125.597C144.441 -124.923 143.398 -124.417 142.294 -124.107L152.462 2.47421L249.594 -28.8369C249.35 -30.8971 249.774 -32.9682 250.795 -34.7675L145.609 -125.782L145.615 -125.787ZM251.393 -24.2272C251.165 -24.5425 250.958 -24.8686 250.763 -25.2165L152.772 6.37178L160.63 104.197C160.885 104.328 161.135 104.463 161.374 104.616L252.181 -23.2759C251.893 -23.5803 251.627 -23.901 251.382 -24.2326L251.393 -24.2272ZM255.289 -21.0635L164.184 107.247C164.618 107.861 164.982 108.524 165.265 109.22L286.776 85.8181L259.783 -20.2318C258.235 -20.1502 256.702 -20.4329 255.289 -21.0635ZM265.261 -22.2757C265.174 -22.2104 265.087 -22.1398 265 -22.08C264.517 -21.7321 264.006 -21.4277 263.468 -21.1722L290.514 85.0898L366.051 70.5432C366.062 68.8743 366.491 67.2489 367.317 65.803L265.256 -22.2757H265.261ZM375.756 60.8726L395.624 -40.872C394.793 -41.2145 394.016 -41.6657 393.309 -42.2202C392.603 -42.7746 391.978 -43.4215 391.445 -44.1553C390.831 -44.9979 390.369 -45.9166 390.054 -46.9005L268.989 -29.4403C268.918 -28.1193 268.587 -26.831 268.006 -25.6568C267.924 -25.4883 267.837 -25.3252 267.745 -25.1567L369.806 62.9274C369.893 62.8567 369.98 62.7915 370.067 62.7317C371.735 61.5195 373.719 60.878 375.762 60.8726H375.756ZM331.924 245.684C332.038 245.684 332.152 245.684 332.26 245.689L371.735 79.4581C371.545 79.3711 371.36 79.2787 371.175 79.1809C369.893 78.496 368.784 77.5338 367.915 76.3379C367.453 75.7018 367.072 75.0115 366.774 74.2831L291.454 88.7916L331.391 245.7C331.57 245.689 331.744 245.684 331.918 245.684H331.924ZM325.685 247.924C325.843 247.788 326.011 247.663 326.174 247.543C326.658 247.195 327.169 246.891 327.707 246.63L287.716 89.5092L165.988 112.954C165.977 114.324 165.683 115.667 165.118 116.906C165.037 117.086 164.95 117.26 164.863 117.434L325.69 247.929L325.685 247.924ZM323.234 251C323.256 250.962 323.272 250.924 323.294 250.886L162.472 120.391C162.314 120.527 162.146 120.652 161.983 120.771C161.749 120.94 161.51 121.097 161.26 121.25L194.67 214.748L323.24 251H323.234ZM209.381 233.817C210.446 235.285 211.076 237.019 211.217 238.813L307.611 250.549L196.23 219.14L200.077 229.914C203.62 229.392 207.234 230.871 209.375 233.812L209.381 233.817ZM195.773 231.67C196.007 231.502 196.246 231.344 196.496 231.192L191.741 217.879L93.663 190.221L193.518 233.975C194.132 233.083 194.887 232.311 195.773 231.67ZM-14.6422 419.71L192.974 244.26C191.828 242.189 191.48 239.77 191.985 237.454L75.6864 186.497C75.5343 186.72 75.3712 186.932 75.1973 187.144C74.6865 187.769 74.0942 188.324 73.4312 188.802C71.176 190.444 68.3556 191.025 65.6656 190.449L-16.5007 418.384C-15.8323 418.748 -15.2073 419.194 -14.6422 419.71ZM-24.8749 417.917C-24.0978 417.596 -23.2773 417.389 -22.4512 417.281C-22.348 417.27 -22.2447 417.242 -22.1415 417.237C-22.0437 417.226 -21.9404 417.232 -21.8426 417.221C-21.6306 417.204 -21.4187 417.188 -21.2014 417.188C-20.8481 417.188 -20.4894 417.21 -20.1308 417.248L62.1007 189.123L-64.0887 332.512C-64.0398 332.572 -63.9963 332.637 -63.9529 332.697C-62.4204 334.801 -61.8008 337.378 -62.2084 339.949C-62.5725 342.259 -63.7246 344.319 -65.4853 345.825L-24.8858 417.922L-24.8749 417.917ZM-29.9669 422.749C-29.4886 421.738 -28.8419 420.825 -28.0485 420.037L-68.7947 347.684C-70.7348 348.326 -72.8161 348.336 -74.767 347.717L-103.281 399.543L-29.9669 422.755V422.749ZM-31.4287 426.277L-105.15 402.94L-119.73 429.441C-119.393 429.783 -119.089 430.142 -118.817 430.517C-118.643 430.762 -118.475 431.012 -118.323 431.267C-117.866 432.039 -117.513 432.871 -117.285 433.735L-31.4287 426.282V426.277ZM-10.9034 703.184L83.5607 492.59C82.7021 491.981 81.9521 491.242 81.3272 490.389C80.0501 488.633 79.4089 486.556 79.4632 484.42L-117.796 440.193C-118.203 441.117 -118.747 441.965 -119.415 442.715C-119.877 443.237 -120.393 443.71 -120.969 444.129C-121.083 444.21 -121.198 444.292 -121.312 444.368L-15.2128 703.048C-13.7944 702.771 -12.3217 702.82 -10.9088 703.184H-10.9034ZM-18.8374 704.222L-124.828 445.814C-125.556 445.955 -126.3 446.01 -127.045 445.982C-127.099 445.982 -127.148 445.982 -127.202 445.982C-127.469 445.966 -127.73 445.944 -127.996 445.906L-161.221 542.835C-160.928 543.003 -160.645 543.188 -160.373 543.384C-159.558 543.976 -158.835 544.694 -158.238 545.515C-156.069 548.499 -155.814 552.386 -157.384 555.566C-157.607 556.022 -157.868 556.457 -158.167 556.881L-18.8429 704.217L-18.8374 704.222ZM-191.392 734.158C-189.447 736.838 -189.017 740.339 -190.186 743.388L-119.046 786.12C-118.6 785.626 -118.105 785.18 -117.567 784.789C-117.138 784.473 -116.687 784.202 -116.225 783.968C-114.839 783.267 -113.34 782.924 -111.84 782.924C-109.606 782.924 -107.389 783.691 -105.601 785.185L-21.7828 717.443C-22.5871 716.029 -23.011 714.453 -23.049 712.876C-23.1033 710.849 -22.5327 708.81 -21.3535 707.093L-160.922 559.496C-162.417 560.436 -164.134 560.947 -165.9 560.98L-196 730.712C-194.153 731.364 -192.55 732.555 -191.387 734.153L-191.392 734.158ZM-227.449 686.403L-254.701 629.75C-254.832 630.092 -254.984 630.43 -255.158 630.756C-255.669 631.74 -256.354 632.636 -257.19 633.408L-227.454 686.403H-227.449ZM-202 730.538C-201.82 730.484 -201.636 730.44 -201.451 730.397C-200.897 730.271 -200.337 730.19 -199.766 730.163L-169.65 560.322C-170.829 559.86 -171.905 559.17 -172.818 558.3C-173.242 557.898 -173.633 557.457 -173.986 556.979C-174.79 555.875 -175.345 554.636 -175.627 553.342C-175.796 552.565 -175.872 551.766 -175.845 550.956L-296.948 523.064C-297.252 523.749 -297.632 524.385 -298.083 524.972C-298.127 525.032 -298.17 525.092 -298.214 525.146C-298.241 525.184 -298.279 525.217 -298.306 525.255C-298.79 525.847 -299.349 526.38 -299.969 526.853L-202 730.532V730.538ZM-264.614 616.541C-263.554 616.448 -262.5 616.53 -261.483 616.78C-261.272 616.829 -261.06 616.889 -260.853 616.954L-284.432 567.927L-265.157 616.606C-264.972 616.579 -264.793 616.557 -264.608 616.541H-264.614ZM-270.347 619.041C-270.08 618.797 -269.809 618.574 -269.526 618.367C-269.282 618.188 -269.026 618.019 -268.755 617.862L-304.077 528.647C-305.479 528.902 -306.914 528.842 -308.278 528.489C-308.8 528.353 -309.316 528.179 -309.81 527.956L-340.003 570.4L-270.347 619.041ZM-312.914 525.749C-313.202 525.445 -313.468 525.13 -313.707 524.804C-313.892 524.548 -314.066 524.282 -314.229 524.01C-314.707 523.189 -315.065 522.303 -315.294 521.379L-400.856 525.016C-400.987 525.847 -401.221 526.663 -401.552 527.429L-343.128 568.226L-312.914 525.755V525.749ZM-383.315 633.349C-382.673 634.229 -382.195 635.197 -381.88 636.23L-273.493 625.314C-273.385 624.2 -273.086 623.118 -272.607 622.107L-342.21 573.504L-384.103 632.403C-383.815 632.707 -383.548 633.022 -383.309 633.349H-383.315ZM-392.613 618.992L-390.885 629.353C-389.613 629.397 -388.358 629.685 -387.206 630.196L-345.329 571.324L-374.527 550.934L-403.726 530.544C-404.046 530.854 -404.383 531.136 -404.737 531.397C-405.09 531.658 -405.459 531.887 -405.84 532.093C-405.84 532.093 -405.84 532.093 -405.85 532.093C-406.231 532.3 -406.617 532.474 -407.019 532.626L-392.613 618.981V618.992ZM-410.921 513.79C-407.655 513.627 -404.546 515.095 -402.59 517.786C-401.845 518.813 -401.307 519.976 -401.009 521.21L-329.548 518.172L-412.274 508.365L-410.926 513.79H-410.921ZM-315.082 516.057C-314.636 514.687 -313.892 513.432 -312.903 512.388L-464.22 299.103L-413.252 504.419L-315.082 516.057ZM-419.355 519.542C-419.268 519.346 -419.175 519.156 -419.078 518.971C-418.589 518.036 -417.947 517.188 -417.181 516.459C-416.877 516.166 -416.545 515.894 -416.197 515.644C-415.703 515.285 -415.17 514.97 -414.616 514.709L-416.306 507.892L-528.953 494.536L-419.355 519.542ZM-558.364 480.664C-557.787 481.093 -557.266 481.588 -556.804 482.137C-556.652 482.322 -556.5 482.506 -556.358 482.702C-555.299 484.159 -554.668 485.888 -554.527 487.671L-417.29 503.94L-467.915 299.989C-468.888 300.033 -469.866 299.935 -470.817 299.685L-558.369 480.658L-558.364 480.664ZM-589.491 261.464L-478.067 291.172C-478.105 290.753 -478.116 290.329 -478.099 289.911C-478.018 287.818 -477.268 285.785 -475.953 284.138C-475.426 283.48 -474.806 282.888 -474.105 282.377C-472.399 281.137 -470.388 280.512 -468.383 280.512C-468.187 280.512 -467.991 280.517 -467.796 280.528C-466.426 280.61 -465.073 280.985 -463.823 281.643L-356.203 149.364L-589.752 258.518C-589.518 259.48 -589.431 260.47 -589.491 261.459V261.464Z" fill="#A3DCBE"/>
<path opacity="0.2" d="M-456.801 750.131C-455.844 747.692 -453.642 745.987 -451.104 745.617L-435.014 612.639C-438.677 611.151 -440.482 606.974 -439.031 603.286C-437.569 599.571 -433.356 597.73 -429.638 599.191C-429.448 599.267 -429.257 599.348 -429.072 599.441L-380.368 544.48C-381.634 542.541 -381.922 540.059 -381.058 537.87C-379.601 534.155 -375.388 532.313 -371.665 533.774C-370.474 534.242 -369.436 535.013 -368.648 536.001L-294.362 503.94C-294.536 502.707 -294.395 501.441 -293.933 500.268C-293.422 498.964 -292.547 497.851 -291.421 497.042L-359.717 315.273C-360.842 315.381 -361.973 315.224 -363.038 314.806C-366.756 313.344 -368.599 309.135 -367.137 305.42C-366.43 303.617 -365.066 302.199 -363.288 301.428C-361.516 300.657 -359.543 300.619 -357.744 301.325C-357.086 301.585 -356.477 301.933 -355.923 302.368L-167.838 162.149C-169.92 160.167 -170.675 157.071 -169.572 154.268C-168.865 152.465 -167.501 151.047 -165.724 150.276C-164.006 149.527 -162.098 149.467 -160.342 150.108L-111.229 80.6504C-112.882 78.6462 -113.36 75.8707 -112.387 73.3994C-111.98 72.3565 -111.349 71.4441 -110.528 70.7L-159.646 -24.6926C-159.994 -24.5188 -160.413 -24.5025 -160.788 -24.6654C-161.369 -24.9153 -161.701 -25.5345 -161.587 -26.1591L-161.277 -27.8537L-161.369 -28.0329C-161.581 -28.4457 -161.57 -28.9345 -161.337 -29.3365C-161.233 -29.5157 -161.092 -29.6678 -160.924 -29.7764L-127.379 -211.898C-130.771 -213.522 -132.386 -217.52 -130.989 -221.072C-129.526 -224.787 -125.314 -226.628 -121.596 -225.167C-117.877 -223.712 -116.035 -219.497 -117.497 -215.782C-117.867 -214.837 -118.426 -213.989 -119.138 -213.283L-78.4406 -141.523C-78.4406 -141.523 -78.4243 -141.518 -78.4135 -141.512C-77.9025 -141.311 -77.4186 -141.056 -76.9675 -140.752L30.0529 -231.897C29.2103 -233.684 29.1234 -235.753 29.8626 -237.627C30.5693 -239.43 31.9337 -240.848 33.7112 -241.619C35.4887 -242.39 37.4565 -242.428 39.2557 -241.722C41.0604 -241.016 42.4792 -239.653 43.251 -237.877C44.0229 -236.101 44.061 -234.135 43.3543 -232.337C42.9521 -231.305 42.327 -230.398 41.517 -229.659L86.1722 -143.821C87.5638 -144.125 89.0097 -144.016 90.3524 -143.489C92.3038 -142.723 93.7878 -141.192 94.4945 -139.269L162.524 -145.385C162.605 -145.857 162.736 -146.314 162.91 -146.764C163.616 -148.568 164.981 -149.985 166.758 -150.756C168.536 -151.533 170.503 -151.566 172.303 -150.86C174.107 -150.154 175.526 -148.79 176.298 -147.014C177.075 -145.244 177.108 -143.272 176.401 -141.474C175.706 -139.698 174.33 -138.28 172.613 -137.515L184.321 -62.5117C184.952 -62.4411 185.566 -62.2891 186.164 -62.0609C189.056 -60.9258 190.85 -58.134 190.763 -55.125L266.022 -35.4088C267.826 -38.3255 271.539 -39.6399 274.833 -38.3472C278.551 -36.8862 280.394 -32.6768 278.932 -28.9617C278.834 -28.7119 278.72 -28.462 278.589 -28.223L319.885 12.1815C321.782 11.0681 324.103 10.8671 326.196 11.6873C326.457 11.7905 326.707 11.9045 326.957 12.0349L387.936 -52.7406C386.751 -54.6579 386.523 -57.026 387.365 -59.1714C388.072 -60.9747 389.436 -62.3923 391.214 -63.1635C392.991 -63.9348 394.959 -63.9728 396.758 -63.2667C400.357 -61.8546 402.194 -57.8679 400.993 -54.2451L511.264 18.8731C513.275 17.1024 516.118 16.5756 518.689 17.5804C520.494 18.2865 521.913 19.6498 522.685 21.4259C523.456 23.1965 523.495 25.1681 522.788 26.9659C522.081 28.7692 520.717 30.1868 518.939 30.958C517.167 31.7347 515.194 31.7673 513.395 31.0612C512.753 30.8114 512.166 30.4746 511.628 30.0619L356.544 147.859C357.115 149.483 357.093 151.27 356.452 152.9C354.995 156.615 350.777 158.456 347.059 156.995C345.254 156.289 343.835 154.925 343.063 153.149C342.292 151.384 342.254 149.418 342.955 147.626L290.95 105.325C288.961 106.819 286.341 107.199 283.965 106.265C283.443 106.059 282.96 105.803 282.503 105.494L156.512 206.644C157.273 208.387 157.327 210.386 156.62 212.178C155.914 213.982 154.549 215.399 152.772 216.17C151 216.942 149.027 216.98 147.227 216.274C145.423 215.568 144.004 214.204 143.232 212.428C142.46 210.658 142.422 208.686 143.129 206.888C143.303 206.448 143.515 206.03 143.77 205.633L94.3694 151.227C93.0812 151.889 91.6407 152.145 90.2219 151.971L7.95087 323.729C10.2556 325.706 11.1091 328.938 9.9621 331.855C9.46747 333.115 8.63031 334.207 7.55402 335.005L36.3204 407.776C37.4836 407.64 38.6578 407.792 39.7667 408.232C43.4848 409.688 45.3275 413.902 43.8653 417.617C42.4085 421.333 38.1957 423.174 34.4722 421.713C33.4611 421.316 32.5697 420.708 31.8358 419.926L-73.6299 475.902C-73.3091 477.309 -73.4124 478.781 -73.9506 480.144C-74.6572 481.948 -76.0217 483.365 -77.7992 484.136C-79.5712 484.908 -81.5444 484.946 -83.3437 484.24C-84.4526 483.805 -85.4147 483.121 -86.1757 482.235L-151.291 513.504C-151.047 514.83 -151.172 516.198 -151.666 517.458C-152.373 519.262 -153.737 520.679 -155.515 521.451C-157.287 522.222 -159.26 522.26 -161.06 521.554C-161.06 521.554 -161.065 521.554 -161.07 521.554L-243.162 627.858C-241.711 629.835 -241.352 632.437 -242.271 634.772C-242.917 636.418 -244.13 637.749 -245.673 638.552L-227.583 728.171C-226.806 728.209 -226.034 728.378 -225.305 728.66C-221.587 730.116 -219.745 734.331 -221.207 738.046C-221.914 739.849 -223.278 741.267 -225.055 742.038C-226.501 742.668 -228.083 742.809 -229.594 742.456L-288.328 833.194C-286.79 835.187 -286.388 837.849 -287.328 840.249C-288.035 842.053 -289.399 843.47 -291.177 844.241C-292.106 844.649 -293.09 844.85 -294.074 844.85C-294.971 844.85 -295.862 844.681 -296.721 844.345C-299.167 843.389 -300.885 841.162 -301.244 838.609L-381.085 820.702C-382.808 823.852 -386.657 825.302 -390.087 823.96C-393.805 822.499 -395.648 818.29 -394.185 814.575C-394.011 814.13 -393.789 813.7 -393.533 813.298L-446.527 759.082C-448.402 760.119 -450.669 760.293 -452.696 759.5C-454.501 758.794 -455.92 757.431 -456.692 755.655C-457.464 753.884 -457.502 751.912 -456.795 750.115L-456.801 750.131ZM-376.959 547.25C-377.15 547.174 -377.334 547.092 -377.525 547L-423.191 598.539L-402.122 586.487L-377.992 572.685L-376.595 547.386C-376.72 547.348 -376.84 547.304 -376.959 547.255V547.25ZM-380.764 691.895L-357.515 567.868C-358.064 567.602 -358.575 567.27 -359.037 566.879C-359.19 566.749 -359.342 566.613 -359.483 566.472L-374.312 574.956L-380.764 691.9V691.895ZM-255.882 629.792L-346.578 568.862L-285.241 653.728L-255.887 634.484C-256.409 632.969 -256.415 631.323 -255.887 629.792H-255.882ZM-256.317 347.66L-169.768 290.033L-230.453 296.382L-256.322 347.666L-256.317 347.66ZM-234.949 296.849L-353.248 309.222L-266.824 348.605C-265.433 346.938 -263.356 345.998 -261.225 345.998C-260.752 345.998 -260.279 346.042 -259.812 346.14L-234.949 296.844V296.849ZM-252.648 349.784L-166.979 334.658L-164.685 294.264C-164.843 294.215 -165 294.161 -165.153 294.101C-165.897 293.808 -166.582 293.395 -167.191 292.884L-252.648 349.784ZM-254.045 353.89C-254.099 354.482 -254.224 355.063 -254.42 355.628L-174.383 410.643C-173.469 409.872 -172.377 409.335 -171.208 409.085L-167.202 338.557L-254.045 353.89ZM-176.862 415.027C-176.796 414.603 -176.688 414.185 -176.541 413.772L-254.67 360.066L-204.372 439.398L-176.454 418.785C-176.927 417.585 -177.063 416.287 -176.862 415.021V415.027ZM-259.127 360.153C-259.6 360.299 -260.089 360.397 -260.578 360.446L-284.121 496.341C-283.61 496.58 -283.132 496.873 -282.697 497.221L-207.443 441.668L-259.127 360.153ZM-280.68 506.085C-281.284 507.307 -282.224 508.344 -283.382 509.061L-274.081 540.477L-170.23 515.997L-280.408 505.46C-280.419 505.487 -280.43 505.52 -280.441 505.547C-280.512 505.732 -280.593 505.911 -280.675 506.085H-280.68ZM-276.707 545.001L-347.111 561.594C-347.133 562.3 -347.263 563.001 -347.486 563.669L-253.74 626.647C-253.43 626.381 -253.093 626.142 -252.74 625.93L-276.701 544.996L-276.707 545.001ZM-286.192 658.904L-377.383 718.694C-377.302 718.949 -377.237 719.215 -377.182 719.476C-377.166 719.557 -377.144 719.644 -377.128 719.725L-235.003 733.717C-234.927 733.391 -234.829 733.076 -234.704 732.766C-234.492 732.229 -234.22 731.724 -233.894 731.257L-286.192 658.899V658.904ZM-234.878 737.552L-377.497 723.511C-377.497 723.511 -377.514 723.555 -377.525 723.576C-377.769 724.201 -378.095 724.782 -378.503 725.309L-331.092 786.896L-234.824 737.731C-234.845 737.671 -234.862 737.611 -234.883 737.546L-234.878 737.552ZM-288.421 655.819L-351.802 568.123C-352.438 568.362 -353.096 568.509 -353.77 568.563L-381.107 714.419C-380.509 714.707 -379.96 715.076 -379.465 715.516L-288.415 655.819H-288.421ZM-370.86 546.864C-371.469 547.195 -372.127 547.435 -372.801 547.581L-374.062 570.426L-361.375 563.169C-361.522 562.615 -361.598 562.056 -361.609 561.491C-361.63 560.551 -361.462 559.606 -361.108 558.705C-360.962 558.33 -360.782 557.966 -360.57 557.613L-370.866 546.864H-370.86ZM-367.137 539.477C-367.093 539.787 -367.072 540.097 -367.066 540.406C-367.055 541.335 -367.218 542.269 -367.566 543.149C-367.713 543.524 -367.892 543.888 -368.104 544.235L-357.809 554.984C-355.944 553.979 -353.705 553.816 -351.704 554.604C-351.215 554.794 -350.759 555.033 -350.324 555.321L-297.645 509.485L-367.131 539.477H-367.137ZM-347.301 557.733L-277.788 541.351L-287.029 510.142C-287.986 510.169 -288.937 509.996 -289.834 509.648C-290.323 509.458 -290.78 509.219 -291.215 508.931L-347.307 557.738L-347.301 557.733ZM-356.162 313.926L-287.872 495.684L-264.329 359.794C-267.118 358.496 -268.732 355.628 -268.482 352.657C-268.466 352.462 -268.439 352.261 -268.406 352.065L-354.825 312.682C-355.216 313.149 -355.662 313.567 -356.156 313.926H-356.162ZM-261.992 237.065L-353.661 305.404C-353.661 305.404 -353.651 305.425 -353.651 305.436L-232.916 292.808L-170.328 168.721L-261.997 237.06L-261.992 237.065ZM-164.707 166.049L-228.409 292.341L-169.654 286.198C-169.572 285.693 -169.436 285.199 -169.246 284.715C-168.49 282.787 -166.99 281.326 -165.131 280.609C-164.865 280.506 -164.593 280.419 -164.31 280.348L-164.702 166.044L-164.707 166.049ZM-167.409 409.302C-167.289 409.34 -167.175 409.383 -167.055 409.427C-166.925 409.476 -166.794 409.535 -166.664 409.595L-96.5309 326.087L-163.348 337.884L-167.403 409.302H-167.409ZM-58.4585 255.701C-59.5457 255.999 -60.6709 256.037 -61.7635 255.815L-86.3388 315.267C-86.1703 315.403 -86.0072 315.55 -85.8496 315.696C-84.7624 316.75 -84.0286 318.119 -83.7568 319.618L-17.5594 325.467L-58.4585 255.695V255.701ZM-12.9064 325.88L-3.58942 326.706C-3.57312 326.662 -3.55676 326.614 -3.54047 326.57C-3.3067 325.973 -2.99689 325.419 -2.61639 324.908L-44.8037 271.473L-12.9118 325.88H-12.9064ZM-102.065 61.6837L-65.9871 -30.2109L-91.4702 -29.1301L-102.059 61.6837H-102.065ZM-83.7894 -127.852L-155.423 -30.2218L-94.8785 -32.7909L-83.7894 -127.852ZM-86.4802 142.227L14.7456 125.329C14.7456 125.329 14.7456 125.291 14.7511 125.275L-99.8414 80.3571C-100.434 81.1555 -101.19 81.8236 -102.059 82.3178L-86.4856 142.227H-86.4802ZM-89.2904 146.55L-155.629 157.625C-155.694 158.282 -155.847 158.923 -156.091 159.542C-156.118 159.613 -156.156 159.689 -156.189 159.759C-156.243 159.89 -156.298 160.026 -156.368 160.156L-64.427 242.725C-64.389 242.698 -64.3455 242.671 -64.3074 242.643L-89.2904 146.545V146.55ZM12.1527 27.9219C11.707 27.8404 11.2667 27.7155 10.8427 27.5471C9.81537 27.1452 8.90753 26.526 8.17371 25.7221L-20.1306 38.7522L19.2899 116.563L12.1582 27.9164L12.1527 27.9219ZM23.3125 118.937C23.7528 119.018 24.1822 119.143 24.6008 119.306C24.9922 119.458 25.3618 119.643 25.7206 119.865L55.7317 91.4644L16.3492 28.9158L23.3125 118.937ZM-23.5932 40.3436L-98.5096 74.8333C-98.3954 75.4905 -98.3792 76.1531 -98.4498 76.8103L16.1426 121.723C16.4253 121.343 16.746 120.99 17.1048 120.669L-23.5878 40.3382L-23.5932 40.3436ZM-101.331 70.222C-100.88 70.5587 -100.466 70.9498 -100.102 71.3843L-25.3109 36.9544L-59.5402 -30.6183C-60.2795 -30.4662 -61.0351 -30.4282 -61.7852 -30.5097L-101.331 70.222ZM-21.8538 35.3575L6.40704 22.3492C6.09723 20.9587 6.21136 19.5085 6.73865 18.1616C6.76038 18.1018 6.7876 18.0421 6.80933 17.9823L-55.4254 -30.9116L-21.8538 35.3575ZM6.34729 12.7355L-26.6373 -41.4703L-53.7946 -36.9785C-53.8598 -36.3267 -54.012 -35.6858 -54.2567 -35.0666C-54.2784 -35.0069 -54.3055 -34.9472 -54.3273 -34.8874L6.34729 12.7355ZM11.4841 13.8544C13.0062 13.4145 14.6478 13.4851 16.1372 14.0663C16.5177 14.2129 16.8819 14.3976 17.2298 14.6094L96.8754 -61.4309C96.7993 -61.5721 96.7232 -61.7188 96.6579 -61.8654L-22.5875 -42.1384L11.4841 13.8544ZM97.3755 -69.1327C97.8049 -69.7301 98.3267 -70.2516 98.9192 -70.6915L73.8547 -134.685L-71.3251 -132.99L97.3755 -69.1381V-69.1327ZM19.8553 17.3577C20.1542 17.9008 20.3771 18.482 20.5239 19.0849L85.895 20.7686L100.131 -58.3458C99.914 -58.449 99.7074 -58.5631 99.5009 -58.688L19.8553 17.3523V17.3577ZM90.9068 14.3921L89.7436 20.8719L142.933 22.2406C142.987 22.0505 143.053 21.8604 143.129 21.6757C143.531 20.6492 144.151 19.7475 144.955 19.0089L104.795 -57.8136C104.643 -57.781 104.491 -57.7647 104.339 -57.7429C104.187 -57.7212 104.034 -57.6886 103.882 -57.6723L90.9177 14.3921H90.9068ZM85.5852 69.1846C85.7265 69.6136 85.8298 70.0591 85.8896 70.5099L147.972 78.8906V31.3111C147.717 31.2405 147.472 31.159 147.227 31.0667C146.64 30.8386 146.091 30.5344 145.586 30.1596C145.417 30.0347 145.254 29.9044 145.096 29.7686L85.5852 69.1846ZM142.993 26.5966C142.933 26.4119 142.879 26.2273 142.835 26.0426L89.0587 24.6576L81.8127 64.9209C82.4161 65.2088 82.976 65.5781 83.4761 66.0181L142.987 26.602L142.993 26.5966ZM85.2101 24.5544L52.8181 23.7179L20.4261 22.8815C20.4261 22.8815 20.4152 22.9141 20.4097 22.9304L74.1537 65.8225C75.1321 65.0349 76.3008 64.5135 77.5347 64.3071C77.7087 64.28 77.8881 64.2528 78.0674 64.242L85.2101 24.5544ZM71.925 68.913L19.8716 27.3733L58.5529 88.8029L72.6642 75.4471C71.4031 73.5352 71.1042 71.0964 71.925 68.913ZM57.7973 94.7504L28.3352 122.63C28.8896 123.667 29.1886 124.824 29.1994 125.998L85.0797 140.728C85.3569 140.315 85.6776 139.935 86.0309 139.592L57.7973 94.7558V94.7504ZM83.9871 146.257C83.8566 145.621 83.8077 144.975 83.8457 144.329L28.2319 129.669C27.4654 131.005 26.2913 132.059 24.8508 132.684C23.1765 133.411 21.3284 133.487 19.6161 132.901L-53.6369 241.302L84.1447 146.881C84.0794 146.675 84.0305 146.463 83.9816 146.251L83.9871 146.257ZM16.4633 130.777C16.023 130.267 15.6534 129.696 15.3707 129.077L-85.5234 145.92L-60.6818 241.476C-59.9479 241.443 -59.2141 241.519 -58.502 241.709L16.4579 130.777H16.4633ZM-65.1772 254.115C-65.6447 253.702 -66.0523 253.224 -66.3948 252.702L-112.311 270.273L-93.5522 314.165C-92.7042 313.833 -91.7964 313.665 -90.8886 313.665C-90.5353 313.665 -90.1765 313.692 -89.8232 313.741L-65.1772 254.109V254.115ZM-155.406 288.821L-97.6018 318.179C-97.3626 317.586 -97.0528 317.038 -96.6723 316.538L-115.866 271.636L-155.287 286.725C-155.221 287.426 -155.26 288.132 -155.406 288.821ZM-92.3291 327.993C-92.5629 327.944 -92.7911 327.89 -93.0195 327.819L-163.75 412.045C-163.636 412.213 -163.527 412.382 -163.424 412.555C-163.12 413.082 -162.886 413.642 -162.723 414.228L-86.752 413.788L-92.3291 327.993ZM-163.131 333.979L-97.9551 322.475C-97.9714 322.399 -97.9877 322.323 -98.0041 322.241L-157.129 292.211C-158.124 293.308 -159.434 294.079 -160.886 294.41L-163.131 333.979ZM-160.902 166.266L-160.51 280.397C-160.288 280.463 -160.07 280.533 -159.858 280.615C-159.032 280.935 -158.287 281.402 -157.646 281.983C-157.26 282.331 -156.912 282.722 -156.608 283.151L-117.361 268.133L-139.131 217.197L-160.902 166.261V166.266ZM-113.806 266.775L-67.5853 249.085C-67.6396 248.059 -67.4765 247.032 -67.096 246.065C-67.0362 245.913 -66.971 245.766 -66.9003 245.614L-157.706 164.061L-113.806 266.77V266.775ZM-157.249 152.291C-156.852 152.775 -156.521 153.301 -156.254 153.872L-90.2417 142.851L-105.734 83.2683C-106.549 83.2629 -107.365 83.1162 -108.131 82.8338L-157.244 152.291H-157.249ZM-107.158 68.951C-107.017 68.9184 -106.875 68.8967 -106.734 68.875L-95.3242 -28.9671L-156.249 -26.3818L-107.163 68.951H-107.158ZM-122.46 -211.42C-122.851 -211.323 -123.248 -211.252 -123.645 -211.219L-155.923 -35.9628L-86.7302 -130.269C-87.5238 -131.268 -88.0294 -132.453 -88.225 -133.685C-88.2739 -133.995 -88.3011 -134.305 -88.3066 -134.62C-88.3283 -135.559 -88.1707 -136.51 -87.8119 -137.422C-87.7467 -137.591 -87.6597 -137.754 -87.5836 -137.917C-87.0346 -139.057 -86.2192 -140.013 -85.219 -140.714C-84.5341 -141.192 -83.7677 -141.55 -82.9523 -141.773L-122.454 -211.426L-122.46 -211.42ZM-80.566 -122.66L-91.0299 -32.9538L-67.2048 -33.9641C-68.3409 -35.8433 -68.5963 -38.2006 -67.7537 -40.3569C-67.096 -42.0298 -65.8675 -43.3713 -64.2857 -44.1643L-80.5714 -122.66H-80.566ZM-77.0109 -124.262L-60.5513 -44.9356C-59.7957 -44.8921 -59.051 -44.7238 -58.3498 -44.4522C-56.5995 -43.7678 -55.1916 -42.4154 -54.4143 -40.7262L-28.7572 -44.9682L-77.0055 -124.262H-77.0109ZM-75.8803 -129.72L-24.7184 -45.6362L95.9567 -65.6022L-75.2824 -130.421C-75.4672 -130.177 -75.6683 -129.943 -75.8857 -129.72H-75.8803ZM37.3858 -227.785C36.228 -227.655 35.0647 -227.807 33.9612 -228.242C33.4503 -228.443 32.9665 -228.698 32.5153 -229.002L-74.5214 -137.862C-74.3528 -137.509 -74.217 -137.14 -74.1082 -136.76L72.3653 -138.471L37.3804 -227.785H37.3858ZM67.1089 -172.232L51.4211 -202.393L76.4421 -138.514L80.6984 -138.563C80.769 -138.845 80.8615 -139.117 80.9648 -139.388C81.367 -140.42 81.9921 -141.327 82.8021 -142.066L67.1089 -172.227V-172.232ZM87.33 -129.514C87.1344 -129.525 86.9441 -129.541 86.7539 -129.568C86.1777 -129.644 85.6124 -129.791 85.0688 -130.003C82.9379 -130.839 81.3561 -132.605 80.7473 -134.761L77.9261 -134.728L96.3916 -87.5888L87.3355 -129.509L87.33 -129.514ZM91.7929 -130.769C91.5537 -130.606 91.3036 -130.454 91.0427 -130.323L103.616 -72.1145C104.197 -72.082 104.774 -71.9842 105.328 -71.8158C105.377 -71.7995 105.42 -71.7832 105.469 -71.767C105.605 -71.7235 105.747 -71.68 105.877 -71.6257C106.008 -71.5768 106.133 -71.5225 106.263 -71.4628L129.229 -98.859L91.7874 -130.774L91.7929 -130.769ZM176.717 -57.7973C176.738 -57.8516 176.755 -57.9059 176.776 -57.9602C176.814 -58.0525 176.853 -58.1449 176.891 -58.2372L132.127 -96.3931L109.182 -69.024C109.818 -68.1007 110.242 -67.0416 110.4 -65.9281L176.711 -57.8027L176.717 -57.7973ZM155.908 -56.5154L176.885 -52.4093C176.662 -52.9144 176.499 -53.4521 176.401 -54.0007L155.914 -56.51L155.908 -56.5154ZM162.872 -141.594L94.8424 -135.478C94.7608 -135.005 94.6304 -134.549 94.4565 -134.098C94.3966 -133.952 94.3314 -133.8 94.2662 -133.653L131.681 -101.765L163.72 -139.98C163.372 -140.48 163.089 -141.023 162.877 -141.594H162.872ZM168.862 -136.923C168.704 -136.939 168.547 -136.961 168.394 -136.988C168.394 -136.988 168.345 -136.999 168.324 -137.004C167.883 -137.086 167.449 -137.21 167.025 -137.373C166.894 -137.422 166.769 -137.477 166.639 -137.536L134.584 -99.299L179.299 -61.1865C179.701 -61.4743 180.125 -61.7188 180.576 -61.9197L168.867 -136.923H168.862ZM189.67 -51.475C189.36 -50.9754 188.991 -50.5245 188.578 -50.1172L213.332 -45.2723L189.67 -51.4696V-51.475ZM271.104 -24.4427C270.571 -24.5242 270.055 -24.6654 269.544 -24.8609C269.245 -24.9804 268.952 -25.1162 268.674 -25.2737C267.837 -25.7408 267.098 -26.3709 266.5 -27.1259L159.268 22.0994L275.86 18.1507L271.104 -24.4427ZM275.996 -25.4421C275.643 -25.2249 275.268 -25.0348 274.882 -24.8827L279.676 18.0203L316.504 16.7711C316.558 16.5321 316.635 16.2986 316.716 16.065C316.749 15.9727 316.776 15.8803 316.814 15.788C316.934 15.4839 317.075 15.1851 317.232 14.9027L275.996 -25.4476V-25.4421ZM329.735 14.6528C329.882 14.8918 330.018 15.1417 330.132 15.3915C330.605 16.4018 330.833 17.5043 330.806 18.6124C330.784 19.4434 330.621 20.2798 330.306 21.0837C329.039 24.31 325.723 26.1241 322.413 25.5863L297.419 80.8405L378.505 -37.1577L329.729 14.6528H329.735ZM509.16 22.045L398.889 -51.0623C397.677 -50.0086 396.122 -49.3785 394.513 -49.2862L368.802 70.662L508.801 24.6956C508.753 23.7994 508.872 22.8978 509.16 22.0396V22.045ZM354.386 144.725L505.866 29.6654L367.878 74.9637L353.109 143.867C353.56 144.111 353.989 144.399 354.381 144.731L354.386 144.725ZM345.221 144.568C345.52 144.334 345.836 144.122 346.162 143.938C347.146 143.384 348.255 143.069 349.396 143.02L363.692 76.3324L293.853 99.2585C293.864 99.5084 293.858 99.7528 293.842 99.9972C293.793 100.736 293.63 101.469 293.358 102.164C293.337 102.219 293.315 102.273 293.293 102.327L345.221 144.568ZM292.717 95.6303L364.616 72.0252L387.762 -35.9574L390.241 -47.521L292.282 95.022C292.434 95.2175 292.581 95.4185 292.712 95.6249L292.717 95.6303ZM287.982 92.4149H288.004L318.945 24.0112C317.858 23.115 317.053 21.9147 316.635 20.5677L280.1 21.8061L287.988 92.4095L287.982 92.4149ZM284.188 92.7082L276.284 21.9418L156.925 25.9883C156.925 25.9883 156.919 26.01 156.914 26.0263L281.476 94.43C282.237 93.6641 283.166 93.0775 284.188 92.7136V92.7082ZM151.777 202.548C152.033 202.619 152.277 202.7 152.522 202.793C153.098 203.021 153.636 203.314 154.136 203.678L280.057 102.588C279.747 101.92 279.535 101.203 279.437 100.47L151.783 83.2411V202.548H151.777ZM151.777 79.4011L277.002 96.3038L155.088 29.3558C154.294 30.1759 153.321 30.7951 152.245 31.1645C152.092 31.2188 151.935 31.2676 151.777 31.3057V79.4011ZM151.565 17.2817C151.886 17.3577 152.207 17.4555 152.516 17.5804C153.364 17.9117 154.142 18.406 154.805 19.0197C155.028 19.2261 155.234 19.4434 155.43 19.6769L265.016 -30.6237C264.983 -30.8518 264.967 -31.0745 264.956 -31.3027L109.737 -61.6753C109.345 -60.8823 108.812 -60.1708 108.16 -59.5733L148.32 17.2491C149.391 17.0101 150.5 17.0264 151.565 17.2817ZM147.972 201.69V82.7252L85.3841 74.2793C84.9764 75.2461 84.3676 76.0988 83.6011 76.7995L147.972 201.69ZM92.0483 137.605C92.3636 137.648 92.6789 137.713 92.9833 137.8C93.2334 137.871 93.478 137.947 93.7226 138.039C95.5816 138.767 96.9732 140.184 97.7179 141.885C97.8103 142.096 97.8918 142.314 97.968 142.536C98.1854 143.199 98.305 143.894 98.3268 144.595C98.3539 145.534 98.1908 146.496 97.8266 147.425C97.6527 147.865 97.4407 148.283 97.1852 148.674L141.552 197.535L112.21 140.608L82.8673 83.6811L92.0429 137.599L92.0483 137.605ZM78.1544 78.6788C77.4369 78.6245 76.7357 78.4669 76.0562 78.2008C75.8768 78.1302 75.7029 78.0541 75.5289 77.9673L60.613 92.0836L87.7812 135.226L78.1544 78.6788ZM86.6832 150.537C86.5038 150.401 86.3353 150.26 86.1722 150.108L-53.6587 245.935C-53.3923 246.581 -53.2184 247.255 -53.1423 247.944C-53.1151 248.173 -53.1042 248.401 -53.0988 248.634C-53.0879 249.558 -53.251 250.481 -53.5934 251.355C-53.7131 251.654 -53.8435 251.942 -54.0012 252.219C-54.1534 252.496 -54.3273 252.762 -54.5175 253.017L0.384216 322.556C1.28656 322.176 2.25415 321.981 3.22711 321.981C3.65656 321.981 4.09143 322.018 4.51544 322.095L86.6886 150.537H86.6832ZM15.137 364.558L4.00989 336.412C3.03143 336.526 2.05298 336.423 1.10718 336.135C0.927795 336.081 0.74292 336.026 0.563599 335.961C0.0689087 335.766 -0.387695 335.51 -0.822571 335.228C-2.45331 334.136 -3.57855 332.447 -3.92639 330.497L-10.5527 329.91L26.2587 392.709L15.1316 364.563L15.137 364.558ZM-15.2003 329.498L-84.0884 323.409C-84.0992 323.442 -84.1155 323.474 -84.1264 323.507L30.8085 407.982L-15.2003 329.492V329.498ZM-79.2559 470.417C-78.8428 470.498 -78.4406 470.617 -78.0546 470.77C-77.0436 471.166 -76.1521 471.774 -75.4183 472.557L29.3952 416.922L-82.6914 417.569L-79.2559 470.417ZM30.1072 413.115C30.1725 412.859 30.254 412.61 30.3518 412.365L-86.3877 326.565C-86.5508 326.69 -86.7139 326.815 -86.8878 326.923C-87.3988 327.26 -87.9533 327.537 -88.5403 327.738L-82.9469 413.767L30.1072 413.115ZM-85.3766 471.981C-84.6918 471.405 -83.9036 470.96 -83.0555 470.666L-86.5073 417.59L-162.701 418.03C-162.75 418.215 -162.804 418.394 -162.87 418.573L-85.3821 471.981H-85.3766ZM-157.499 507.644C-156.907 507.72 -156.33 507.866 -155.771 508.084C-154.662 508.518 -153.705 509.203 -152.938 510.088L-87.8228 478.819C-87.8826 478.509 -87.9152 478.194 -87.9369 477.885C-87.9858 476.945 -87.8554 476 -87.5401 475.104L-165.028 421.696C-165.626 422.202 -166.305 422.604 -167.028 422.891L-157.499 507.638V507.644ZM-170.811 423.326C-171.333 423.244 -171.85 423.109 -172.35 422.908C-173.024 422.647 -173.638 422.289 -174.198 421.849L-202.334 442.618L-161.38 507.209L-170.811 423.32V423.326ZM-205.4 444.889L-280.435 500.284C-280.262 500.735 -280.131 501.202 -280.05 501.68L-165.332 512.651C-165.283 512.494 -165.229 512.342 -165.169 512.19C-164.886 511.473 -164.49 510.799 -163.995 510.207L-205.405 444.894L-205.4 444.889ZM-164.125 519.289C-164.299 519.061 -164.462 518.827 -164.615 518.583L-272.999 544.127L-249.082 624.903C-248.13 624.892 -247.239 625.061 -246.375 625.398C-246.299 625.43 -246.217 625.463 -246.141 625.495L-164.12 519.283L-164.125 519.289ZM-249.397 639.373C-250.174 639.335 -250.946 639.166 -251.675 638.884C-252.43 638.585 -253.137 638.161 -253.751 637.635L-283.012 656.818L-231.491 728.101L-249.402 639.378L-249.397 639.373ZM-297.107 831.043C-296.39 830.712 -295.629 830.5 -294.851 830.418C-294.59 830.391 -294.335 830.375 -294.074 830.375C-293.182 830.375 -292.286 830.538 -291.427 830.875C-291.405 830.885 -291.383 830.891 -291.362 830.902L-233.329 741.25L-328.722 789.97L-319.938 801.382L-297.102 831.048L-297.107 831.043ZM-380.204 817.019L-300.771 834.834C-300.57 834.356 -300.325 833.905 -300.032 833.482L-332.179 791.725L-380.264 816.286C-380.232 816.53 -380.21 816.775 -380.204 817.019ZM-382.368 812.071C-382.145 812.288 -381.938 812.527 -381.743 812.772L-334.538 788.661L-381.52 727.628C-381.857 727.764 -382.199 727.878 -382.553 727.965L-383.635 769.244L-384.716 810.523C-383.836 810.881 -383.042 811.408 -382.373 812.066L-382.368 812.071ZM-378.242 577.204L-425.267 604.106C-424.881 605.578 -424.968 607.126 -425.534 608.571C-426.012 609.788 -426.811 610.847 -427.833 611.64L-385.711 712.545L-378.242 577.204ZM-391.016 718.292C-390.538 717.075 -389.739 716.016 -388.717 715.223L-426.083 625.718L-404.013 728.378L-391.391 722.267C-391.484 721.768 -391.527 721.263 -391.516 720.757C-391.5 719.916 -391.332 719.085 -391.022 718.286L-391.016 718.292ZM-388.282 801.529L-386.352 727.873C-386.543 727.818 -386.733 727.753 -386.912 727.683C-388.01 727.253 -388.967 726.575 -389.728 725.695L-403.182 732.207L-388.277 801.534L-388.282 801.529ZM-390.701 810.773C-390.549 810.697 -390.391 810.621 -390.234 810.556L-406.71 733.912L-442.934 751.44C-442.869 751.771 -442.831 752.108 -442.814 752.445C-442.809 752.613 -442.803 752.781 -442.809 752.95C-442.825 753.792 -442.994 754.623 -443.303 755.421C-443.445 755.774 -443.608 756.116 -443.804 756.448L-390.701 810.778V810.773ZM-446.549 746.432C-445.804 746.839 -445.141 747.377 -444.586 748.018L-407.53 730.083L-431.752 617.419L-447.32 746.063C-447.054 746.171 -446.799 746.291 -446.549 746.432Z" fill="#A3DCBE"/>
</g>
</g>
<defs>
<clipPath id="clip0_2533_105830">
<rect width="531" height="701" fill="white" transform="matrix(-1 0 0 1 531 0)"/>
</clipPath>
</defs>
</svg>