<svg width="16" height="16" viewBox="0 0 16 16" fill="none" xmlns="http://www.w3.org/2000/svg">
<path d="M4.39424 0.510485C4.04567 -0.0180946 3.34143 -0.157382 2.81502 0.192623C2.28862 0.542628 2.15346 1.24978 2.50203 1.77836L5.87386 6.85701H4.01722C3.38767 6.85701 2.87905 7.36773 2.87905 7.99988C2.87905 8.63203 3.38767 9.14276 4.01722 9.14276H6.86265V10.2856H4.01722C3.38767 10.2856 2.87905 10.7964 2.87905 11.4285C2.87905 12.0607 3.38767 12.5714 4.01722 12.5714H6.86265V14.8571C6.86265 15.4893 7.37127 16 8.00082 16C8.63037 16 9.13899 15.4893 9.13899 14.8571V12.5714H11.9844C12.614 12.5714 13.1226 12.0607 13.1226 11.4285C13.1226 10.7964 12.614 10.2856 11.9844 10.2856H9.13899V9.14276H11.9844C12.614 9.14276 13.1226 8.63203 13.1226 7.99988C13.1226 7.36773 12.614 6.85701 11.9844 6.85701H10.1278L13.4996 1.77836C13.8482 1.25335 13.7059 0.542628 13.1831 0.192623C12.6602 -0.157382 11.9524 -0.0145231 11.6038 0.510485L8.00082 5.93914L4.39424 0.510485Z" fill="#0F9058"/>
</svg>
