<svg width="16" height="16" viewBox="0 0 16 16" fill="none" xmlns="http://www.w3.org/2000/svg">
<path d="M2.97062 6.24841C3.22734 5.53293 3.64409 4.86011 4.23088 4.28575C6.31465 2.23448 9.69202 2.23448 11.7758 4.28575L12.3459 4.85026H11.2023C10.6122 4.85026 10.1354 5.3196 10.1354 5.90052C10.1354 6.48144 10.6122 6.95077 11.2023 6.95077H14.9198H14.9331C15.5232 6.95077 16 6.48144 16 5.90052V2.22464C16 1.64372 15.5232 1.17438 14.9331 1.17438C14.343 1.17438 13.8662 1.64372 13.8662 2.22464V3.37991L13.2828 2.80227C10.3655 -0.0695081 5.63784 -0.0695081 2.72057 2.80227C1.90706 3.60309 1.32028 4.54503 0.9602 5.55262C0.763492 6.10072 1.05689 6.69805 1.61034 6.89169C2.16378 7.08533 2.77391 6.79651 2.97062 6.25169V6.24841ZM0.766826 9.09394C0.600125 9.14317 0.440092 9.23178 0.310065 9.36307C0.176703 9.49435 0.0866847 9.65188 0.0400084 9.82255C0.0300063 9.86193 0.0200042 9.9046 0.0133361 9.94727C0.00333401 10.0031 0 10.0589 0 10.1147V13.7774C0 14.3583 0.476766 14.8277 1.06689 14.8277C1.65701 14.8277 2.13378 14.3583 2.13378 13.7774V12.6254L2.72057 13.1998C5.63784 16.0683 10.3655 16.0683 13.2794 13.1998C14.0929 12.3989 14.6831 11.457 15.0431 10.4494C15.2398 9.90132 14.9464 9.30399 14.393 9.11035C13.8396 8.91671 13.2294 9.20553 13.0327 9.75034C12.776 10.4658 12.3592 11.1386 11.7725 11.713C9.68869 13.7643 6.31132 13.7643 4.22755 11.713L4.22421 11.7097L3.65409 11.1518H4.801C5.39112 11.1518 5.86789 10.6824 5.86789 10.1015C5.86789 9.5206 5.39112 9.05127 4.801 9.05127H1.08023C1.02688 9.05127 0.973536 9.05455 0.920192 9.06112C0.866847 9.06768 0.816837 9.07753 0.766826 9.09394Z" fill="white"/>
</svg>
