<svg width="20" height="20" viewBox="0 0 20 20" fill="none" xmlns="http://www.w3.org/2000/svg">
<path d="M4.5 2.06934C5.16304 2.06934 5.79893 2.33046 6.26777 2.79526C6.73661 3.26006 7 3.89046 7 4.54778C7 5.20511 6.73661 5.83551 6.26777 6.30031C5.79893 6.76511 5.16304 7.02623 4.5 7.02623C3.83696 7.02623 3.20107 6.76511 2.73223 6.30031C2.26339 5.83551 2 5.20511 2 4.54778C2 3.89046 2.26339 3.26006 2.73223 2.79526C3.20107 2.33046 3.83696 2.06934 4.5 2.06934ZM16 2.06934C16.663 2.06934 17.2989 2.33046 17.7678 2.79526C18.2366 3.26006 18.5 3.89046 18.5 4.54778C18.5 5.20511 18.2366 5.83551 17.7678 6.30031C17.2989 6.76511 16.663 7.02623 16 7.02623C15.337 7.02623 14.7011 6.76511 14.2322 6.30031C13.7634 5.83551 13.5 5.20511 13.5 4.54778C13.5 3.89046 13.7634 3.26006 14.2322 2.79526C14.7011 2.33046 15.337 2.06934 16 2.06934ZM0 11.3232C0 9.49848 1.49375 8.01761 3.33437 8.01761H4.66875C5.16562 8.01761 5.6375 8.12604 6.0625 8.31812C6.02187 8.54118 6.00313 8.77354 6.00313 9.00899C6.00313 10.1924 6.52812 11.2551 7.35625 11.9831C7.35 11.9831 7.34375 11.9831 7.33437 11.9831H0.665625C0.3 11.9831 0 11.6857 0 11.3232ZM12.6656 11.9831C12.6594 11.9831 12.6531 11.9831 12.6438 11.9831C13.475 11.2551 13.9969 10.1924 13.9969 9.00899C13.9969 8.77354 13.975 8.54428 13.9375 8.31812C14.3625 8.12295 14.8344 8.01761 15.3313 8.01761H16.6656C18.5063 8.01761 20 9.49848 20 11.3232C20 11.6888 19.7 11.9831 19.3344 11.9831H12.6687H12.6656ZM7 9.00899C7 8.2202 7.31607 7.46372 7.87868 6.90596C8.44129 6.3482 9.20435 6.03485 10 6.03485C10.7956 6.03485 11.5587 6.3482 12.1213 6.90596C12.6839 7.46372 13 8.2202 13 9.00899C13 9.79778 12.6839 10.5543 12.1213 11.112C11.5587 11.6698 10.7956 11.9831 10 11.9831C9.20435 11.9831 8.44129 11.6698 7.87868 11.112C7.31607 10.5543 7 9.79778 7 9.00899ZM4 17.1042C4 14.824 5.86562 12.9745 8.16562 12.9745H11.8313C14.1344 12.9745 16 14.824 16 17.1042C16 17.5596 15.6281 17.9314 15.1656 17.9314H4.83125C4.37188 17.9314 3.99688 17.5627 3.99688 17.1042H4Z" fill="#323232"/>
</svg>
