<svg width="40" height="40" viewBox="0 0 40 40" fill="none" xmlns="http://www.w3.org/2000/svg">
<path d="M5 3.75V38.1016C5 39.1484 5.85156 40 6.89844 40C7.28906 40 7.67188 39.8828 7.99219 39.6562L20 31.25L32.0078 39.6562C32.3281 39.8828 32.7109 40 33.1016 40C34.1484 40 35 39.1484 35 38.1016V3.75C35 1.67969 33.3203 0 31.25 0H8.75C6.67969 0 5 1.67969 5 3.75Z" fill="#CCEDC9"/>
<path d="M20.7574 22V13.81C20.7574 13.426 20.7694 12.97 20.7934 12.442C20.8174 11.902 20.8414 11.434 20.8654 11.038H20.7754C20.6194 11.398 20.4514 11.758 20.2714 12.118C20.0914 12.478 19.9054 12.844 19.7134 13.216L17.6434 16.528H24.8074V18.544H15.0694V16.744L20.0374 8.662H23.2234V22H20.7574Z" fill="white"/>
</svg>
