<svg width="40" height="40" viewBox="0 0 40 40" fill="none" xmlns="http://www.w3.org/2000/svg">
<path d="M5 3.75V38.1016C5 39.1484 5.85156 40 6.89844 40C7.28906 40 7.67188 39.8828 7.99219 39.6562L20 31.25L32.0078 39.6562C32.3281 39.8828 32.7109 40 33.1016 40C34.1484 40 35 39.1484 35 38.1016V3.75C35 1.67969 33.3203 0 31.25 0H8.75C6.67969 0 5 1.67969 5 3.75Z" fill="#CCEDC9"/>
<path d="M19.6774 22.252C18.9694 22.252 18.3394 22.168 17.7874 22C17.2354 21.832 16.7434 21.61 16.3114 21.334C15.8794 21.058 15.4954 20.758 15.1594 20.434L16.3834 18.742C16.6354 18.994 16.9054 19.222 17.1934 19.426C17.4934 19.63 17.8174 19.792 18.1654 19.912C18.5254 20.032 18.9094 20.092 19.3174 20.092C19.7734 20.092 20.1754 19.996 20.5234 19.804C20.8834 19.612 21.1654 19.336 21.3694 18.976C21.5734 18.604 21.6754 18.16 21.6754 17.644C21.6754 16.876 21.4654 16.282 21.0454 15.862C20.6374 15.442 20.0974 15.232 19.4254 15.232C19.0414 15.232 18.7114 15.286 18.4354 15.394C18.1594 15.49 17.8234 15.664 17.4274 15.916L16.2214 15.142L16.5814 8.662H23.7094V10.894H18.8674L18.6154 13.72C18.8794 13.6 19.1374 13.51 19.3894 13.45C19.6414 13.39 19.9174 13.36 20.2174 13.36C20.9614 13.36 21.6454 13.51 22.2694 13.81C22.8934 14.098 23.3914 14.554 23.7634 15.178C24.1354 15.802 24.3214 16.6 24.3214 17.572C24.3214 18.556 24.0994 19.402 23.6554 20.11C23.2234 20.806 22.6534 21.34 21.9454 21.712C21.2494 22.072 20.4934 22.252 19.6774 22.252Z" fill="white"/>
</svg>
