<svg width="48" height="49" viewBox="0 0 48 49" fill="none" xmlns="http://www.w3.org/2000/svg">
<path d="M24 5C29.1717 5 34.1316 7.05446 37.7886 10.7114C41.4455 14.3684 43.5 19.3283 43.5 24.5C43.5 29.6717 41.4455 34.6316 37.7886 38.2886C34.1316 41.9455 29.1717 44 24 44C18.8283 44 13.8684 41.9455 10.2114 38.2886C6.55446 34.6316 4.5 29.6717 4.5 24.5C4.5 19.3283 6.55446 14.3684 10.2114 10.7114C13.8684 7.05446 18.8283 5 24 5ZM24 48.5C30.3652 48.5 36.4697 45.9714 40.9706 41.4706C45.4714 36.9697 48 30.8652 48 24.5C48 18.1348 45.4714 12.0303 40.9706 7.52944C36.4697 3.02856 30.3652 0.5 24 0.5C17.6348 0.5 11.5303 3.02856 7.02944 7.52944C2.52856 12.0303 0 18.1348 0 24.5C0 30.8652 2.52856 36.9697 7.02944 41.4706C11.5303 45.9714 17.6348 48.5 24 48.5ZM34.5938 20.0938C35.475 19.2125 35.475 17.7875 34.5938 16.9156C33.7125 16.0438 32.2875 16.0344 31.4156 16.9156L21.0094 27.3219L16.6031 22.9156C15.7219 22.0344 14.2969 22.0344 13.425 22.9156C12.5531 23.7969 12.5437 25.2219 13.425 26.0938L19.425 32.0938C20.3062 32.975 21.7313 32.975 22.6031 32.0938L34.5938 20.0938Z" fill="#D2F1DA"/>
</svg>
