<svg width="22" height="24" viewBox="0 0 22 24" fill="none" xmlns="http://www.w3.org/2000/svg">
<path d="M17.7643 3.57959C16.5863 2.40446 14.6746 2.40446 13.4966 3.57959L4.61378 12.4413C2.58134 14.4689 2.58134 17.7535 4.61378 19.7811C6.64622 21.8087 9.93867 21.8087 11.9711 19.7811L19.3091 12.4605C19.8353 11.9356 20.6947 11.9356 21.2209 12.4605C21.7471 12.9855 21.7471 13.8428 21.2209 14.3677L13.8829 21.6883C10.7932 24.7706 5.79173 24.7706 2.70203 21.6883C-0.387657 18.6059 -0.387657 13.6164 2.70203 10.5341L11.5849 1.6724C13.8201 -0.557468 17.4408 -0.557468 19.676 1.6724C21.9112 3.90227 21.9112 7.51437 19.676 9.74424L11.1794 18.2206C9.79867 19.5981 7.55864 19.5981 6.17794 18.2206C4.79723 16.8432 4.79723 14.6085 6.17794 13.2311L13.1297 6.29589C13.656 5.77093 14.5153 5.77093 15.0415 6.29589C15.5677 6.82085 15.5677 7.67812 15.0415 8.20308L8.08968 15.1383C7.76623 15.461 7.76623 15.9908 8.08968 16.3135C8.41314 16.6361 8.94418 16.6361 9.26763 16.3135L17.7643 7.83705C18.9422 6.66192 18.9422 4.75473 17.7643 3.57959Z" fill="#0F9058"/>
</svg>
