<svg width="26" height="32" viewBox="0 0 26 32" fill="none" xmlns="http://www.w3.org/2000/svg">
<g filter="url(#filter0_dd_6191_10833)">
<path d="M7 0C5.34531 0 4 1.34531 4 3V21C4 22.6547 5.34531 24 7 24H19C20.6547 24 22 22.6547 22 21V7.5H16C15.1703 7.5 14.5 6.82969 14.5 6V0H7ZM16 0V6H22L16 0ZM9.25 12H16.75C17.1625 12 17.5 12.3375 17.5 12.75C17.5 13.1625 17.1625 13.5 16.75 13.5H9.25C8.8375 13.5 8.5 13.1625 8.5 12.75C8.5 12.3375 8.8375 12 9.25 12ZM9.25 15H16.75C17.1625 15 17.5 15.3375 17.5 15.75C17.5 16.1625 17.1625 16.5 16.75 16.5H9.25C8.8375 16.5 8.5 16.1625 8.5 15.75C8.5 15.3375 8.8375 15 9.25 15ZM9.25 18H16.75C17.1625 18 17.5 18.3375 17.5 18.75C17.5 19.1625 17.1625 19.5 16.75 19.5H9.25C8.8375 19.5 8.5 19.1625 8.5 18.75C8.5 18.3375 8.8375 18 9.25 18Z" fill="#323232"/>
</g>
<defs>
<filter id="filter0_dd_6191_10833" x="0" y="0" width="26" height="32" filterUnits="userSpaceOnUse" color-interpolation-filters="sRGB">
<feFlood flood-opacity="0" result="BackgroundImageFix"/>
<feColorMatrix in="SourceAlpha" type="matrix" values="0 0 0 0 0 0 0 0 0 0 0 0 0 0 0 0 0 0 127 0" result="hardAlpha"/>
<feOffset dy="4"/>
<feGaussianBlur stdDeviation="2"/>
<feComposite in2="hardAlpha" operator="out"/>
<feColorMatrix type="matrix" values="0 0 0 0 0 0 0 0 0 0 0 0 0 0 0 0 0 0 0.25 0"/>
<feBlend mode="normal" in2="BackgroundImageFix" result="effect1_dropShadow_6191_10833"/>
<feColorMatrix in="SourceAlpha" type="matrix" values="0 0 0 0 0 0 0 0 0 0 0 0 0 0 0 0 0 0 127 0" result="hardAlpha"/>
<feOffset dy="4"/>
<feGaussianBlur stdDeviation="2"/>
<feComposite in2="hardAlpha" operator="out"/>
<feColorMatrix type="matrix" values="0 0 0 0 0 0 0 0 0 0 0 0 0 0 0 0 0 0 0.25 0"/>
<feBlend mode="normal" in2="effect1_dropShadow_6191_10833" result="effect2_dropShadow_6191_10833"/>
<feBlend mode="normal" in="SourceGraphic" in2="effect2_dropShadow_6191_10833" result="shape"/>
</filter>
</defs>
</svg>
