<svg width="24" height="25" viewBox="0 0 24 25" fill="none" xmlns="http://www.w3.org/2000/svg">
<path d="M7.13134 2.70858C7.59535 3.12573 7.63285 3.83347 7.2157 4.29749L3.84103 8.04712C3.6348 8.27679 3.3442 8.41271 3.03486 8.4174C2.72552 8.42209 2.43023 8.30491 2.20994 8.08931L0.330436 6.21449C-0.105458 5.77391 -0.105458 5.06148 0.330436 4.62089C0.766331 4.18031 1.48345 4.18031 1.91934 4.62089L2.95518 5.65673L5.53774 2.78826C5.95489 2.32424 6.66263 2.28675 7.12665 2.70389L7.13134 2.70858ZM7.13134 10.2078C7.59535 10.625 7.63285 11.3327 7.2157 11.7968L3.84103 15.5464C3.6348 15.7761 3.3442 15.912 3.03486 15.9167C2.72552 15.9214 2.43023 15.8042 2.20994 15.5886L0.330436 13.7138C-0.110145 13.2732 -0.110145 12.5607 0.330436 12.1248C0.771018 11.689 1.48345 11.6843 1.91934 12.1248L2.95518 13.1607L5.53774 10.2922C5.95489 9.8282 6.66263 9.7907 7.12665 10.2078H7.13134ZM10.5013 5.41769C10.5013 4.58809 11.1716 3.91784 12.0012 3.91784H22.5001C23.3298 3.91784 24 4.58809 24 5.41769C24 6.2473 23.3298 6.91755 22.5001 6.91755H12.0012C11.1716 6.91755 10.5013 6.2473 10.5013 5.41769ZM10.5013 12.917C10.5013 12.0874 11.1716 11.4171 12.0012 11.4171H22.5001C23.3298 11.4171 24 12.0874 24 12.917C24 13.7466 23.3298 14.4168 22.5001 14.4168H12.0012C11.1716 14.4168 10.5013 13.7466 10.5013 12.917ZM7.50161 20.4162C7.50161 19.5866 8.17186 18.9164 9.00147 18.9164H22.5001C23.3298 18.9164 24 19.5866 24 20.4162C24 21.2458 23.3298 21.9161 22.5001 21.9161H9.00147C8.17186 21.9161 7.50161 21.2458 7.50161 20.4162ZM2.25212 18.1664C2.8488 18.1664 3.42104 18.4035 3.84296 18.8254C4.26487 19.2473 4.5019 19.8195 4.5019 20.4162C4.5019 21.0129 4.26487 21.5851 3.84296 22.0071C3.42104 22.429 2.8488 22.666 2.25212 22.666C1.65545 22.666 1.0832 22.429 0.661289 22.0071C0.239373 21.5851 0.00234351 21.0129 0.00234351 20.4162C0.00234351 19.8195 0.239373 19.2473 0.661289 18.8254C1.0832 18.4035 1.65545 18.1664 2.25212 18.1664Z" fill="#0F9058"/>
</svg>
