<svg width="24" height="22" viewBox="0 0 24 22" fill="none" xmlns="http://www.w3.org/2000/svg">
<path d="M4.5 3.38063C4.5 1.69967 5.84531 0.333008 7.5 0.333008H21C22.6547 0.333008 24 1.69967 24 3.38063V18.6187C24 20.2997 22.6547 21.6663 21 21.6663H3.75C1.67812 21.6663 0 19.9616 0 17.8568V4.90444C0 4.06158 0.670312 3.38063 1.5 3.38063C2.32969 3.38063 3 4.06158 3 4.90444V17.8568C3 18.2759 3.3375 18.6187 3.75 18.6187C4.1625 18.6187 4.5 18.2759 4.5 17.8568V3.38063ZM7.5 4.52348V8.33301C7.5 8.96634 8.00156 9.47587 8.625 9.47587H13.875C14.4984 9.47587 15 8.96634 15 8.33301V4.52348C15 3.89015 14.4984 3.38063 13.875 3.38063H8.625C8.00156 3.38063 7.5 3.89015 7.5 4.52348ZM17.25 4.14253C17.25 4.56158 17.5875 4.90444 18 4.90444H20.25C20.6625 4.90444 21 4.56158 21 4.14253C21 3.72348 20.6625 3.38063 20.25 3.38063H18C17.5875 3.38063 17.25 3.72348 17.25 4.14253ZM17.25 8.71396C17.25 9.13301 17.5875 9.47587 18 9.47587H20.25C20.6625 9.47587 21 9.13301 21 8.71396C21 8.29491 20.6625 7.95206 20.25 7.95206H18C17.5875 7.95206 17.25 8.29491 17.25 8.71396ZM7.5 13.2854C7.5 13.7044 7.8375 14.0473 8.25 14.0473H20.25C20.6625 14.0473 21 13.7044 21 13.2854C21 12.8663 20.6625 12.5235 20.25 12.5235H8.25C7.8375 12.5235 7.5 12.8663 7.5 13.2854ZM7.5 17.8568C7.5 18.2759 7.8375 18.6187 8.25 18.6187H20.25C20.6625 18.6187 21 18.2759 21 17.8568C21 17.4378 20.6625 17.0949 20.25 17.0949H8.25C7.8375 17.0949 7.5 17.4378 7.5 17.8568Z" fill="#0F9058"/>
</svg>
