<svg width="24" height="25" viewBox="0 0 24 25" fill="none" xmlns="http://www.w3.org/2000/svg">
<path d="M8.78662 15.2109C8.90479 15.2241 8.97613 15.283 8.99854 15.3623L9.41943 16.8311L11.9995 21.5098L14.5864 16.8154L15.0005 15.3623C15.0237 15.2827 15.0943 15.2239 15.1802 15.2129H15.1899C15.2907 15.213 15.3562 15.2483 15.395 15.3057C15.4084 15.3441 15.5352 15.9793 15.9741 16.1807L19.562 17.8291C20.4048 18.216 20.9956 18.9538 21.1421 19.8027L21.313 20.7891C21.3801 21.1752 21.2849 21.7159 20.9175 21.9893C20.8742 22.0216 20.8192 22.0702 20.7505 22.1309C20.0894 22.7172 18.0783 24.5 11.9995 24.5C5.9199 24.5 3.90951 22.7172 3.24854 22.1309C3.17986 22.0697 3.12476 22.0216 3.08154 21.9893C2.71427 21.7163 2.6191 21.1755 2.68604 20.7891L2.85693 19.8027C3.0035 18.9539 3.59372 18.2163 4.43604 17.8291L8.0249 16.1807C8.46665 15.978 8.59107 15.3396 8.59229 15.333C8.64381 15.2462 8.71233 15.211 8.78662 15.2109ZM11.9995 0.5C15.892 0.5 19.059 3.66741 19.0591 7.55957C19.0591 8.00207 19.0166 8.52413 18.9341 9.11133L19.2827 9.19434C19.582 9.26646 19.7666 9.5687 19.6948 9.86816L19.2134 11.876C19.1527 12.1281 18.9294 12.3037 18.6704 12.3037C18.6266 12.3037 18.5824 12.2983 18.5396 12.2881L17.9097 12.1377C17.768 12.3761 17.4794 12.7923 16.9966 13.1982C16.5304 13.5906 15.7232 14.098 14.5171 14.3047C14.4311 14.5407 14.2061 14.7021 13.9536 14.7021H12.7388C12.4068 14.7019 12.1372 14.4307 12.1372 14.0986V13.624C12.1372 13.292 12.4069 13.0217 12.7388 13.0215H13.9536C14.1767 13.0215 14.3783 13.1437 14.4829 13.3369C16.4982 12.9413 17.1474 11.5376 17.1538 11.5234L17.1724 11.4805C17.1741 11.4491 17.179 11.4192 17.186 11.3896L17.6675 9.38086C17.7936 8.65086 17.854 8.04564 17.854 7.55957C17.854 4.33148 15.2274 1.70508 11.9995 1.70508C8.77156 1.70515 6.14502 4.33153 6.14502 7.55957C6.14506 8.04602 6.20517 8.65092 6.32275 9.3584L6.81299 11.3896C6.83289 11.4732 6.83309 11.5599 6.81201 11.6484L6.82959 11.7197L6.79053 11.7168C6.72537 11.8895 6.5802 12.0195 6.40088 12.0625L5.45947 12.2881C5.41653 12.2983 5.37239 12.3037 5.32861 12.3037C5.06968 12.3036 4.84627 12.1281 4.78564 11.876L4.3042 9.86816C4.23231 9.5687 4.41699 9.26647 4.71631 9.19434L5.06494 9.11035C4.9824 8.52357 4.93996 8.00196 4.93994 7.55957C4.93994 3.66736 8.1071 0.500076 11.9995 0.5ZM11.9995 2.96875C13.4057 2.96875 14.7281 3.52771 15.6274 4.50195C16.4502 5.39323 16.8486 6.56673 16.7495 7.80664L16.3882 10.6289L16.2896 10.5674C15.7697 10.242 14.5788 8.00747 13.7095 6.37598C13.538 6.0539 13.3823 5.76069 13.2515 5.52051C11.8384 7.7603 10.0394 8.89584 8.84229 9.65137C8.32491 9.97804 7.91594 10.2364 7.68896 10.4834L7.57861 10.6035L7.24951 7.80957C7.15024 6.5669 7.54897 5.39281 8.37158 4.50195C9.27084 3.5278 10.5934 2.96885 11.9995 2.96875Z" fill="#0F9058"/>
</svg>
