<svg width="24" height="22" viewBox="0 0 24 22" fill="none" xmlns="http://www.w3.org/2000/svg">
<path d="M4.5 3.6316C4.5 1.95065 5.84531 0.583984 7.5 0.583984H21C22.6547 0.583984 24 1.95065 24 3.6316V18.8697C24 20.5507 22.6547 21.9173 21 21.9173H3.75C1.67812 21.9173 0 20.2126 0 18.1078V5.15541C0 4.31256 0.670312 3.6316 1.5 3.6316C2.32969 3.6316 3 4.31256 3 5.15541V18.1078C3 18.5268 3.3375 18.8697 3.75 18.8697C4.1625 18.8697 4.5 18.5268 4.5 18.1078V3.6316ZM7.5 4.77446V8.58398C7.5 9.21732 8.00156 9.72684 8.625 9.72684H13.875C14.4984 9.72684 15 9.21732 15 8.58398V4.77446C15 4.14113 14.4984 3.6316 13.875 3.6316H8.625C8.00156 3.6316 7.5 4.14113 7.5 4.77446ZM17.25 4.39351C17.25 4.81256 17.5875 5.15541 18 5.15541H20.25C20.6625 5.15541 21 4.81256 21 4.39351C21 3.97446 20.6625 3.6316 20.25 3.6316H18C17.5875 3.6316 17.25 3.97446 17.25 4.39351ZM17.25 8.96494C17.25 9.38398 17.5875 9.72684 18 9.72684H20.25C20.6625 9.72684 21 9.38398 21 8.96494C21 8.54589 20.6625 8.20303 20.25 8.20303H18C17.5875 8.20303 17.25 8.54589 17.25 8.96494ZM7.5 13.5364C7.5 13.9554 7.8375 14.2983 8.25 14.2983H20.25C20.6625 14.2983 21 13.9554 21 13.5364C21 13.1173 20.6625 12.7745 20.25 12.7745H8.25C7.8375 12.7745 7.5 13.1173 7.5 13.5364ZM7.5 18.1078C7.5 18.5268 7.8375 18.8697 8.25 18.8697H20.25C20.6625 18.8697 21 18.5268 21 18.1078C21 17.6887 20.6625 17.3459 20.25 17.3459H8.25C7.8375 17.3459 7.5 17.6887 7.5 18.1078Z" fill="#0F9058"/>
</svg>
