<svg width="22" height="24" viewBox="0 0 22 24" fill="none" xmlns="http://www.w3.org/2000/svg">
<path d="M11 12C12.6166 12 14.1669 11.3679 15.31 10.2426C16.4531 9.11742 17.0953 7.5913 17.0953 6C17.0953 4.4087 16.4531 2.88258 15.31 1.75736C14.1669 0.632141 12.6166 0 11 0C9.38348 0 7.83314 0.632141 6.69006 1.75736C5.54698 2.88258 4.9048 4.4087 4.9048 6C4.9048 7.5913 5.54698 9.11742 6.69006 10.2426C7.83314 11.3679 9.38348 12 11 12ZM8.82385 14.25C4.13337 14.25 0.333374 17.9906 0.333374 22.6078C0.333374 23.3766 0.966707 24 1.74766 24H20.2524C21.0334 24 21.6667 23.3766 21.6667 22.6078C21.6667 17.9906 17.8667 14.25 13.1762 14.25H8.82385Z" fill="#0F9058"/>
</svg>
